<ttFont>
<head>
    <!-- Most of this table will be recalculated by the compiler -->
    <tableVersion value="1.0"/>
    <fontRevision value="1.301"/>
    <checkSumAdjustment value="0x55a33405"/>
    <magicNumber value="0x5f0f3cf5"/>
    <flags value="00000000 00001011"/>
    <unitsPerEm value="1000"/>
    <created value="Thu Dec  2 04:03:29 2010"/>
    <modified value="Thu Mar  6 17:43:15 2014"/>
    <xMin value="-313"/>
    <yMin value="-585"/>
    <xMax value="1854"/>
    <yMax value="1140"/>
    <macStyle value="00000000 00000010"/>
    <lowestRecPPEM value="9"/>
    <fontDirectionHint value="2"/>
    <indexToLocFormat value="1"/>
    <glyphDataFormat value="0"/>
  </head>
    <TTGlyph name=".notdef" xMin="0" yMin="-200" xMax="500" yMax="800">
      <contour>
        <pt x="0" y="800" on="1"/>
        <pt x="500" y="800" on="1"/>
        <pt x="500" y="-200" on="1"/>
        <pt x="0" y="-200" on="1"/>
      </contour>
      <contour>
        <pt x="250" y="360" on="1"/>
        <pt x="429" y="750" on="1"/>
        <pt x="71" y="750" on="1"/>
      </contour>
      <contour>
        <pt x="222" y="300" on="1"/>
        <pt x="50" y="676" on="1"/>
        <pt x="50" y="-76" on="1"/>
      </contour>
      <contour>
        <pt x="278" y="300" on="1"/>
        <pt x="450" y="-76" on="1"/>
        <pt x="450" y="676" on="1"/>
      </contour>
      <contour>
        <pt x="71" y="-150" on="1"/>
        <pt x="429" y="-150" on="1"/>
        <pt x="250" y="240" on="1"/>
      </contour>
    </TTGlyph>
    <TTGlyph name="A" xMin="-135" yMin="-5" xMax="667" yMax="706">
      <contour>
        <pt x="667" y="22" on="1"/>
        <pt x="667" y="15" on="0"/>
        <pt x="660" y="-5" on="0"/>
        <pt x="655" y="-5" on="1"/>
        <pt x="605" y="-5" on="0"/>
        <pt x="513" y="0" on="0"/>
        <pt x="471" y="0" on="1"/>
        <pt x="425" y="0" on="0"/>
        <pt x="318" y="-5" on="0"/>
        <pt x="268" y="-5" on="1"/>
        <pt x="266" y="-5" on="0"/>
        <pt x="263" y="6" on="0"/>
        <pt x="263" y="12" on="1"/>
        <pt x="263" y="18" on="0"/>
        <pt x="270" y="38" on="0"/>
        <pt x="275" y="39" on="1"/>
        <pt x="308" y="41" on="0"/>
        <pt x="345" y="52" on="0"/>
        <pt x="363" y="72" on="0"/>
        <pt x="368" y="103" on="0"/>
        <pt x="368" y="125" on="1"/>
        <pt x="370" y="209" on="1"/>
        <pt x="177" y="209" on="1"/>
        <pt x="117" y="135" on="1"/>
        <pt x="103" y="116" on="0"/>
        <pt x="84" y="85" on="0"/>
        <pt x="84" y="73" on="1"/>
        <pt x="84" y="58" on="0"/>
        <pt x="103" y="41" on="0"/>
        <pt x="133" y="39" on="1"/>
        <pt x="135" y="39" on="0"/>
        <pt x="138" y="26" on="0"/>
        <pt x="138" y="22" on="1"/>
        <pt x="138" y="15" on="0"/>
        <pt x="131" y="-5" on="0"/>
        <pt x="126" y="-5" on="1"/>
        <pt x="104" y="-5" on="0"/>
        <pt x="70" y="-3" on="0"/>
        <pt x="39" y="-2" on="0"/>
        <pt x="6" y="0" on="0"/>
        <pt x="-15" y="0" on="1"/>
        <pt x="-32" y="0" on="0"/>
        <pt x="-58" y="-2" on="0"/>
        <pt x="-84" y="-3" on="0"/>
        <pt x="-112" y="-5" on="0"/>
        <pt x="-130" y="-5" on="1"/>
        <pt x="-132" y="-5" on="0"/>
        <pt x="-135" y="6" on="0"/>
        <pt x="-135" y="12" on="1"/>
        <pt x="-135" y="18" on="0"/>
        <pt x="-129" y="38" on="0"/>
        <pt x="-124" y="39" on="1"/>
        <pt x="-93" y="42" on="0"/>
        <pt x="-45" y="57" on="0"/>
        <pt x="-5" y="83" on="0"/>
        <pt x="31" y="118" on="0"/>
        <pt x="49" y="139" on="1"/>
        <pt x="514" y="698" on="1"/>
        <pt x="515" y="701" on="0"/>
        <pt x="532" y="706" on="0"/>
        <pt x="543" y="706" on="1"/>
        <pt x="554" y="706" on="0"/>
        <pt x="574" y="700" on="0"/>
        <pt x="574" y="698" on="1"/>
        <pt x="567" y="132" on="1"/>
        <pt x="567" y="106" on="0"/>
        <pt x="574" y="73" on="0"/>
        <pt x="595" y="53" on="0"/>
        <pt x="633" y="42" on="0"/>
        <pt x="662" y="39" on="1"/>
        <pt x="664" y="38" on="0"/>
        <pt x="667" y="26" on="0"/>
      </contour>
      <contour>
        <pt x="216" y="257" on="1"/>
        <pt x="371" y="257" on="1"/>
        <pt x="375" y="456" on="1"/>
      </contour>
    </TTGlyph>
    <TTGlyph name="A.sc" xMin="-109" yMin="-5" xMax="477" yMax="494">
      <component glyphName="a.sc" x="0" y="0" flags="0x204"/>
    </TTGlyph>
    <TTGlyph name="A.swa" xMin="-38" yMin="-44" xMax="1103" yMax="712">
      <contour>
        <pt x="1103" y="22" on="1"/>
        <pt x="1103" y="15" on="0"/>
        <pt x="1097" y="-5" on="0"/>
        <pt x="1092" y="-5" on="1"/>
        <pt x="1042" y="-5" on="0"/>
        <pt x="950" y="0" on="0"/>
        <pt x="908" y="0" on="1"/>
        <pt x="861" y="0" on="0"/>
        <pt x="755" y="-5" on="0"/>
        <pt x="705" y="-5" on="1"/>
        <pt x="703" y="-5" on="0"/>
        <pt x="699" y="6" on="0"/>
        <pt x="699" y="12" on="1"/>
        <pt x="699" y="18" on="0"/>
        <pt x="706" y="38" on="0"/>
        <pt x="711" y="39" on="1"/>
        <pt x="744" y="41" on="0"/>
        <pt x="783" y="52" on="0"/>
        <pt x="803" y="72" on="0"/>
        <pt x="810" y="103" on="0"/>
        <pt x="812" y="125" on="1"/>
        <pt x="819" y="193" on="1"/>
        <pt x="659" y="193" on="1"/>
        <pt x="610" y="141" on="0"/>
        <pt x="510" y="54" on="0"/>
        <pt x="406" y="-9" on="0"/>
        <pt x="297" y="-44" on="0"/>
        <pt x="239" y="-44" on="1"/>
        <pt x="177" y="-44" on="0"/>
        <pt x="76" y="-10" on="0"/>
        <pt x="2" y="50" on="0"/>
        <pt x="-38" y="133" on="0"/>
        <pt x="-38" y="181" on="1"/>
        <pt x="-38" y="231" on="0"/>
        <pt x="-4" y="314" on="0"/>
        <pt x="53" y="374" on="0"/>
        <pt x="127" y="408" on="0"/>
        <pt x="166" y="408" on="1"/>
        <pt x="202" y="408" on="0"/>
        <pt x="262" y="383" on="0"/>
        <pt x="305" y="342" on="0"/>
        <pt x="329" y="287" on="0"/>
        <pt x="329" y="257" on="1"/>
        <pt x="329" y="236" on="0"/>
        <pt x="317" y="191" on="0"/>
        <pt x="293" y="155" on="0"/>
        <pt x="255" y="132" on="0"/>
        <pt x="229" y="132" on="1"/>
        <pt x="214" y="132" on="0"/>
        <pt x="189" y="143" on="0"/>
        <pt x="169" y="162" on="0"/>
        <pt x="158" y="186" on="0"/>
        <pt x="158" y="198" on="1"/>
        <pt x="158" y="224" on="0"/>
        <pt x="183" y="246" on="0"/>
        <pt x="214" y="260" on="0"/>
        <pt x="239" y="275" on="0"/>
        <pt x="239" y="294" on="1"/>
        <pt x="239" y="320" on="0"/>
        <pt x="195" y="360" on="0"/>
        <pt x="166" y="360" on="1"/>
        <pt x="142" y="360" on="0"/>
        <pt x="99" y="338" on="0"/>
        <pt x="66" y="298" on="0"/>
        <pt x="46" y="241" on="0"/>
        <pt x="46" y="206" on="1"/>
        <pt x="46" y="172" on="0"/>
        <pt x="72" y="110" on="0"/>
        <pt x="124" y="63" on="0"/>
        <pt x="202" y="35" on="0"/>
        <pt x="255" y="35" on="1"/>
        <pt x="331" y="35" on="0"/>
        <pt x="496" y="124" on="0"/>
        <pt x="681" y="294" on="0"/>
        <pt x="890" y="540" on="0"/>
        <pt x="1009" y="698" on="1"/>
        <pt x="1020" y="712" on="0"/>
        <pt x="1038" y="712" on="1"/>
        <pt x="1067" y="712" on="0"/>
        <pt x="1067" y="683" on="1"/>
        <pt x="1067" y="672" on="0"/>
        <pt x="1054" y="620" on="0"/>
        <pt x="1051" y="588" on="1"/>
        <pt x="1012" y="132" on="1"/>
        <pt x="1010" y="106" on="0"/>
        <pt x="1014" y="73" on="0"/>
        <pt x="1033" y="53" on="0"/>
        <pt x="1069" y="42" on="0"/>
        <pt x="1098" y="39" on="1"/>
        <pt x="1101" y="38" on="0"/>
        <pt x="1103" y="26" on="0"/>
      </contour>
      <contour>
        <pt x="839" y="409" on="1"/>
        <pt x="808" y="369" on="0"/>
        <pt x="734" y="277" on="0"/>
        <pt x="703" y="241" on="1"/>
        <pt x="824" y="241" on="1"/>
      </contour>
    </TTGlyph>
    <TTGlyph name="AE" xMin="-135" yMin="-6" xMax="1000" yMax="690">
      <contour>
        <pt x="1000" y="690" on="1"/>
        <pt x="996" y="666" on="0"/>
        <pt x="990" y="600" on="0"/>
        <pt x="989" y="578" on="1"/>
        <pt x="988" y="570" on="0"/>
        <pt x="987" y="541" on="0"/>
        <pt x="985" y="508" on="0"/>
        <pt x="984" y="478" on="0"/>
        <pt x="984" y="471" on="1"/>
        <pt x="984" y="468" on="0"/>
        <pt x="967" y="463" on="0"/>
        <pt x="962" y="463" on="1"/>
        <pt x="956" y="463" on="0"/>
        <pt x="940" y="468" on="0"/>
        <pt x="940" y="471" on="1"/>
        <pt x="939" y="501" on="0"/>
        <pt x="918" y="560" on="0"/>
        <pt x="880" y="607" on="0"/>
        <pt x="829" y="636" on="0"/>
        <pt x="799" y="636" on="1"/>
        <pt x="771" y="636" on="1"/>
        <pt x="761" y="636" on="0"/>
        <pt x="739" y="631" on="0"/>
        <pt x="719" y="618" on="0"/>
        <pt x="702" y="595" on="0"/>
        <pt x="698" y="577" on="1"/>
        <pt x="651" y="378" on="1"/>
        <pt x="694" y="378" on="1"/>
        <pt x="745" y="378" on="0"/>
        <pt x="804" y="415" on="0"/>
        <pt x="822" y="466" on="1"/>
        <pt x="824" y="470" on="0"/>
        <pt x="839" y="474" on="0"/>
        <pt x="845" y="474" on="1"/>
        <pt x="852" y="474" on="0"/>
        <pt x="868" y="470" on="0"/>
        <pt x="867" y="466" on="1"/>
        <pt x="862" y="447" on="0"/>
        <pt x="855" y="420" on="0"/>
        <pt x="848" y="396" on="0"/>
        <pt x="841" y="370" on="0"/>
        <pt x="837" y="352" on="1"/>
        <pt x="829" y="316" on="0"/>
        <pt x="819" y="259" on="0"/>
        <pt x="810" y="222" on="1"/>
        <pt x="808" y="217" on="0"/>
        <pt x="793" y="214" on="0"/>
        <pt x="788" y="214" on="1"/>
        <pt x="779" y="214" on="0"/>
        <pt x="765" y="219" on="0"/>
        <pt x="766" y="222" on="1"/>
        <pt x="773" y="281" on="0"/>
        <pt x="727" y="329" on="0"/>
        <pt x="682" y="329" on="1"/>
        <pt x="640" y="329" on="1"/>
        <pt x="590" y="123" on="1"/>
        <pt x="585" y="101" on="0"/>
        <pt x="585" y="89" on="1"/>
        <pt x="585" y="66" on="0"/>
        <pt x="611" y="49" on="0"/>
        <pt x="631" y="49" on="1"/>
        <pt x="697" y="49" on="1"/>
        <pt x="736" y="49" on="0"/>
        <pt x="806" y="80" on="0"/>
        <pt x="864" y="130" on="0"/>
        <pt x="905" y="193" on="0"/>
        <pt x="915" y="225" on="1"/>
        <pt x="915" y="227" on="0"/>
        <pt x="928" y="229" on="0"/>
        <pt x="931" y="229" on="1"/>
        <pt x="939" y="229" on="0"/>
        <pt x="960" y="220" on="0"/>
        <pt x="959" y="216" on="1"/>
        <pt x="953" y="194" on="0"/>
        <pt x="938" y="136" on="0"/>
        <pt x="923" y="76" on="0"/>
        <pt x="909" y="17" on="0"/>
        <pt x="905" y="-5" on="1"/>
        <pt x="882" y="-4" on="0"/>
        <pt x="797" y="-3" on="0"/>
        <pt x="704" y="-1" on="0"/>
        <pt x="618" y="0" on="0"/>
        <pt x="594" y="0" on="1"/>
        <pt x="570" y="0" on="0"/>
        <pt x="484" y="-1" on="0"/>
        <pt x="391" y="-3" on="0"/>
        <pt x="306" y="-4" on="0"/>
        <pt x="283" y="-5" on="1"/>
        <pt x="281" y="-6" on="0"/>
        <pt x="277" y="6" on="0"/>
        <pt x="277" y="12" on="1"/>
        <pt x="277" y="18" on="0"/>
        <pt x="288" y="38" on="0"/>
        <pt x="293" y="39" on="1"/>
        <pt x="323" y="42" on="0"/>
        <pt x="358" y="54" on="0"/>
        <pt x="378" y="74" on="0"/>
        <pt x="388" y="103" on="0"/>
        <pt x="393" y="123" on="1"/>
        <pt x="421" y="249" on="1"/>
        <pt x="209" y="249" on="1"/>
        <pt x="117" y="135" on="1"/>
        <pt x="103" y="116" on="0"/>
        <pt x="83" y="85" on="0"/>
        <pt x="83" y="73" on="1"/>
        <pt x="83" y="58" on="0"/>
        <pt x="102" y="41" on="0"/>
        <pt x="133" y="39" on="1"/>
        <pt x="135" y="39" on="0"/>
        <pt x="138" y="26" on="0"/>
        <pt x="138" y="22" on="1"/>
        <pt x="138" y="15" on="0"/>
        <pt x="131" y="-5" on="0"/>
        <pt x="126" y="-5" on="1"/>
        <pt x="104" y="-5" on="0"/>
        <pt x="69" y="-3" on="0"/>
        <pt x="38" y="-2" on="0"/>
        <pt x="5" y="0" on="0"/>
        <pt x="-15" y="0" on="1"/>
        <pt x="-32" y="0" on="0"/>
        <pt x="-59" y="-2" on="0"/>
        <pt x="-85" y="-3" on="0"/>
        <pt x="-112" y="-5" on="0"/>
        <pt x="-130" y="-5" on="1"/>
        <pt x="-132" y="-5" on="0"/>
        <pt x="-135" y="6" on="0"/>
        <pt x="-135" y="12" on="1"/>
        <pt x="-135" y="18" on="0"/>
        <pt x="-129" y="38" on="0"/>
        <pt x="-124" y="39" on="1"/>
        <pt x="-93" y="42" on="0"/>
        <pt x="-45" y="57" on="0"/>
        <pt x="-5" y="83" on="0"/>
        <pt x="31" y="118" on="0"/>
        <pt x="49" y="139" on="1"/>
        <pt x="399" y="559" on="1"/>
        <pt x="408" y="570" on="0"/>
        <pt x="419" y="592" on="0"/>
        <pt x="419" y="601" on="1"/>
        <pt x="419" y="618" on="0"/>
        <pt x="384" y="641" on="0"/>
        <pt x="344" y="646" on="1"/>
        <pt x="341" y="647" on="0"/>
        <pt x="339" y="660" on="0"/>
        <pt x="339" y="663" on="1"/>
        <pt x="339" y="670" on="0"/>
        <pt x="349" y="690" on="0"/>
        <pt x="354" y="690" on="1"/>
        <pt x="367" y="689" on="0"/>
        <pt x="423" y="688" on="0"/>
        <pt x="494" y="687" on="0"/>
        <pt x="573" y="686" on="0"/>
        <pt x="644" y="685" on="0"/>
        <pt x="701" y="685" on="0"/>
        <pt x="715" y="685" on="1"/>
        <pt x="735" y="685" on="0"/>
        <pt x="815" y="686" on="0"/>
        <pt x="902" y="687" on="0"/>
        <pt x="980" y="689" on="0"/>
      </contour>
      <contour>
        <pt x="247" y="297" on="1"/>
        <pt x="433" y="297" on="1"/>
        <pt x="514" y="631" on="1"/>
      </contour>
    </TTGlyph>
    <TTGlyph name="AE.sc" xMin="-123" yMin="-5" xMax="722" yMax="481">
      <component glyphName="ae.sc" x="0" y="0" flags="0x204"/>
    </TTGlyph>
    <TTGlyph name="AE.swa" xMin="-38" yMin="-43" xMax="1422" yMax="690">
      <contour>
        <pt x="1422" y="690" on="1"/>
        <pt x="1418" y="666" on="0"/>
        <pt x="1412" y="600" on="0"/>
        <pt x="1411" y="578" on="1"/>
        <pt x="1410" y="570" on="0"/>
        <pt x="1409" y="541" on="0"/>
        <pt x="1407" y="508" on="0"/>
        <pt x="1406" y="478" on="0"/>
        <pt x="1406" y="471" on="1"/>
        <pt x="1406" y="468" on="0"/>
        <pt x="1389" y="463" on="0"/>
        <pt x="1383" y="463" on="1"/>
        <pt x="1378" y="463" on="0"/>
        <pt x="1362" y="468" on="0"/>
        <pt x="1362" y="471" on="1"/>
        <pt x="1361" y="501" on="0"/>
        <pt x="1340" y="560" on="0"/>
        <pt x="1302" y="607" on="0"/>
        <pt x="1251" y="636" on="0"/>
        <pt x="1221" y="636" on="1"/>
        <pt x="1193" y="636" on="1"/>
        <pt x="1183" y="636" on="0"/>
        <pt x="1161" y="631" on="0"/>
        <pt x="1141" y="618" on="0"/>
        <pt x="1124" y="595" on="0"/>
        <pt x="1120" y="577" on="1"/>
        <pt x="1073" y="378" on="1"/>
        <pt x="1116" y="378" on="1"/>
        <pt x="1167" y="378" on="0"/>
        <pt x="1226" y="415" on="0"/>
        <pt x="1244" y="466" on="1"/>
        <pt x="1246" y="470" on="0"/>
        <pt x="1261" y="474" on="0"/>
        <pt x="1266" y="474" on="1"/>
        <pt x="1274" y="474" on="0"/>
        <pt x="1290" y="470" on="0"/>
        <pt x="1289" y="466" on="1"/>
        <pt x="1284" y="447" on="0"/>
        <pt x="1277" y="420" on="0"/>
        <pt x="1270" y="396" on="0"/>
        <pt x="1263" y="370" on="0"/>
        <pt x="1259" y="352" on="1"/>
        <pt x="1251" y="316" on="0"/>
        <pt x="1241" y="259" on="0"/>
        <pt x="1232" y="222" on="1"/>
        <pt x="1230" y="217" on="0"/>
        <pt x="1215" y="214" on="0"/>
        <pt x="1210" y="214" on="1"/>
        <pt x="1201" y="214" on="0"/>
        <pt x="1187" y="219" on="0"/>
        <pt x="1188" y="222" on="1"/>
        <pt x="1195" y="281" on="0"/>
        <pt x="1149" y="329" on="0"/>
        <pt x="1104" y="329" on="1"/>
        <pt x="1062" y="329" on="1"/>
        <pt x="1012" y="123" on="1"/>
        <pt x="1007" y="101" on="0"/>
        <pt x="1007" y="89" on="1"/>
        <pt x="1007" y="66" on="0"/>
        <pt x="1033" y="49" on="0"/>
        <pt x="1053" y="49" on="1"/>
        <pt x="1119" y="49" on="1"/>
        <pt x="1158" y="49" on="0"/>
        <pt x="1228" y="80" on="0"/>
        <pt x="1285" y="130" on="0"/>
        <pt x="1327" y="193" on="0"/>
        <pt x="1336" y="225" on="1"/>
        <pt x="1337" y="227" on="0"/>
        <pt x="1350" y="229" on="0"/>
        <pt x="1353" y="229" on="1"/>
        <pt x="1361" y="229" on="0"/>
        <pt x="1382" y="220" on="0"/>
        <pt x="1381" y="216" on="1"/>
        <pt x="1375" y="194" on="0"/>
        <pt x="1360" y="136" on="0"/>
        <pt x="1345" y="76" on="0"/>
        <pt x="1331" y="17" on="0"/>
        <pt x="1327" y="-5" on="1"/>
        <pt x="1304" y="-4" on="0"/>
        <pt x="1219" y="-3" on="0"/>
        <pt x="1126" y="-1" on="0"/>
        <pt x="1040" y="0" on="0"/>
        <pt x="1016" y="0" on="1"/>
        <pt x="992" y="0" on="0"/>
        <pt x="906" y="-1" on="0"/>
        <pt x="813" y="-3" on="0"/>
        <pt x="727" y="-4" on="0"/>
        <pt x="704" y="-5" on="1"/>
        <pt x="702" y="-6" on="0"/>
        <pt x="699" y="6" on="0"/>
        <pt x="699" y="12" on="1"/>
        <pt x="699" y="18" on="0"/>
        <pt x="710" y="38" on="0"/>
        <pt x="715" y="39" on="1"/>
        <pt x="745" y="42" on="0"/>
        <pt x="780" y="54" on="0"/>
        <pt x="800" y="74" on="0"/>
        <pt x="810" y="103" on="0"/>
        <pt x="815" y="123" on="1"/>
        <pt x="832" y="194" on="1"/>
        <pt x="659" y="194" on="1"/>
        <pt x="610" y="142" on="0"/>
        <pt x="510" y="55" on="0"/>
        <pt x="406" y="-8" on="0"/>
        <pt x="297" y="-43" on="0"/>
        <pt x="239" y="-43" on="1"/>
        <pt x="177" y="-43" on="0"/>
        <pt x="76" y="-9" on="0"/>
        <pt x="2" y="51" on="0"/>
        <pt x="-38" y="134" on="0"/>
        <pt x="-38" y="182" on="1"/>
        <pt x="-38" y="232" on="0"/>
        <pt x="-4" y="315" on="0"/>
        <pt x="53" y="375" on="0"/>
        <pt x="127" y="409" on="0"/>
        <pt x="166" y="409" on="1"/>
        <pt x="202" y="409" on="0"/>
        <pt x="262" y="384" on="0"/>
        <pt x="305" y="342" on="0"/>
        <pt x="329" y="287" on="0"/>
        <pt x="329" y="257" on="1"/>
        <pt x="329" y="236" on="0"/>
        <pt x="317" y="192" on="0"/>
        <pt x="293" y="156" on="0"/>
        <pt x="255" y="133" on="0"/>
        <pt x="229" y="133" on="1"/>
        <pt x="214" y="133" on="0"/>
        <pt x="189" y="144" on="0"/>
        <pt x="169" y="163" on="0"/>
        <pt x="158" y="187" on="0"/>
        <pt x="158" y="199" on="1"/>
        <pt x="158" y="225" on="0"/>
        <pt x="183" y="247" on="0"/>
        <pt x="214" y="261" on="0"/>
        <pt x="239" y="276" on="0"/>
        <pt x="239" y="295" on="1"/>
        <pt x="239" y="308" on="0"/>
        <pt x="227" y="332" on="0"/>
        <pt x="207" y="350" on="0"/>
        <pt x="180" y="361" on="0"/>
        <pt x="166" y="361" on="1"/>
        <pt x="142" y="361" on="0"/>
        <pt x="99" y="339" on="0"/>
        <pt x="66" y="299" on="0"/>
        <pt x="46" y="242" on="0"/>
        <pt x="46" y="207" on="1"/>
        <pt x="46" y="173" on="0"/>
        <pt x="72" y="111" on="0"/>
        <pt x="124" y="64" on="0"/>
        <pt x="202" y="36" on="0"/>
        <pt x="255" y="36" on="1"/>
        <pt x="323" y="36" on="0"/>
        <pt x="471" y="109" on="0"/>
        <pt x="634" y="248" on="0"/>
        <pt x="814" y="450" on="0"/>
        <pt x="916" y="579" on="1"/>
        <pt x="918" y="582" on="0"/>
        <pt x="925" y="595" on="0"/>
        <pt x="925" y="604" on="1"/>
        <pt x="925" y="619" on="0"/>
        <pt x="899" y="641" on="0"/>
        <pt x="852" y="646" on="1"/>
        <pt x="849" y="647" on="0"/>
        <pt x="847" y="660" on="0"/>
        <pt x="847" y="663" on="1"/>
        <pt x="847" y="670" on="0"/>
        <pt x="857" y="690" on="0"/>
        <pt x="862" y="690" on="1"/>
        <pt x="881" y="689" on="0"/>
        <pt x="957" y="687" on="0"/>
        <pt x="1040" y="686" on="0"/>
        <pt x="1116" y="685" on="0"/>
        <pt x="1137" y="685" on="1"/>
        <pt x="1157" y="685" on="0"/>
        <pt x="1237" y="686" on="0"/>
        <pt x="1324" y="687" on="0"/>
        <pt x="1402" y="689" on="0"/>
      </contour>
      <contour>
        <pt x="902" y="488" on="1"/>
        <pt x="887" y="468" on="0"/>
        <pt x="832" y="400" on="0"/>
        <pt x="773" y="326" on="0"/>
        <pt x="718" y="260" on="0"/>
        <pt x="703" y="242" on="1"/>
        <pt x="843" y="242" on="1"/>
      </contour>
    </TTGlyph>
    <TTGlyph name="AEacute" xMin="-135" yMin="-6" xMax="1000" yMax="991">
      <component glyphName="AE" x="0" y="0" flags="0x204"/>
      <component glyphName="acute.cap" x="457" y="0" flags="0x4"/>
    </TTGlyph>
    <TTGlyph name="AEacute.sc" xMin="-123" yMin="-5" xMax="722" yMax="776">
      <component glyphName="acute" x="291" y="15" flags="0x4"/>
      <component glyphName="ae.sc" x="0" y="0" flags="0x4"/>
    </TTGlyph>
    <TTGlyph name="AEacute.swa" xMin="-38" yMin="-43" xMax="1422" yMax="991">
      <component glyphName="AE.swa" x="0" y="0" flags="0x204"/>
      <component glyphName="acute.cap" x="926" y="0" flags="0x4"/>
    </TTGlyph>
    <TTGlyph name="Aacute" xMin="-135" yMin="-5" xMax="752" yMax="1006">
      <component glyphName="A" x="0" y="0" flags="0x204"/>
      <component glyphName="acute.cap" x="354" y="15" flags="0x4"/>
    </TTGlyph>
    <TTGlyph name="Aacute.sc" xMin="-109" yMin="-5" xMax="492" yMax="786">
      <component glyphName="a.sc" x="0" y="0" flags="0x204"/>
      <component glyphName="acute" x="138" y="25" flags="0x4"/>
    </TTGlyph>
    <TTGlyph name="Aacute.swa" xMin="-38" yMin="-44" xMax="1246" yMax="1006">
      <component glyphName="A.swa" x="0" y="0" flags="0x204"/>
      <component glyphName="acute.cap" x="848" y="15" flags="0x4"/>
    </TTGlyph>
    <TTGlyph name="Abreve" xMin="-135" yMin="-5" xMax="767" yMax="971">
      <component glyphName="A" x="0" y="0" flags="0x204"/>
      <component glyphName="breve.cap" x="329" y="15" flags="0x4"/>
    </TTGlyph>
    <TTGlyph name="Abreve.sc" xMin="-109" yMin="-5" xMax="501" yMax="738">
      <component glyphName="a.sc" x="0" y="0" flags="0x204"/>
      <component glyphName="breve" x="93" y="25" flags="0x4"/>
    </TTGlyph>
    <TTGlyph name="Abreve.swa" xMin="-38" yMin="-44" xMax="1260" yMax="971">
      <component glyphName="A.swa" x="0" y="0" flags="0x204"/>
      <component glyphName="breve.cap" x="822" y="15" flags="0x4"/>
    </TTGlyph>
    <TTGlyph name="Acircumflex" xMin="-135" yMin="-5" xMax="760" yMax="977">
      <component glyphName="A" x="0" y="0" flags="0x204"/>
      <component glyphName="circumflex.cap" x="317" y="15" flags="0x4"/>
    </TTGlyph>
    <TTGlyph name="Acircumflex.sc" xMin="-109" yMin="-5" xMax="477" yMax="756">
      <component glyphName="a.sc" x="0" y="0" flags="0x204"/>
      <component glyphName="circumflex" x="101" y="10" flags="0x4"/>
    </TTGlyph>
    <TTGlyph name="Acircumflex.swa" xMin="-38" yMin="-44" xMax="1254" yMax="977">
      <component glyphName="A.swa" x="0" y="0" flags="0x204"/>
      <component glyphName="circumflex.cap" x="811" y="15" flags="0x4"/>
    </TTGlyph>
    <TTGlyph name="Adieresis" xMin="-135" yMin="-5" xMax="793" yMax="959">
      <component glyphName="A" x="0" y="0" flags="0x204"/>
      <component glyphName="dieresis.cap" x="295" y="15" flags="0x4"/>
    </TTGlyph>
    <TTGlyph name="Adieresis.sc" xMin="-109" yMin="-5" xMax="522" yMax="746">
      <component glyphName="a.sc" x="0" y="0" flags="0x204"/>
      <component glyphName="dieresis" x="91" y="25" flags="0x4"/>
    </TTGlyph>
    <TTGlyph name="Adieresis.swa" xMin="-38" yMin="-44" xMax="1287" yMax="959">
      <component glyphName="A.swa" x="0" y="0" flags="0x204"/>
      <component glyphName="dieresis.cap" x="789" y="15" flags="0x4"/>
    </TTGlyph>
    <TTGlyph name="Agrave" xMin="-135" yMin="-5" xMax="667" yMax="1005">
      <component glyphName="A" x="0" y="0" flags="0x204"/>
      <component glyphName="grave.cap" x="265" y="15" flags="0x4"/>
    </TTGlyph>
    <TTGlyph name="Agrave.sc" xMin="-109" yMin="-5" xMax="477" yMax="786">
      <component glyphName="a.sc" x="0" y="0" flags="0x204"/>
      <component glyphName="grave" x="51" y="25" flags="0x4"/>
    </TTGlyph>
    <TTGlyph name="Agrave.swa" xMin="-38" yMin="-44" xMax="1123" yMax="1005">
      <component glyphName="A.swa" x="0" y="0" flags="0x204"/>
      <component glyphName="grave.cap" x="759" y="15" flags="0x4"/>
    </TTGlyph>
    <TTGlyph name="Amacron" xMin="-135" yMin="-5" xMax="775" yMax="902">
      <component glyphName="A" x="0" y="0" flags="0x204"/>
      <component glyphName="macron.cap" x="267" y="15" flags="0x4"/>
    </TTGlyph>
    <TTGlyph name="Amacron.sc" xMin="-109" yMin="-5" xMax="481" yMax="676">
      <component glyphName="a.sc" x="0" y="0" flags="0x204"/>
      <component glyphName="macron" x="65" y="25" flags="0x4"/>
    </TTGlyph>
    <TTGlyph name="Amacron.swa" xMin="-38" yMin="-44" xMax="1269" yMax="902">
      <component glyphName="A.swa" x="0" y="0" flags="0x204"/>
      <component glyphName="macron.cap" x="761" y="15" flags="0x4"/>
    </TTGlyph>
    <TTGlyph name="Aogonek" xMin="-135" yMin="-204" xMax="667" yMax="706">
      <contour>
        <pt x="600" y="-172" on="1"/>
        <pt x="586" y="-186" on="0"/>
        <pt x="545" y="-204" on="0"/>
        <pt x="519" y="-204" on="1"/>
        <pt x="471" y="-204" on="0"/>
        <pt x="406" y="-160" on="0"/>
        <pt x="406" y="-120" on="1"/>
        <pt x="406" y="-85" on="0"/>
        <pt x="452" y="-26" on="0"/>
        <pt x="487" y="0" on="1"/>
        <pt x="471" y="0" on="1"/>
        <pt x="425" y="0" on="0"/>
        <pt x="318" y="-5" on="0"/>
        <pt x="268" y="-5" on="1"/>
        <pt x="266" y="-5" on="0"/>
        <pt x="263" y="6" on="0"/>
        <pt x="263" y="12" on="1"/>
        <pt x="263" y="18" on="0"/>
        <pt x="270" y="38" on="0"/>
        <pt x="275" y="39" on="1"/>
        <pt x="308" y="41" on="0"/>
        <pt x="345" y="52" on="0"/>
        <pt x="363" y="72" on="0"/>
        <pt x="368" y="103" on="0"/>
        <pt x="368" y="125" on="1"/>
        <pt x="370" y="209" on="1"/>
        <pt x="177" y="209" on="1"/>
        <pt x="117" y="135" on="1"/>
        <pt x="103" y="116" on="0"/>
        <pt x="84" y="85" on="0"/>
        <pt x="84" y="73" on="1"/>
        <pt x="84" y="58" on="0"/>
        <pt x="103" y="41" on="0"/>
        <pt x="133" y="39" on="1"/>
        <pt x="135" y="39" on="0"/>
        <pt x="138" y="26" on="0"/>
        <pt x="138" y="22" on="1"/>
        <pt x="138" y="15" on="0"/>
        <pt x="131" y="-5" on="0"/>
        <pt x="126" y="-5" on="1"/>
        <pt x="104" y="-5" on="0"/>
        <pt x="70" y="-3" on="0"/>
        <pt x="39" y="-2" on="0"/>
        <pt x="6" y="0" on="0"/>
        <pt x="-15" y="0" on="1"/>
        <pt x="-32" y="0" on="0"/>
        <pt x="-58" y="-2" on="0"/>
        <pt x="-84" y="-3" on="0"/>
        <pt x="-112" y="-5" on="0"/>
        <pt x="-130" y="-5" on="1"/>
        <pt x="-132" y="-5" on="0"/>
        <pt x="-135" y="6" on="0"/>
        <pt x="-135" y="12" on="1"/>
        <pt x="-135" y="18" on="0"/>
        <pt x="-129" y="38" on="0"/>
        <pt x="-124" y="39" on="1"/>
        <pt x="-93" y="42" on="0"/>
        <pt x="-45" y="57" on="0"/>
        <pt x="-5" y="83" on="0"/>
        <pt x="31" y="118" on="0"/>
        <pt x="49" y="139" on="1"/>
        <pt x="514" y="698" on="1"/>
        <pt x="515" y="701" on="0"/>
        <pt x="532" y="706" on="0"/>
        <pt x="543" y="706" on="1"/>
        <pt x="554" y="706" on="0"/>
        <pt x="574" y="700" on="0"/>
        <pt x="574" y="698" on="1"/>
        <pt x="567" y="132" on="1"/>
        <pt x="567" y="106" on="0"/>
        <pt x="574" y="73" on="0"/>
        <pt x="595" y="53" on="0"/>
        <pt x="633" y="42" on="0"/>
        <pt x="662" y="39" on="1"/>
        <pt x="664" y="38" on="0"/>
        <pt x="667" y="26" on="0"/>
        <pt x="667" y="22" on="1"/>
        <pt x="667" y="15" on="0"/>
        <pt x="660" y="-5" on="0"/>
        <pt x="655" y="-5" on="1"/>
        <pt x="630" y="-5" on="0"/>
        <pt x="583" y="-3" on="0"/>
        <pt x="560" y="-2" on="1"/>
        <pt x="534" y="-25" on="0"/>
        <pt x="499" y="-78" on="0"/>
        <pt x="499" y="-103" on="1"/>
        <pt x="499" y="-127" on="0"/>
        <pt x="528" y="-150" on="0"/>
        <pt x="548" y="-150" on="1"/>
        <pt x="568" y="-150" on="0"/>
        <pt x="587" y="-139" on="1"/>
        <pt x="590" y="-137" on="0"/>
        <pt x="597" y="-148" on="0"/>
        <pt x="599" y="-153" on="1"/>
        <pt x="601" y="-159" on="0"/>
        <pt x="602" y="-170" on="0"/>
      </contour>
      <contour>
        <pt x="216" y="257" on="1"/>
        <pt x="371" y="257" on="1"/>
        <pt x="375" y="456" on="1"/>
      </contour>
    </TTGlyph>
    <TTGlyph name="Aogonek.sc" xMin="-109" yMin="-204" xMax="477" yMax="494">
      <component glyphName="aogonek.sc" x="0" y="0" flags="0x204"/>
    </TTGlyph>
    <TTGlyph name="Aogonek.swa" xMin="-38" yMin="-204" xMax="1103" yMax="712">
      <contour>
        <pt x="1038" y="-172" on="1"/>
        <pt x="1024" y="-186" on="0"/>
        <pt x="983" y="-204" on="0"/>
        <pt x="957" y="-204" on="1"/>
        <pt x="909" y="-204" on="0"/>
        <pt x="844" y="-160" on="0"/>
        <pt x="844" y="-120" on="1"/>
        <pt x="844" y="-85" on="0"/>
        <pt x="890" y="-26" on="0"/>
        <pt x="925" y="0" on="1"/>
        <pt x="908" y="0" on="1"/>
        <pt x="861" y="0" on="0"/>
        <pt x="755" y="-5" on="0"/>
        <pt x="705" y="-5" on="1"/>
        <pt x="703" y="-5" on="0"/>
        <pt x="699" y="6" on="0"/>
        <pt x="699" y="12" on="1"/>
        <pt x="699" y="18" on="0"/>
        <pt x="706" y="38" on="0"/>
        <pt x="711" y="39" on="1"/>
        <pt x="744" y="41" on="0"/>
        <pt x="783" y="52" on="0"/>
        <pt x="803" y="72" on="0"/>
        <pt x="810" y="103" on="0"/>
        <pt x="812" y="125" on="1"/>
        <pt x="819" y="193" on="1"/>
        <pt x="659" y="193" on="1"/>
        <pt x="610" y="141" on="0"/>
        <pt x="510" y="54" on="0"/>
        <pt x="406" y="-9" on="0"/>
        <pt x="297" y="-44" on="0"/>
        <pt x="239" y="-44" on="1"/>
        <pt x="177" y="-44" on="0"/>
        <pt x="76" y="-10" on="0"/>
        <pt x="2" y="50" on="0"/>
        <pt x="-38" y="133" on="0"/>
        <pt x="-38" y="181" on="1"/>
        <pt x="-38" y="231" on="0"/>
        <pt x="-4" y="314" on="0"/>
        <pt x="53" y="374" on="0"/>
        <pt x="127" y="408" on="0"/>
        <pt x="166" y="408" on="1"/>
        <pt x="202" y="408" on="0"/>
        <pt x="262" y="383" on="0"/>
        <pt x="305" y="342" on="0"/>
        <pt x="329" y="287" on="0"/>
        <pt x="329" y="257" on="1"/>
        <pt x="329" y="236" on="0"/>
        <pt x="317" y="191" on="0"/>
        <pt x="293" y="155" on="0"/>
        <pt x="255" y="132" on="0"/>
        <pt x="229" y="132" on="1"/>
        <pt x="214" y="132" on="0"/>
        <pt x="189" y="143" on="0"/>
        <pt x="169" y="162" on="0"/>
        <pt x="158" y="186" on="0"/>
        <pt x="158" y="198" on="1"/>
        <pt x="158" y="224" on="0"/>
        <pt x="183" y="246" on="0"/>
        <pt x="214" y="260" on="0"/>
        <pt x="239" y="275" on="0"/>
        <pt x="239" y="294" on="1"/>
        <pt x="239" y="320" on="0"/>
        <pt x="195" y="360" on="0"/>
        <pt x="166" y="360" on="1"/>
        <pt x="142" y="360" on="0"/>
        <pt x="99" y="338" on="0"/>
        <pt x="66" y="298" on="0"/>
        <pt x="46" y="241" on="0"/>
        <pt x="46" y="206" on="1"/>
        <pt x="46" y="172" on="0"/>
        <pt x="72" y="110" on="0"/>
        <pt x="124" y="63" on="0"/>
        <pt x="202" y="35" on="0"/>
        <pt x="255" y="35" on="1"/>
        <pt x="331" y="35" on="0"/>
        <pt x="496" y="124" on="0"/>
        <pt x="681" y="294" on="0"/>
        <pt x="890" y="540" on="0"/>
        <pt x="1009" y="698" on="1"/>
        <pt x="1020" y="712" on="0"/>
        <pt x="1038" y="712" on="1"/>
        <pt x="1067" y="712" on="0"/>
        <pt x="1067" y="683" on="1"/>
        <pt x="1067" y="672" on="0"/>
        <pt x="1054" y="620" on="0"/>
        <pt x="1051" y="588" on="1"/>
        <pt x="1012" y="132" on="1"/>
        <pt x="1010" y="106" on="0"/>
        <pt x="1014" y="73" on="0"/>
        <pt x="1033" y="53" on="0"/>
        <pt x="1069" y="42" on="0"/>
        <pt x="1098" y="39" on="1"/>
        <pt x="1101" y="38" on="0"/>
        <pt x="1103" y="26" on="0"/>
        <pt x="1103" y="22" on="1"/>
        <pt x="1103" y="15" on="0"/>
        <pt x="1097" y="-5" on="0"/>
        <pt x="1092" y="-5" on="1"/>
        <pt x="1067" y="-5" on="0"/>
        <pt x="1021" y="-3" on="0"/>
        <pt x="998" y="-2" on="1"/>
        <pt x="972" y="-25" on="0"/>
        <pt x="937" y="-78" on="0"/>
        <pt x="937" y="-103" on="1"/>
        <pt x="937" y="-127" on="0"/>
        <pt x="966" y="-150" on="0"/>
        <pt x="986" y="-150" on="1"/>
        <pt x="1006" y="-150" on="0"/>
        <pt x="1025" y="-139" on="1"/>
        <pt x="1028" y="-137" on="0"/>
        <pt x="1035" y="-148" on="0"/>
        <pt x="1037" y="-153" on="1"/>
        <pt x="1039" y="-159" on="0"/>
        <pt x="1040" y="-170" on="0"/>
      </contour>
      <contour>
        <pt x="839" y="409" on="1"/>
        <pt x="808" y="369" on="0"/>
        <pt x="734" y="277" on="0"/>
        <pt x="703" y="241" on="1"/>
        <pt x="824" y="241" on="1"/>
      </contour>
    </TTGlyph>
    <TTGlyph name="Aring" xMin="-135" yMin="-5" xMax="685" yMax="883">
      <contour>
        <pt x="685" y="770" on="1"/>
        <pt x="685" y="748" on="0"/>
        <pt x="669" y="708" on="0"/>
        <pt x="639" y="677" on="0"/>
        <pt x="598" y="657" on="0"/>
        <pt x="573" y="656" on="1"/>
        <pt x="567" y="132" on="1"/>
        <pt x="567" y="106" on="0"/>
        <pt x="574" y="73" on="0"/>
        <pt x="595" y="53" on="0"/>
        <pt x="633" y="42" on="0"/>
        <pt x="662" y="39" on="1"/>
        <pt x="664" y="38" on="0"/>
        <pt x="667" y="26" on="0"/>
        <pt x="667" y="22" on="1"/>
        <pt x="667" y="15" on="0"/>
        <pt x="660" y="-5" on="0"/>
        <pt x="655" y="-5" on="1"/>
        <pt x="605" y="-5" on="0"/>
        <pt x="513" y="0" on="0"/>
        <pt x="471" y="0" on="1"/>
        <pt x="425" y="0" on="0"/>
        <pt x="318" y="-5" on="0"/>
        <pt x="268" y="-5" on="1"/>
        <pt x="266" y="-5" on="0"/>
        <pt x="263" y="6" on="0"/>
        <pt x="263" y="12" on="1"/>
        <pt x="263" y="18" on="0"/>
        <pt x="270" y="38" on="0"/>
        <pt x="275" y="39" on="1"/>
        <pt x="308" y="41" on="0"/>
        <pt x="345" y="52" on="0"/>
        <pt x="363" y="72" on="0"/>
        <pt x="368" y="103" on="0"/>
        <pt x="368" y="125" on="1"/>
        <pt x="370" y="209" on="1"/>
        <pt x="177" y="209" on="1"/>
        <pt x="117" y="135" on="1"/>
        <pt x="103" y="116" on="0"/>
        <pt x="84" y="85" on="0"/>
        <pt x="84" y="73" on="1"/>
        <pt x="84" y="58" on="0"/>
        <pt x="103" y="41" on="0"/>
        <pt x="133" y="39" on="1"/>
        <pt x="135" y="39" on="0"/>
        <pt x="138" y="26" on="0"/>
        <pt x="138" y="22" on="1"/>
        <pt x="138" y="15" on="0"/>
        <pt x="131" y="-5" on="0"/>
        <pt x="126" y="-5" on="1"/>
        <pt x="104" y="-5" on="0"/>
        <pt x="70" y="-3" on="0"/>
        <pt x="39" y="-2" on="0"/>
        <pt x="6" y="0" on="0"/>
        <pt x="-15" y="0" on="1"/>
        <pt x="-32" y="0" on="0"/>
        <pt x="-58" y="-2" on="0"/>
        <pt x="-84" y="-3" on="0"/>
        <pt x="-112" y="-5" on="0"/>
        <pt x="-130" y="-5" on="1"/>
        <pt x="-132" y="-5" on="0"/>
        <pt x="-135" y="6" on="0"/>
        <pt x="-135" y="12" on="1"/>
        <pt x="-135" y="18" on="0"/>
        <pt x="-129" y="38" on="0"/>
        <pt x="-124" y="39" on="1"/>
        <pt x="-93" y="42" on="0"/>
        <pt x="-45" y="57" on="0"/>
        <pt x="-5" y="83" on="0"/>
        <pt x="31" y="118" on="0"/>
        <pt x="49" y="139" on="1"/>
        <pt x="496" y="676" on="1"/>
        <pt x="472" y="692" on="0"/>
        <pt x="445" y="741" on="0"/>
        <pt x="445" y="770" on="1"/>
        <pt x="445" y="792" on="0"/>
        <pt x="463" y="833" on="0"/>
        <pt x="494" y="864" on="0"/>
        <pt x="538" y="883" on="0"/>
        <pt x="565" y="883" on="1"/>
        <pt x="591" y="883" on="0"/>
        <pt x="635" y="864" on="0"/>
        <pt x="667" y="833" on="0"/>
        <pt x="685" y="792" on="0"/>
      </contour>
      <contour>
        <pt x="628" y="770" on="1"/>
        <pt x="628" y="799" on="0"/>
        <pt x="593" y="839" on="0"/>
        <pt x="565" y="839" on="1"/>
        <pt x="538" y="839" on="0"/>
        <pt x="502" y="799" on="0"/>
        <pt x="502" y="770" on="1"/>
        <pt x="502" y="739" on="0"/>
        <pt x="538" y="700" on="0"/>
        <pt x="565" y="700" on="1"/>
        <pt x="593" y="700" on="0"/>
        <pt x="628" y="739" on="0"/>
      </contour>
      <contour>
        <pt x="216" y="257" on="1"/>
        <pt x="371" y="257" on="1"/>
        <pt x="375" y="456" on="1"/>
      </contour>
    </TTGlyph>
    <TTGlyph name="Aring.sc" xMin="-109" yMin="-5" xMax="477" yMax="676">
      <component glyphName="aring.sc" x="0" y="0" flags="0x204"/>
    </TTGlyph>
    <TTGlyph name="Aring.swa" xMin="-38" yMin="-44" xMax="1176" yMax="883">
      <contour>
        <pt x="1176" y="770" on="1"/>
        <pt x="1176" y="748" on="0"/>
        <pt x="1159" y="708" on="0"/>
        <pt x="1129" y="677" on="0"/>
        <pt x="1088" y="657" on="0"/>
        <pt x="1063" y="656" on="1"/>
        <pt x="1060" y="642" on="0"/>
        <pt x="1053" y="608" on="0"/>
        <pt x="1051" y="588" on="1"/>
        <pt x="1012" y="132" on="1"/>
        <pt x="1010" y="106" on="0"/>
        <pt x="1014" y="73" on="0"/>
        <pt x="1033" y="53" on="0"/>
        <pt x="1069" y="42" on="0"/>
        <pt x="1098" y="39" on="1"/>
        <pt x="1101" y="38" on="0"/>
        <pt x="1103" y="26" on="0"/>
        <pt x="1103" y="22" on="1"/>
        <pt x="1103" y="15" on="0"/>
        <pt x="1097" y="-5" on="0"/>
        <pt x="1092" y="-5" on="1"/>
        <pt x="1042" y="-5" on="0"/>
        <pt x="950" y="0" on="0"/>
        <pt x="908" y="0" on="1"/>
        <pt x="861" y="0" on="0"/>
        <pt x="755" y="-5" on="0"/>
        <pt x="705" y="-5" on="1"/>
        <pt x="703" y="-5" on="0"/>
        <pt x="699" y="6" on="0"/>
        <pt x="699" y="12" on="1"/>
        <pt x="699" y="18" on="0"/>
        <pt x="706" y="38" on="0"/>
        <pt x="711" y="39" on="1"/>
        <pt x="744" y="41" on="0"/>
        <pt x="783" y="52" on="0"/>
        <pt x="803" y="72" on="0"/>
        <pt x="810" y="103" on="0"/>
        <pt x="812" y="125" on="1"/>
        <pt x="819" y="193" on="1"/>
        <pt x="659" y="193" on="1"/>
        <pt x="610" y="141" on="0"/>
        <pt x="510" y="54" on="0"/>
        <pt x="406" y="-9" on="0"/>
        <pt x="297" y="-44" on="0"/>
        <pt x="239" y="-44" on="1"/>
        <pt x="177" y="-44" on="0"/>
        <pt x="76" y="-10" on="0"/>
        <pt x="2" y="50" on="0"/>
        <pt x="-38" y="133" on="0"/>
        <pt x="-38" y="181" on="1"/>
        <pt x="-38" y="231" on="0"/>
        <pt x="-4" y="314" on="0"/>
        <pt x="53" y="374" on="0"/>
        <pt x="127" y="408" on="0"/>
        <pt x="166" y="408" on="1"/>
        <pt x="202" y="408" on="0"/>
        <pt x="262" y="383" on="0"/>
        <pt x="305" y="342" on="0"/>
        <pt x="329" y="287" on="0"/>
        <pt x="329" y="257" on="1"/>
        <pt x="329" y="236" on="0"/>
        <pt x="317" y="191" on="0"/>
        <pt x="293" y="155" on="0"/>
        <pt x="255" y="132" on="0"/>
        <pt x="229" y="132" on="1"/>
        <pt x="214" y="132" on="0"/>
        <pt x="189" y="143" on="0"/>
        <pt x="169" y="162" on="0"/>
        <pt x="158" y="186" on="0"/>
        <pt x="158" y="198" on="1"/>
        <pt x="158" y="224" on="0"/>
        <pt x="183" y="246" on="0"/>
        <pt x="214" y="260" on="0"/>
        <pt x="239" y="275" on="0"/>
        <pt x="239" y="294" on="1"/>
        <pt x="239" y="320" on="0"/>
        <pt x="195" y="360" on="0"/>
        <pt x="166" y="360" on="1"/>
        <pt x="142" y="360" on="0"/>
        <pt x="99" y="338" on="0"/>
        <pt x="66" y="298" on="0"/>
        <pt x="46" y="241" on="0"/>
        <pt x="46" y="206" on="1"/>
        <pt x="46" y="172" on="0"/>
        <pt x="72" y="110" on="0"/>
        <pt x="124" y="63" on="0"/>
        <pt x="202" y="35" on="0"/>
        <pt x="255" y="35" on="1"/>
        <pt x="329" y="35" on="0"/>
        <pt x="491" y="121" on="0"/>
        <pt x="672" y="284" on="0"/>
        <pt x="875" y="522" on="0"/>
        <pt x="991" y="674" on="1"/>
        <pt x="965" y="690" on="0"/>
        <pt x="936" y="741" on="0"/>
        <pt x="936" y="770" on="1"/>
        <pt x="936" y="792" on="0"/>
        <pt x="954" y="833" on="0"/>
        <pt x="985" y="864" on="0"/>
        <pt x="1029" y="883" on="0"/>
        <pt x="1056" y="883" on="1"/>
        <pt x="1082" y="883" on="0"/>
        <pt x="1126" y="864" on="0"/>
        <pt x="1158" y="833" on="0"/>
        <pt x="1176" y="792" on="0"/>
      </contour>
      <contour>
        <pt x="1119" y="770" on="1"/>
        <pt x="1119" y="799" on="0"/>
        <pt x="1084" y="839" on="0"/>
        <pt x="1056" y="839" on="1"/>
        <pt x="1029" y="839" on="0"/>
        <pt x="993" y="799" on="0"/>
        <pt x="993" y="770" on="1"/>
        <pt x="993" y="739" on="0"/>
        <pt x="1029" y="700" on="0"/>
        <pt x="1056" y="700" on="1"/>
        <pt x="1084" y="700" on="0"/>
        <pt x="1119" y="739" on="0"/>
      </contour>
      <contour>
        <pt x="839" y="409" on="1"/>
        <pt x="808" y="369" on="0"/>
        <pt x="734" y="277" on="0"/>
        <pt x="703" y="241" on="1"/>
        <pt x="824" y="241" on="1"/>
      </contour>
    </TTGlyph>
    <TTGlyph name="Aringacute" xMin="-135" yMin="-5" xMax="851" yMax="1140">
      <component glyphName="Aring" x="0" y="0" flags="0x204"/>
      <component glyphName="acute" x="497" y="379" flags="0x4"/>
    </TTGlyph>
    <TTGlyph name="Aringacute.sc" xMin="-109" yMin="-5" xMax="547" yMax="943">
      <component glyphName="acute" x="193" y="182" flags="0x4"/>
      <component glyphName="aring.sc" x="0" y="0" flags="0x4"/>
    </TTGlyph>
    <TTGlyph name="Aringacute.swa" xMin="-38" yMin="-44" xMax="1347" yMax="1138">
      <component glyphName="Aring.swa" x="0" y="0" flags="0x204"/>
      <component glyphName="acute" x="993" y="377" flags="0x4"/>
    </TTGlyph>
    <TTGlyph name="Atilde" xMin="-135" yMin="-5" xMax="828" yMax="985">
      <component glyphName="A" x="0" y="0" flags="0x204"/>
      <component glyphName="tilde.cap" x="325" y="15" flags="0x4"/>
    </TTGlyph>
    <TTGlyph name="Atilde.sc" xMin="-109" yMin="-5" xMax="518" yMax="764">
      <component glyphName="a.sc" x="0" y="0" flags="0x204"/>
      <component glyphName="tilde" x="103" y="25" flags="0x4"/>
    </TTGlyph>
    <TTGlyph name="Atilde.swa" xMin="-38" yMin="-44" xMax="1322" yMax="985">
      <component glyphName="A.swa" x="0" y="0" flags="0x204"/>
      <component glyphName="tilde.cap" x="819" y="15" flags="0x4"/>
    </TTGlyph>
    <TTGlyph name="B" xMin="-53" yMin="-5" xMax="689" yMax="690">
      <contour>
        <pt x="689" y="529" on="1"/>
        <pt x="689" y="499" on="0"/>
        <pt x="664" y="442" on="0"/>
        <pt x="612" y="397" on="0"/>
        <pt x="533" y="367" on="0"/>
        <pt x="479" y="364" on="1"/>
        <pt x="528" y="359" on="0"/>
        <pt x="596" y="333" on="0"/>
        <pt x="638" y="294" on="0"/>
        <pt x="656" y="244" on="0"/>
        <pt x="656" y="216" on="1"/>
        <pt x="656" y="167" on="0"/>
        <pt x="613" y="86" on="0"/>
        <pt x="530" y="27" on="0"/>
        <pt x="412" y="-5" on="0"/>
        <pt x="337" y="-5" on="1"/>
        <pt x="287" y="-5" on="0"/>
        <pt x="193" y="0" on="0"/>
        <pt x="146" y="0" on="1"/>
        <pt x="99" y="0" on="0"/>
        <pt x="2" y="-5" on="0"/>
        <pt x="-48" y="-5" on="1"/>
        <pt x="-50" y="-5" on="0"/>
        <pt x="-53" y="6" on="0"/>
        <pt x="-53" y="12" on="1"/>
        <pt x="-53" y="18" on="0"/>
        <pt x="-42" y="38" on="0"/>
        <pt x="-37" y="39" on="1"/>
        <pt x="-7" y="42" on="0"/>
        <pt x="28" y="54" on="0"/>
        <pt x="48" y="74" on="0"/>
        <pt x="58" y="103" on="0"/>
        <pt x="63" y="123" on="1"/>
        <pt x="167" y="562" on="1"/>
        <pt x="169" y="572" on="0"/>
        <pt x="172" y="588" on="0"/>
        <pt x="172" y="596" on="1"/>
        <pt x="172" y="606" on="0"/>
        <pt x="169" y="622" on="0"/>
        <pt x="155" y="634" on="0"/>
        <pt x="126" y="643" on="0"/>
        <pt x="100" y="646" on="1"/>
        <pt x="97" y="647" on="0"/>
        <pt x="94" y="660" on="0"/>
        <pt x="94" y="663" on="1"/>
        <pt x="94" y="670" on="0"/>
        <pt x="105" y="690" on="0"/>
        <pt x="110" y="690" on="1"/>
        <pt x="160" y="690" on="0"/>
        <pt x="244" y="685" on="0"/>
        <pt x="291" y="685" on="1"/>
        <pt x="314" y="685" on="0"/>
        <pt x="351" y="687" on="0"/>
        <pt x="387" y="688" on="0"/>
        <pt x="426" y="690" on="0"/>
        <pt x="451" y="690" on="1"/>
        <pt x="512" y="690" on="0"/>
        <pt x="602" y="664" on="0"/>
        <pt x="660" y="621" on="0"/>
        <pt x="689" y="562" on="0"/>
      </contour>
      <contour>
        <pt x="507" y="535" on="1"/>
        <pt x="507" y="586" on="0"/>
        <pt x="460" y="641" on="0"/>
        <pt x="427" y="641" on="1"/>
        <pt x="416" y="641" on="1"/>
        <pt x="398" y="641" on="0"/>
        <pt x="380" y="622" on="0"/>
        <pt x="375" y="603" on="1"/>
        <pt x="323" y="385" on="1"/>
        <pt x="371" y="385" on="1"/>
        <pt x="432" y="385" on="0"/>
        <pt x="507" y="463" on="0"/>
      </contour>
      <contour>
        <pt x="453" y="208" on="1"/>
        <pt x="453" y="278" on="0"/>
        <pt x="402" y="337" on="0"/>
        <pt x="351" y="337" on="1"/>
        <pt x="311" y="337" on="1"/>
        <pt x="260" y="123" on="1"/>
        <pt x="251" y="85" on="0"/>
        <pt x="267" y="44" on="0"/>
        <pt x="299" y="44" on="1"/>
        <pt x="327" y="44" on="0"/>
        <pt x="383" y="67" on="0"/>
        <pt x="426" y="109" on="0"/>
        <pt x="453" y="170" on="0"/>
      </contour>
    </TTGlyph>
    <TTGlyph name="B.sc" xMin="-49" yMin="-5" xMax="522" yMax="481">
      <component glyphName="b.sc" x="0" y="0" flags="0x204"/>
    </TTGlyph>
    <TTGlyph name="B.swa" xMin="-5" yMin="-5" xMax="918" yMax="706">
      <contour>
        <pt x="918" y="529" on="1"/>
        <pt x="918" y="499" on="0"/>
        <pt x="893" y="442" on="0"/>
        <pt x="841" y="397" on="0"/>
        <pt x="762" y="367" on="0"/>
        <pt x="708" y="364" on="1"/>
        <pt x="757" y="359" on="0"/>
        <pt x="825" y="333" on="0"/>
        <pt x="867" y="294" on="0"/>
        <pt x="885" y="244" on="0"/>
        <pt x="885" y="216" on="1"/>
        <pt x="885" y="167" on="0"/>
        <pt x="842" y="86" on="0"/>
        <pt x="760" y="27" on="0"/>
        <pt x="642" y="-5" on="0"/>
        <pt x="567" y="-5" on="1"/>
        <pt x="517" y="-5" on="0"/>
        <pt x="422" y="0" on="0"/>
        <pt x="375" y="0" on="1"/>
        <pt x="329" y="0" on="0"/>
        <pt x="232" y="-5" on="0"/>
        <pt x="182" y="-5" on="1"/>
        <pt x="180" y="-5" on="0"/>
        <pt x="176" y="6" on="0"/>
        <pt x="176" y="12" on="1"/>
        <pt x="176" y="18" on="0"/>
        <pt x="187" y="38" on="0"/>
        <pt x="192" y="39" on="1"/>
        <pt x="222" y="42" on="0"/>
        <pt x="257" y="54" on="0"/>
        <pt x="277" y="74" on="0"/>
        <pt x="287" y="103" on="0"/>
        <pt x="292" y="123" on="1"/>
        <pt x="401" y="584" on="1"/>
        <pt x="409" y="616" on="0"/>
        <pt x="388" y="633" on="0"/>
        <pt x="371" y="633" on="1"/>
        <pt x="339" y="633" on="0"/>
        <pt x="268" y="616" on="0"/>
        <pt x="196" y="585" on="0"/>
        <pt x="131" y="543" on="0"/>
        <pt x="81" y="492" on="0"/>
        <pt x="51" y="434" on="0"/>
        <pt x="51" y="404" on="1"/>
        <pt x="51" y="356" on="0"/>
        <pt x="93" y="316" on="0"/>
        <pt x="122" y="316" on="1"/>
        <pt x="138" y="316" on="0"/>
        <pt x="156" y="335" on="0"/>
        <pt x="172" y="359" on="0"/>
        <pt x="191" y="378" on="0"/>
        <pt x="209" y="378" on="1"/>
        <pt x="240" y="378" on="0"/>
        <pt x="269" y="341" on="0"/>
        <pt x="269" y="313" on="1"/>
        <pt x="269" y="299" on="0"/>
        <pt x="254" y="269" on="0"/>
        <pt x="224" y="243" on="0"/>
        <pt x="182" y="226" on="0"/>
        <pt x="155" y="226" on="1"/>
        <pt x="81" y="226" on="0"/>
        <pt x="-5" y="316" on="0"/>
        <pt x="-5" y="392" on="1"/>
        <pt x="-5" y="446" on="0"/>
        <pt x="65" y="557" on="0"/>
        <pt x="206" y="648" on="0"/>
        <pt x="420" y="706" on="0"/>
        <pt x="564" y="706" on="1"/>
        <pt x="740" y="706" on="0"/>
        <pt x="918" y="617" on="0"/>
      </contour>
      <contour>
        <pt x="737" y="535" on="1"/>
        <pt x="737" y="586" on="0"/>
        <pt x="690" y="641" on="0"/>
        <pt x="652" y="641" on="1"/>
        <pt x="627" y="641" on="0"/>
        <pt x="609" y="622" on="0"/>
        <pt x="604" y="603" on="1"/>
        <pt x="552" y="385" on="1"/>
        <pt x="600" y="385" on="1"/>
        <pt x="662" y="385" on="0"/>
        <pt x="737" y="463" on="0"/>
      </contour>
      <contour>
        <pt x="682" y="208" on="1"/>
        <pt x="682" y="278" on="0"/>
        <pt x="632" y="337" on="0"/>
        <pt x="580" y="337" on="1"/>
        <pt x="540" y="337" on="1"/>
        <pt x="490" y="123" on="1"/>
        <pt x="480" y="85" on="0"/>
        <pt x="496" y="44" on="0"/>
        <pt x="529" y="44" on="1"/>
        <pt x="557" y="44" on="0"/>
        <pt x="612" y="67" on="0"/>
        <pt x="655" y="109" on="0"/>
        <pt x="682" y="170" on="0"/>
      </contour>
    </TTGlyph>
    <TTGlyph name="C" xMin="18" yMin="-21" xMax="688" yMax="706">
      <contour>
        <pt x="688" y="696" on="1"/>
        <pt x="684" y="675" on="0"/>
        <pt x="674" y="613" on="0"/>
        <pt x="664" y="547" on="0"/>
        <pt x="655" y="485" on="0"/>
        <pt x="652" y="465" on="1"/>
        <pt x="652" y="460" on="0"/>
        <pt x="635" y="456" on="0"/>
        <pt x="630" y="456" on="1"/>
        <pt x="624" y="456" on="0"/>
        <pt x="609" y="460" on="0"/>
        <pt x="608" y="465" on="1"/>
        <pt x="604" y="507" on="0"/>
        <pt x="590" y="575" on="0"/>
        <pt x="565" y="623" on="0"/>
        <pt x="525" y="650" on="0"/>
        <pt x="494" y="650" on="1"/>
        <pt x="449" y="650" on="0"/>
        <pt x="348" y="585" on="0"/>
        <pt x="264" y="472" on="0"/>
        <pt x="209" y="319" on="0"/>
        <pt x="209" y="231" on="1"/>
        <pt x="209" y="177" on="0"/>
        <pt x="233" y="100" on="0"/>
        <pt x="275" y="50" on="0"/>
        <pt x="331" y="27" on="0"/>
        <pt x="363" y="27" on="1"/>
        <pt x="399" y="27" on="0"/>
        <pt x="465" y="61" on="0"/>
        <pt x="522" y="119" on="0"/>
        <pt x="569" y="194" on="0"/>
        <pt x="586" y="236" on="1"/>
        <pt x="588" y="241" on="0"/>
        <pt x="604" y="244" on="0"/>
        <pt x="610" y="244" on="1"/>
        <pt x="617" y="244" on="0"/>
        <pt x="632" y="239" on="0"/>
        <pt x="630" y="236" on="1"/>
        <pt x="625" y="218" on="0"/>
        <pt x="611" y="158" on="0"/>
        <pt x="596" y="92" on="0"/>
        <pt x="583" y="30" on="0"/>
        <pt x="579" y="10" on="1"/>
        <pt x="564" y="6" on="0"/>
        <pt x="515" y="-5" on="0"/>
        <pt x="454" y="-14" on="0"/>
        <pt x="385" y="-21" on="0"/>
        <pt x="349" y="-21" on="1"/>
        <pt x="277" y="-21" on="0"/>
        <pt x="156" y="19" on="0"/>
        <pt x="67" y="94" on="0"/>
        <pt x="18" y="200" on="0"/>
        <pt x="18" y="266" on="1"/>
        <pt x="18" y="353" on="0"/>
        <pt x="92" y="512" on="0"/>
        <pt x="235" y="633" on="0"/>
        <pt x="442" y="706" on="0"/>
        <pt x="576" y="706" on="1"/>
        <pt x="606" y="706" on="0"/>
        <pt x="665" y="701" on="0"/>
      </contour>
    </TTGlyph>
    <TTGlyph name="C.sc" xMin="-12" yMin="-18" xMax="496" yMax="497">
      <component glyphName="c.sc" x="0" y="0" flags="0x204"/>
    </TTGlyph>
    <TTGlyph name="C.swa" xMin="-7" yMin="-273" xMax="765" yMax="706">
      <contour>
        <pt x="765" y="518" on="1"/>
        <pt x="765" y="492" on="0"/>
        <pt x="749" y="440" on="0"/>
        <pt x="722" y="400" on="0"/>
        <pt x="683" y="375" on="0"/>
        <pt x="661" y="375" on="1"/>
        <pt x="624" y="375" on="0"/>
        <pt x="573" y="424" on="0"/>
        <pt x="573" y="459" on="1"/>
        <pt x="573" y="482" on="0"/>
        <pt x="596" y="512" on="0"/>
        <pt x="625" y="536" on="0"/>
        <pt x="648" y="558" on="0"/>
        <pt x="648" y="574" on="1"/>
        <pt x="648" y="609" on="0"/>
        <pt x="602" y="658" on="0"/>
        <pt x="551" y="658" on="1"/>
        <pt x="473" y="658" on="0"/>
        <pt x="341" y="560" on="0"/>
        <pt x="246" y="383" on="0"/>
        <pt x="192" y="136" on="0"/>
        <pt x="192" y="-14" on="1"/>
        <pt x="192" y="-56" on="0"/>
        <pt x="209" y="-128" on="0"/>
        <pt x="246" y="-180" on="0"/>
        <pt x="303" y="-209" on="0"/>
        <pt x="343" y="-209" on="1"/>
        <pt x="413" y="-209" on="0"/>
        <pt x="520" y="-145" on="0"/>
        <pt x="595" y="-47" on="0"/>
        <pt x="639" y="66" on="0"/>
        <pt x="646" y="116" on="1"/>
        <pt x="647" y="119" on="0"/>
        <pt x="658" y="119" on="0"/>
        <pt x="664" y="119" on="1"/>
        <pt x="670" y="119" on="0"/>
        <pt x="691" y="110" on="0"/>
        <pt x="690" y="105" on="1"/>
        <pt x="678" y="22" on="0"/>
        <pt x="610" y="-117" on="0"/>
        <pt x="512" y="-217" on="0"/>
        <pt x="392" y="-273" on="0"/>
        <pt x="329" y="-273" on="1"/>
        <pt x="255" y="-273" on="0"/>
        <pt x="131" y="-225" on="0"/>
        <pt x="42" y="-138" on="0"/>
        <pt x="-7" y="-14" on="0"/>
        <pt x="-7" y="61" on="1"/>
        <pt x="-7" y="160" on="0"/>
        <pt x="47" y="332" on="0"/>
        <pt x="136" y="475" on="0"/>
        <pt x="252" y="588" on="0"/>
        <pt x="376" y="665" on="0"/>
        <pt x="499" y="706" on="0"/>
        <pt x="551" y="706" on="1"/>
        <pt x="602" y="706" on="0"/>
        <pt x="682" y="676" on="0"/>
        <pt x="737" y="625" on="0"/>
        <pt x="765" y="557" on="0"/>
      </contour>
    </TTGlyph>
    <TTGlyph name="Cacute" xMin="18" yMin="-21" xMax="688" yMax="1006">
      <component glyphName="C" x="0" y="0" flags="0x204"/>
      <component glyphName="acute.cap" x="277" y="15" flags="0x4"/>
    </TTGlyph>
    <TTGlyph name="Cacute.sc" xMin="-12" yMin="-18" xMax="532" yMax="786">
      <component glyphName="c.sc" x="0" y="0" flags="0x204"/>
      <component glyphName="acute" x="178" y="25" flags="0x4"/>
    </TTGlyph>
    <TTGlyph name="Cacute.swa" xMin="-7" yMin="-273" xMax="765" yMax="1006">
      <component glyphName="C.swa" x="0" y="0" flags="0x204"/>
      <component glyphName="acute.cap" x="362" y="15" flags="0x4"/>
    </TTGlyph>
    <TTGlyph name="Ccaron" xMin="18" yMin="-21" xMax="722" yMax="977">
      <component glyphName="C" x="0" y="0" flags="0x204"/>
      <component glyphName="caron.cap" x="213" y="15" flags="0x4"/>
    </TTGlyph>
    <TTGlyph name="Ccaron.sc" xMin="-12" yMin="-18" xMax="547" yMax="755">
      <component glyphName="c.sc" x="0" y="0" flags="0x204"/>
      <component glyphName="caron" x="117" y="25" flags="0x4"/>
    </TTGlyph>
    <TTGlyph name="Ccaron.swa" xMin="-7" yMin="-273" xMax="807" yMax="977">
      <component glyphName="C.swa" x="0" y="0" flags="0x204"/>
      <component glyphName="caron.cap" x="298" y="15" flags="0x4"/>
    </TTGlyph>
    <TTGlyph name="Ccedilla" xMin="18" yMin="-240" xMax="688" yMax="706">
      <contour>
        <pt x="688" y="696" on="1"/>
        <pt x="684" y="675" on="0"/>
        <pt x="674" y="613" on="0"/>
        <pt x="664" y="547" on="0"/>
        <pt x="655" y="485" on="0"/>
        <pt x="652" y="465" on="1"/>
        <pt x="652" y="460" on="0"/>
        <pt x="635" y="456" on="0"/>
        <pt x="630" y="456" on="1"/>
        <pt x="624" y="456" on="0"/>
        <pt x="609" y="460" on="0"/>
        <pt x="608" y="465" on="1"/>
        <pt x="604" y="507" on="0"/>
        <pt x="590" y="575" on="0"/>
        <pt x="565" y="623" on="0"/>
        <pt x="525" y="650" on="0"/>
        <pt x="494" y="650" on="1"/>
        <pt x="449" y="650" on="0"/>
        <pt x="348" y="585" on="0"/>
        <pt x="264" y="472" on="0"/>
        <pt x="209" y="319" on="0"/>
        <pt x="209" y="231" on="1"/>
        <pt x="209" y="177" on="0"/>
        <pt x="233" y="100" on="0"/>
        <pt x="275" y="50" on="0"/>
        <pt x="331" y="27" on="0"/>
        <pt x="363" y="27" on="1"/>
        <pt x="399" y="27" on="0"/>
        <pt x="465" y="61" on="0"/>
        <pt x="522" y="119" on="0"/>
        <pt x="569" y="194" on="0"/>
        <pt x="586" y="236" on="1"/>
        <pt x="588" y="241" on="0"/>
        <pt x="604" y="244" on="0"/>
        <pt x="610" y="244" on="1"/>
        <pt x="617" y="244" on="0"/>
        <pt x="632" y="239" on="0"/>
        <pt x="630" y="236" on="1"/>
        <pt x="625" y="218" on="0"/>
        <pt x="611" y="158" on="0"/>
        <pt x="596" y="92" on="0"/>
        <pt x="583" y="30" on="0"/>
        <pt x="579" y="10" on="1"/>
        <pt x="564" y="6" on="0"/>
        <pt x="515" y="-5" on="0"/>
        <pt x="455" y="-14" on="0"/>
        <pt x="387" y="-21" on="0"/>
        <pt x="351" y="-21" on="1"/>
        <pt x="339" y="-42" on="1"/>
        <pt x="336" y="-47" on="0"/>
        <pt x="336" y="-51" on="1"/>
        <pt x="336" y="-59" on="0"/>
        <pt x="346" y="-66" on="1"/>
        <pt x="368" y="-80" on="0"/>
        <pt x="402" y="-118" on="0"/>
        <pt x="402" y="-149" on="1"/>
        <pt x="402" y="-171" on="0"/>
        <pt x="378" y="-205" on="0"/>
        <pt x="339" y="-228" on="0"/>
        <pt x="290" y="-240" on="0"/>
        <pt x="266" y="-240" on="1"/>
        <pt x="237" y="-240" on="0"/>
        <pt x="202" y="-215" on="0"/>
        <pt x="202" y="-200" on="1"/>
        <pt x="202" y="-189" on="0"/>
        <pt x="218" y="-169" on="0"/>
        <pt x="232" y="-169" on="1"/>
        <pt x="242" y="-169" on="0"/>
        <pt x="258" y="-178" on="0"/>
        <pt x="272" y="-190" on="0"/>
        <pt x="286" y="-199" on="0"/>
        <pt x="295" y="-199" on="1"/>
        <pt x="318" y="-199" on="0"/>
        <pt x="318" y="-167" on="1"/>
        <pt x="318" y="-149" on="0"/>
        <pt x="281" y="-115" on="0"/>
        <pt x="259" y="-104" on="1"/>
        <pt x="249" y="-99" on="0"/>
        <pt x="249" y="-89" on="1"/>
        <pt x="249" y="-85" on="0"/>
        <pt x="252" y="-80" on="1"/>
        <pt x="294" y="-18" on="1"/>
        <pt x="233" y="-11" on="0"/>
        <pt x="131" y="35" on="0"/>
        <pt x="58" y="108" on="0"/>
        <pt x="18" y="206" on="0"/>
        <pt x="18" y="266" on="1"/>
        <pt x="18" y="353" on="0"/>
        <pt x="92" y="512" on="0"/>
        <pt x="235" y="633" on="0"/>
        <pt x="442" y="706" on="0"/>
        <pt x="576" y="706" on="1"/>
        <pt x="606" y="706" on="0"/>
        <pt x="665" y="701" on="0"/>
      </contour>
    </TTGlyph>
    <TTGlyph name="Ccedilla.sc" xMin="-12" yMin="-232" xMax="496" yMax="497">
      <component glyphName="ccedilla.sc" x="0" y="0" flags="0x204"/>
    </TTGlyph>
    <TTGlyph name="Ccedilla.swa" xMin="-7" yMin="-491" xMax="765" yMax="706">
      <contour>
        <pt x="765" y="518" on="1"/>
        <pt x="765" y="492" on="0"/>
        <pt x="749" y="440" on="0"/>
        <pt x="722" y="400" on="0"/>
        <pt x="683" y="375" on="0"/>
        <pt x="661" y="375" on="1"/>
        <pt x="624" y="375" on="0"/>
        <pt x="573" y="424" on="0"/>
        <pt x="573" y="459" on="1"/>
        <pt x="573" y="482" on="0"/>
        <pt x="596" y="512" on="0"/>
        <pt x="625" y="536" on="0"/>
        <pt x="648" y="558" on="0"/>
        <pt x="648" y="574" on="1"/>
        <pt x="648" y="609" on="0"/>
        <pt x="602" y="658" on="0"/>
        <pt x="551" y="658" on="1"/>
        <pt x="473" y="658" on="0"/>
        <pt x="341" y="560" on="0"/>
        <pt x="246" y="383" on="0"/>
        <pt x="192" y="136" on="0"/>
        <pt x="192" y="-14" on="1"/>
        <pt x="192" y="-56" on="0"/>
        <pt x="209" y="-128" on="0"/>
        <pt x="246" y="-180" on="0"/>
        <pt x="303" y="-209" on="0"/>
        <pt x="343" y="-209" on="1"/>
        <pt x="413" y="-209" on="0"/>
        <pt x="520" y="-145" on="0"/>
        <pt x="595" y="-47" on="0"/>
        <pt x="639" y="66" on="0"/>
        <pt x="646" y="116" on="1"/>
        <pt x="647" y="119" on="0"/>
        <pt x="658" y="119" on="0"/>
        <pt x="664" y="119" on="1"/>
        <pt x="670" y="119" on="0"/>
        <pt x="691" y="110" on="0"/>
        <pt x="690" y="105" on="1"/>
        <pt x="679" y="24" on="0"/>
        <pt x="614" y="-111" on="0"/>
        <pt x="520" y="-210" on="0"/>
        <pt x="406" y="-269" on="0"/>
        <pt x="345" y="-272" on="1"/>
        <pt x="333" y="-293" on="1"/>
        <pt x="330" y="-298" on="0"/>
        <pt x="330" y="-302" on="1"/>
        <pt x="330" y="-310" on="0"/>
        <pt x="340" y="-317" on="1"/>
        <pt x="362" y="-331" on="0"/>
        <pt x="396" y="-369" on="0"/>
        <pt x="396" y="-400" on="1"/>
        <pt x="396" y="-422" on="0"/>
        <pt x="372" y="-456" on="0"/>
        <pt x="333" y="-479" on="0"/>
        <pt x="284" y="-491" on="0"/>
        <pt x="260" y="-491" on="1"/>
        <pt x="231" y="-491" on="0"/>
        <pt x="196" y="-466" on="0"/>
        <pt x="196" y="-451" on="1"/>
        <pt x="196" y="-440" on="0"/>
        <pt x="212" y="-420" on="0"/>
        <pt x="226" y="-420" on="1"/>
        <pt x="236" y="-420" on="0"/>
        <pt x="252" y="-429" on="0"/>
        <pt x="266" y="-441" on="0"/>
        <pt x="280" y="-450" on="0"/>
        <pt x="289" y="-450" on="1"/>
        <pt x="312" y="-450" on="0"/>
        <pt x="312" y="-418" on="1"/>
        <pt x="312" y="-400" on="0"/>
        <pt x="275" y="-366" on="0"/>
        <pt x="253" y="-355" on="1"/>
        <pt x="243" y="-350" on="0"/>
        <pt x="243" y="-340" on="1"/>
        <pt x="243" y="-336" on="0"/>
        <pt x="246" y="-331" on="1"/>
        <pt x="287" y="-271" on="1"/>
        <pt x="221" y="-264" on="0"/>
        <pt x="113" y="-211" on="0"/>
        <pt x="36" y="-125" on="0"/>
        <pt x="-7" y="-9" on="0"/>
        <pt x="-7" y="61" on="1"/>
        <pt x="-7" y="160" on="0"/>
        <pt x="47" y="332" on="0"/>
        <pt x="136" y="475" on="0"/>
        <pt x="252" y="588" on="0"/>
        <pt x="376" y="665" on="0"/>
        <pt x="499" y="706" on="0"/>
        <pt x="551" y="706" on="1"/>
        <pt x="602" y="706" on="0"/>
        <pt x="682" y="676" on="0"/>
        <pt x="737" y="625" on="0"/>
        <pt x="765" y="557" on="0"/>
      </contour>
    </TTGlyph>
    <TTGlyph name="Cdotaccent" xMin="18" yMin="-21" xMax="688" yMax="959">
      <component glyphName="C" x="0" y="0" flags="0x204"/>
      <component glyphName="dotaccent.cap" x="227" y="15" flags="0x4"/>
    </TTGlyph>
    <TTGlyph name="Cdotaccent.sc" xMin="-12" yMin="-18" xMax="496" yMax="746">
      <component glyphName="c.sc" x="0" y="0" flags="0x204"/>
      <component glyphName="dotaccent" x="147" y="25" flags="0x4"/>
    </TTGlyph>
    <TTGlyph name="Cdotaccent.swa" xMin="-7" yMin="-273" xMax="765" yMax="959">
      <component glyphName="C.swa" x="0" y="0" flags="0x204"/>
      <component glyphName="dotaccent.cap" x="312" y="15" flags="0x4"/>
    </TTGlyph>
    <TTGlyph name="D" xMin="-54" yMin="-6" xMax="789" yMax="688">
      <contour>
        <pt x="789" y="413" on="1"/>
        <pt x="789" y="324" on="0"/>
        <pt x="715" y="172" on="0"/>
        <pt x="587" y="60" on="0"/>
        <pt x="418" y="-3" on="0"/>
        <pt x="322" y="-3" on="1"/>
        <pt x="305" y="-3" on="0"/>
        <pt x="264" y="-2" on="0"/>
        <pt x="220" y="-1" on="0"/>
        <pt x="177" y="0" on="0"/>
        <pt x="160" y="0" on="1"/>
        <pt x="143" y="0" on="0"/>
        <pt x="86" y="-1" on="0"/>
        <pt x="25" y="-3" on="0"/>
        <pt x="-31" y="-4" on="0"/>
        <pt x="-48" y="-5" on="1"/>
        <pt x="-51" y="-6" on="0"/>
        <pt x="-54" y="3" on="0"/>
        <pt x="-54" y="8" on="1"/>
        <pt x="-54" y="14" on="0"/>
        <pt x="-43" y="38" on="0"/>
        <pt x="-38" y="39" on="1"/>
        <pt x="-9" y="42" on="0"/>
        <pt x="26" y="55" on="0"/>
        <pt x="47" y="76" on="0"/>
        <pt x="57" y="105" on="0"/>
        <pt x="62" y="123" on="1"/>
        <pt x="166" y="558" on="1"/>
        <pt x="168" y="568" on="0"/>
        <pt x="171" y="584" on="0"/>
        <pt x="171" y="592" on="1"/>
        <pt x="171" y="602" on="0"/>
        <pt x="168" y="618" on="0"/>
        <pt x="154" y="630" on="0"/>
        <pt x="124" y="639" on="0"/>
        <pt x="98" y="642" on="1"/>
        <pt x="96" y="643" on="0"/>
        <pt x="93" y="656" on="0"/>
        <pt x="93" y="659" on="1"/>
        <pt x="93" y="670" on="0"/>
        <pt x="103" y="687" on="0"/>
        <pt x="108" y="686" on="1"/>
        <pt x="124" y="685" on="0"/>
        <pt x="174" y="685" on="0"/>
        <pt x="227" y="685" on="0"/>
        <pt x="277" y="685" on="0"/>
        <pt x="295" y="685" on="1"/>
        <pt x="330" y="685" on="0"/>
        <pt x="413" y="688" on="0"/>
        <pt x="446" y="688" on="1"/>
        <pt x="538" y="688" on="0"/>
        <pt x="668" y="645" on="0"/>
        <pt x="751" y="570" on="0"/>
        <pt x="789" y="470" on="0"/>
      </contour>
      <contour>
        <pt x="598" y="449" on="1"/>
        <pt x="598" y="484" on="0"/>
        <pt x="581" y="553" on="0"/>
        <pt x="544" y="607" on="0"/>
        <pt x="482" y="639" on="0"/>
        <pt x="437" y="639" on="1"/>
        <pt x="424" y="638" on="1"/>
        <pt x="404" y="637" on="0"/>
        <pt x="377" y="616" on="0"/>
        <pt x="368" y="579" on="1"/>
        <pt x="256" y="106" on="1"/>
        <pt x="247" y="69" on="0"/>
        <pt x="264" y="48" on="0"/>
        <pt x="284" y="47" on="1"/>
        <pt x="310" y="46" on="1"/>
        <pt x="376" y="46" on="0"/>
        <pt x="482" y="110" on="0"/>
        <pt x="557" y="220" on="0"/>
        <pt x="598" y="367" on="0"/>
      </contour>
    </TTGlyph>
    <TTGlyph name="D.sc" xMin="-50" yMin="-5" xMax="573" yMax="482">
      <component glyphName="d.sc" x="0" y="0" flags="0x204"/>
    </TTGlyph>
    <TTGlyph name="D.swa" xMin="-5" yMin="-6" xMax="1019" yMax="706">
      <contour>
        <pt x="1019" y="415" on="1"/>
        <pt x="1019" y="326" on="0"/>
        <pt x="944" y="173" on="0"/>
        <pt x="817" y="61" on="0"/>
        <pt x="647" y="-3" on="0"/>
        <pt x="551" y="-3" on="1"/>
        <pt x="534" y="-3" on="0"/>
        <pt x="493" y="-2" on="0"/>
        <pt x="449" y="-1" on="0"/>
        <pt x="407" y="0" on="0"/>
        <pt x="389" y="0" on="1"/>
        <pt x="372" y="0" on="0"/>
        <pt x="315" y="-1" on="0"/>
        <pt x="254" y="-3" on="0"/>
        <pt x="198" y="-4" on="0"/>
        <pt x="181" y="-5" on="1"/>
        <pt x="178" y="-6" on="0"/>
        <pt x="175" y="3" on="0"/>
        <pt x="175" y="8" on="1"/>
        <pt x="175" y="14" on="0"/>
        <pt x="186" y="38" on="0"/>
        <pt x="191" y="39" on="1"/>
        <pt x="220" y="42" on="0"/>
        <pt x="255" y="55" on="0"/>
        <pt x="276" y="76" on="0"/>
        <pt x="286" y="105" on="0"/>
        <pt x="291" y="123" on="1"/>
        <pt x="401" y="584" on="1"/>
        <pt x="409" y="616" on="0"/>
        <pt x="388" y="633" on="0"/>
        <pt x="371" y="633" on="1"/>
        <pt x="339" y="633" on="0"/>
        <pt x="268" y="616" on="0"/>
        <pt x="196" y="585" on="0"/>
        <pt x="131" y="543" on="0"/>
        <pt x="81" y="492" on="0"/>
        <pt x="51" y="434" on="0"/>
        <pt x="51" y="404" on="1"/>
        <pt x="51" y="356" on="0"/>
        <pt x="93" y="316" on="0"/>
        <pt x="122" y="316" on="1"/>
        <pt x="138" y="316" on="0"/>
        <pt x="156" y="335" on="0"/>
        <pt x="172" y="359" on="0"/>
        <pt x="191" y="378" on="0"/>
        <pt x="209" y="378" on="1"/>
        <pt x="240" y="378" on="0"/>
        <pt x="269" y="341" on="0"/>
        <pt x="269" y="313" on="1"/>
        <pt x="269" y="299" on="0"/>
        <pt x="254" y="269" on="0"/>
        <pt x="224" y="243" on="0"/>
        <pt x="182" y="226" on="0"/>
        <pt x="155" y="226" on="1"/>
        <pt x="81" y="226" on="0"/>
        <pt x="-5" y="316" on="0"/>
        <pt x="-5" y="392" on="1"/>
        <pt x="-5" y="446" on="0"/>
        <pt x="65" y="557" on="0"/>
        <pt x="206" y="648" on="0"/>
        <pt x="420" y="706" on="0"/>
        <pt x="564" y="706" on="1"/>
        <pt x="697" y="706" on="0"/>
        <pt x="873" y="661" on="0"/>
        <pt x="977" y="582" on="0"/>
        <pt x="1019" y="476" on="0"/>
      </contour>
      <contour>
        <pt x="827" y="451" on="1"/>
        <pt x="827" y="486" on="0"/>
        <pt x="809" y="558" on="0"/>
        <pt x="769" y="614" on="0"/>
        <pt x="703" y="646" on="0"/>
        <pt x="654" y="642" on="1"/>
        <pt x="642" y="641" on="0"/>
        <pt x="625" y="636" on="0"/>
        <pt x="612" y="624" on="0"/>
        <pt x="602" y="601" on="0"/>
        <pt x="598" y="583" on="1"/>
        <pt x="485" y="106" on="1"/>
        <pt x="476" y="69" on="0"/>
        <pt x="493" y="48" on="0"/>
        <pt x="514" y="47" on="1"/>
        <pt x="539" y="46" on="1"/>
        <pt x="605" y="46" on="0"/>
        <pt x="711" y="111" on="0"/>
        <pt x="786" y="222" on="0"/>
        <pt x="827" y="369" on="0"/>
      </contour>
    </TTGlyph>
    <TTGlyph name="Dcaron" xMin="-54" yMin="-6" xMax="789" yMax="962">
      <component glyphName="D" x="0" y="0" flags="0x204"/>
      <component glyphName="caron.cap" x="193" y="0" flags="0x4"/>
    </TTGlyph>
    <TTGlyph name="Dcaron.sc" xMin="-50" yMin="-5" xMax="573" yMax="745">
      <component glyphName="d.sc" x="0" y="0" flags="0x204"/>
      <component glyphName="caron" x="115" y="15" flags="0x4"/>
    </TTGlyph>
    <TTGlyph name="Dcaron.swa" xMin="-5" yMin="-6" xMax="1019" yMax="962">
      <component glyphName="D.swa" x="0" y="0" flags="0x204"/>
      <component glyphName="caron.cap" x="425" y="0" flags="0x4"/>
    </TTGlyph>
    <TTGlyph name="Dcroat" xMin="17" yMin="-6" xMax="860" yMax="692">
      <contour>
        <pt x="860" y="415" on="1"/>
        <pt x="860" y="326" on="0"/>
        <pt x="786" y="173" on="0"/>
        <pt x="658" y="61" on="0"/>
        <pt x="489" y="-3" on="0"/>
        <pt x="393" y="-3" on="1"/>
        <pt x="376" y="-3" on="0"/>
        <pt x="335" y="-2" on="0"/>
        <pt x="291" y="-1" on="0"/>
        <pt x="248" y="0" on="0"/>
        <pt x="231" y="0" on="1"/>
        <pt x="214" y="0" on="0"/>
        <pt x="157" y="-1" on="0"/>
        <pt x="96" y="-3" on="0"/>
        <pt x="40" y="-4" on="0"/>
        <pt x="23" y="-5" on="1"/>
        <pt x="20" y="-6" on="0"/>
        <pt x="17" y="3" on="0"/>
        <pt x="17" y="8" on="1"/>
        <pt x="17" y="14" on="0"/>
        <pt x="28" y="38" on="0"/>
        <pt x="33" y="39" on="1"/>
        <pt x="62" y="42" on="0"/>
        <pt x="97" y="55" on="0"/>
        <pt x="118" y="76" on="0"/>
        <pt x="128" y="105" on="0"/>
        <pt x="133" y="123" on="1"/>
        <pt x="179" y="318" on="1"/>
        <pt x="74" y="314" on="1"/>
        <pt x="69" y="314" on="0"/>
        <pt x="62" y="339" on="0"/>
        <pt x="62" y="350" on="1"/>
        <pt x="62" y="360" on="0"/>
        <pt x="69" y="385" on="0"/>
        <pt x="74" y="385" on="1"/>
        <pt x="195" y="385" on="1"/>
        <pt x="238" y="562" on="1"/>
        <pt x="240" y="572" on="0"/>
        <pt x="243" y="588" on="0"/>
        <pt x="243" y="596" on="1"/>
        <pt x="243" y="606" on="0"/>
        <pt x="240" y="622" on="0"/>
        <pt x="226" y="634" on="0"/>
        <pt x="196" y="643" on="0"/>
        <pt x="170" y="646" on="1"/>
        <pt x="168" y="647" on="0"/>
        <pt x="165" y="660" on="0"/>
        <pt x="165" y="663" on="1"/>
        <pt x="165" y="674" on="0"/>
        <pt x="175" y="691" on="0"/>
        <pt x="180" y="690" on="1"/>
        <pt x="196" y="689" on="0"/>
        <pt x="246" y="689" on="0"/>
        <pt x="299" y="689" on="0"/>
        <pt x="349" y="689" on="0"/>
        <pt x="367" y="689" on="1"/>
        <pt x="402" y="689" on="0"/>
        <pt x="485" y="692" on="0"/>
        <pt x="518" y="692" on="1"/>
        <pt x="610" y="692" on="0"/>
        <pt x="740" y="648" on="0"/>
        <pt x="822" y="573" on="0"/>
        <pt x="860" y="472" on="0"/>
      </contour>
      <contour>
        <pt x="669" y="451" on="1"/>
        <pt x="669" y="486" on="0"/>
        <pt x="653" y="555" on="0"/>
        <pt x="615" y="610" on="0"/>
        <pt x="554" y="643" on="0"/>
        <pt x="509" y="643" on="1"/>
        <pt x="496" y="642" on="1"/>
        <pt x="476" y="641" on="0"/>
        <pt x="449" y="620" on="0"/>
        <pt x="440" y="583" on="1"/>
        <pt x="393" y="385" on="1"/>
        <pt x="476" y="385" on="1"/>
        <pt x="481" y="385" on="0"/>
        <pt x="488" y="360" on="0"/>
        <pt x="488" y="350" on="1"/>
        <pt x="488" y="339" on="0"/>
        <pt x="481" y="314" on="0"/>
        <pt x="476" y="314" on="1"/>
        <pt x="377" y="318" on="1"/>
        <pt x="327" y="106" on="1"/>
        <pt x="318" y="69" on="0"/>
        <pt x="335" y="48" on="0"/>
        <pt x="355" y="47" on="1"/>
        <pt x="381" y="46" on="1"/>
        <pt x="447" y="46" on="0"/>
        <pt x="553" y="111" on="0"/>
        <pt x="628" y="222" on="0"/>
        <pt x="669" y="369" on="0"/>
      </contour>
    </TTGlyph>
    <TTGlyph name="Dcroat.sc" xMin="6" yMin="-5" xMax="629" yMax="482">
      <component glyphName="dcroat.sc" x="0" y="0" flags="0x204"/>
    </TTGlyph>
    <TTGlyph name="Dcroat.swa" xMin="29" yMin="-6" xMax="1117" yMax="706">
      <contour>
        <pt x="1117" y="415" on="1"/>
        <pt x="1117" y="326" on="0"/>
        <pt x="1042" y="173" on="0"/>
        <pt x="915" y="61" on="0"/>
        <pt x="745" y="-3" on="0"/>
        <pt x="649" y="-3" on="1"/>
        <pt x="632" y="-3" on="0"/>
        <pt x="591" y="-2" on="0"/>
        <pt x="547" y="-1" on="0"/>
        <pt x="505" y="0" on="0"/>
        <pt x="487" y="0" on="1"/>
        <pt x="470" y="0" on="0"/>
        <pt x="413" y="-1" on="0"/>
        <pt x="352" y="-3" on="0"/>
        <pt x="296" y="-4" on="0"/>
        <pt x="279" y="-5" on="1"/>
        <pt x="276" y="-6" on="0"/>
        <pt x="273" y="3" on="0"/>
        <pt x="273" y="8" on="1"/>
        <pt x="273" y="14" on="0"/>
        <pt x="284" y="38" on="0"/>
        <pt x="289" y="39" on="1"/>
        <pt x="318" y="42" on="0"/>
        <pt x="353" y="55" on="0"/>
        <pt x="374" y="76" on="0"/>
        <pt x="384" y="105" on="0"/>
        <pt x="389" y="123" on="1"/>
        <pt x="436" y="318" on="1"/>
        <pt x="330" y="314" on="1"/>
        <pt x="325" y="314" on="0"/>
        <pt x="318" y="339" on="0"/>
        <pt x="318" y="350" on="1"/>
        <pt x="318" y="360" on="0"/>
        <pt x="325" y="385" on="0"/>
        <pt x="330" y="385" on="1"/>
        <pt x="452" y="385" on="1"/>
        <pt x="499" y="584" on="1"/>
        <pt x="507" y="616" on="0"/>
        <pt x="486" y="633" on="0"/>
        <pt x="469" y="633" on="1"/>
        <pt x="398" y="633" on="0"/>
        <pt x="262" y="597" on="0"/>
        <pt x="156" y="525" on="0"/>
        <pt x="91" y="420" on="0"/>
        <pt x="91" y="351" on="1"/>
        <pt x="91" y="333" on="0"/>
        <pt x="103" y="299" on="0"/>
        <pt x="124" y="272" on="0"/>
        <pt x="154" y="256" on="0"/>
        <pt x="172" y="256" on="1"/>
        <pt x="188" y="256" on="0"/>
        <pt x="206" y="275" on="0"/>
        <pt x="222" y="298" on="0"/>
        <pt x="241" y="317" on="0"/>
        <pt x="259" y="317" on="1"/>
        <pt x="290" y="317" on="0"/>
        <pt x="319" y="281" on="0"/>
        <pt x="319" y="253" on="1"/>
        <pt x="319" y="239" on="0"/>
        <pt x="304" y="209" on="0"/>
        <pt x="274" y="182" on="0"/>
        <pt x="232" y="165" on="0"/>
        <pt x="205" y="165" on="1"/>
        <pt x="164" y="165" on="0"/>
        <pt x="99" y="193" on="0"/>
        <pt x="53" y="243" on="0"/>
        <pt x="29" y="311" on="0"/>
        <pt x="29" y="351" on="1"/>
        <pt x="29" y="433" on="0"/>
        <pt x="121" y="565" on="0"/>
        <pt x="287" y="657" on="0"/>
        <pt x="521" y="706" on="0"/>
        <pt x="663" y="706" on="1"/>
        <pt x="797" y="706" on="0"/>
        <pt x="972" y="661" on="0"/>
        <pt x="1076" y="582" on="0"/>
        <pt x="1117" y="476" on="0"/>
      </contour>
      <contour>
        <pt x="925" y="451" on="1"/>
        <pt x="925" y="486" on="0"/>
        <pt x="909" y="555" on="0"/>
        <pt x="871" y="609" on="0"/>
        <pt x="810" y="643" on="0"/>
        <pt x="765" y="643" on="1"/>
        <pt x="733" y="643" on="0"/>
        <pt x="705" y="620" on="0"/>
        <pt x="696" y="583" on="1"/>
        <pt x="649" y="385" on="1"/>
        <pt x="732" y="385" on="1"/>
        <pt x="737" y="385" on="0"/>
        <pt x="744" y="360" on="0"/>
        <pt x="744" y="350" on="1"/>
        <pt x="744" y="339" on="0"/>
        <pt x="737" y="314" on="0"/>
        <pt x="732" y="314" on="1"/>
        <pt x="633" y="318" on="1"/>
        <pt x="583" y="106" on="1"/>
        <pt x="574" y="69" on="0"/>
        <pt x="591" y="48" on="0"/>
        <pt x="612" y="47" on="1"/>
        <pt x="637" y="46" on="1"/>
        <pt x="703" y="46" on="0"/>
        <pt x="809" y="111" on="0"/>
        <pt x="884" y="222" on="0"/>
        <pt x="925" y="369" on="0"/>
      </contour>
    </TTGlyph>
    <TTGlyph name="E" xMin="-54" yMin="-6" xMax="669" yMax="690">
      <contour>
        <pt x="669" y="690" on="1"/>
        <pt x="665" y="666" on="0"/>
        <pt x="659" y="600" on="0"/>
        <pt x="657" y="578" on="1"/>
        <pt x="657" y="570" on="0"/>
        <pt x="655" y="541" on="0"/>
        <pt x="654" y="508" on="0"/>
        <pt x="653" y="478" on="0"/>
        <pt x="653" y="471" on="1"/>
        <pt x="653" y="468" on="0"/>
        <pt x="636" y="463" on="0"/>
        <pt x="630" y="463" on="1"/>
        <pt x="625" y="463" on="0"/>
        <pt x="609" y="468" on="0"/>
        <pt x="609" y="471" on="1"/>
        <pt x="608" y="501" on="0"/>
        <pt x="587" y="560" on="0"/>
        <pt x="549" y="607" on="0"/>
        <pt x="498" y="636" on="0"/>
        <pt x="468" y="636" on="1"/>
        <pt x="440" y="636" on="1"/>
        <pt x="430" y="636" on="0"/>
        <pt x="408" y="631" on="0"/>
        <pt x="388" y="618" on="0"/>
        <pt x="371" y="595" on="0"/>
        <pt x="367" y="577" on="1"/>
        <pt x="320" y="378" on="1"/>
        <pt x="363" y="378" on="1"/>
        <pt x="414" y="378" on="0"/>
        <pt x="473" y="415" on="0"/>
        <pt x="491" y="466" on="1"/>
        <pt x="493" y="470" on="0"/>
        <pt x="508" y="474" on="0"/>
        <pt x="513" y="474" on="1"/>
        <pt x="521" y="474" on="0"/>
        <pt x="537" y="470" on="0"/>
        <pt x="535" y="466" on="1"/>
        <pt x="530" y="447" on="0"/>
        <pt x="523" y="420" on="0"/>
        <pt x="517" y="396" on="0"/>
        <pt x="510" y="370" on="0"/>
        <pt x="506" y="352" on="1"/>
        <pt x="497" y="316" on="0"/>
        <pt x="487" y="259" on="0"/>
        <pt x="479" y="222" on="1"/>
        <pt x="477" y="217" on="0"/>
        <pt x="462" y="214" on="0"/>
        <pt x="457" y="214" on="1"/>
        <pt x="448" y="214" on="0"/>
        <pt x="434" y="219" on="0"/>
        <pt x="435" y="222" on="1"/>
        <pt x="442" y="281" on="0"/>
        <pt x="396" y="329" on="0"/>
        <pt x="351" y="329" on="1"/>
        <pt x="308" y="329" on="1"/>
        <pt x="259" y="123" on="1"/>
        <pt x="254" y="101" on="0"/>
        <pt x="254" y="89" on="1"/>
        <pt x="254" y="66" on="0"/>
        <pt x="280" y="49" on="0"/>
        <pt x="300" y="49" on="1"/>
        <pt x="366" y="49" on="1"/>
        <pt x="405" y="49" on="0"/>
        <pt x="475" y="80" on="0"/>
        <pt x="532" y="130" on="0"/>
        <pt x="573" y="193" on="0"/>
        <pt x="583" y="225" on="1"/>
        <pt x="584" y="227" on="0"/>
        <pt x="597" y="229" on="0"/>
        <pt x="600" y="229" on="1"/>
        <pt x="608" y="229" on="0"/>
        <pt x="629" y="220" on="0"/>
        <pt x="627" y="216" on="1"/>
        <pt x="621" y="194" on="0"/>
        <pt x="606" y="136" on="0"/>
        <pt x="592" y="76" on="0"/>
        <pt x="578" y="17" on="0"/>
        <pt x="574" y="-5" on="1"/>
        <pt x="551" y="-4" on="0"/>
        <pt x="466" y="-3" on="0"/>
        <pt x="373" y="-1" on="0"/>
        <pt x="287" y="0" on="0"/>
        <pt x="263" y="0" on="1"/>
        <pt x="239" y="0" on="0"/>
        <pt x="153" y="-1" on="0"/>
        <pt x="60" y="-3" on="0"/>
        <pt x="-26" y="-4" on="0"/>
        <pt x="-49" y="-5" on="1"/>
        <pt x="-51" y="-6" on="0"/>
        <pt x="-54" y="6" on="0"/>
        <pt x="-54" y="12" on="1"/>
        <pt x="-54" y="18" on="0"/>
        <pt x="-43" y="38" on="0"/>
        <pt x="-38" y="39" on="1"/>
        <pt x="-8" y="42" on="0"/>
        <pt x="27" y="54" on="0"/>
        <pt x="47" y="74" on="0"/>
        <pt x="57" y="103" on="0"/>
        <pt x="62" y="123" on="1"/>
        <pt x="166" y="562" on="1"/>
        <pt x="168" y="572" on="0"/>
        <pt x="172" y="588" on="0"/>
        <pt x="172" y="596" on="1"/>
        <pt x="172" y="606" on="0"/>
        <pt x="169" y="622" on="0"/>
        <pt x="155" y="634" on="0"/>
        <pt x="125" y="643" on="0"/>
        <pt x="99" y="646" on="1"/>
        <pt x="96" y="647" on="0"/>
        <pt x="94" y="660" on="0"/>
        <pt x="94" y="663" on="1"/>
        <pt x="94" y="670" on="0"/>
        <pt x="104" y="690" on="0"/>
        <pt x="109" y="690" on="1"/>
        <pt x="128" y="689" on="0"/>
        <pt x="204" y="687" on="0"/>
        <pt x="287" y="686" on="0"/>
        <pt x="363" y="685" on="0"/>
        <pt x="383" y="685" on="1"/>
        <pt x="397" y="685" on="0"/>
        <pt x="443" y="685" on="0"/>
        <pt x="497" y="686" on="0"/>
        <pt x="557" y="687" on="0"/>
        <pt x="611" y="688" on="0"/>
        <pt x="656" y="689" on="0"/>
      </contour>
    </TTGlyph>
    <TTGlyph name="E.sc" xMin="-50" yMin="-5" xMax="496" yMax="481">
      <component glyphName="e.sc" x="0" y="0" flags="0x204"/>
    </TTGlyph>
    <TTGlyph name="E.sc_swa" xMin="-3" yMin="-18" xMax="420" yMax="497">
      <component glyphName="e.sc_swa" x="0" y="0" flags="0x204"/>
    </TTGlyph>
    <TTGlyph name="E.swa" xMin="13" yMin="-25" xMax="583" yMax="701">
      <contour>
        <pt x="583" y="544" on="1"/>
        <pt x="583" y="507" on="0"/>
        <pt x="538" y="465" on="0"/>
        <pt x="503" y="465" on="1"/>
        <pt x="476" y="465" on="0"/>
        <pt x="444" y="500" on="0"/>
        <pt x="444" y="519" on="1"/>
        <pt x="444" y="534" on="0"/>
        <pt x="455" y="551" on="0"/>
        <pt x="469" y="563" on="0"/>
        <pt x="480" y="576" on="0"/>
        <pt x="480" y="587" on="1"/>
        <pt x="480" y="616" on="0"/>
        <pt x="432" y="653" on="0"/>
        <pt x="390" y="653" on="1"/>
        <pt x="340" y="653" on="0"/>
        <pt x="287" y="578" on="0"/>
        <pt x="287" y="514" on="1"/>
        <pt x="287" y="493" on="0"/>
        <pt x="295" y="458" on="0"/>
        <pt x="305" y="442" on="1"/>
        <pt x="325" y="450" on="0"/>
        <pt x="361" y="457" on="0"/>
        <pt x="387" y="457" on="1"/>
        <pt x="440" y="457" on="0"/>
        <pt x="497" y="412" on="0"/>
        <pt x="497" y="376" on="1"/>
        <pt x="497" y="362" on="0"/>
        <pt x="486" y="334" on="0"/>
        <pt x="461" y="312" on="0"/>
        <pt x="421" y="298" on="0"/>
        <pt x="393" y="298" on="1"/>
        <pt x="353" y="298" on="0"/>
        <pt x="286" y="326" on="0"/>
        <pt x="257" y="350" on="1"/>
        <pt x="227" y="322" on="0"/>
        <pt x="201" y="247" on="0"/>
        <pt x="201" y="184" on="1"/>
        <pt x="201" y="110" on="0"/>
        <pt x="283" y="23" on="0"/>
        <pt x="358" y="23" on="1"/>
        <pt x="384" y="23" on="0"/>
        <pt x="435" y="40" on="0"/>
        <pt x="475" y="70" on="0"/>
        <pt x="499" y="111" on="0"/>
        <pt x="499" y="134" on="1"/>
        <pt x="499" y="166" on="0"/>
        <pt x="470" y="210" on="0"/>
        <pt x="446" y="210" on="1"/>
        <pt x="421" y="210" on="0"/>
        <pt x="404" y="179" on="0"/>
        <pt x="404" y="147" on="1"/>
        <pt x="404" y="125" on="0"/>
        <pt x="374" y="92" on="0"/>
        <pt x="348" y="92" on="1"/>
        <pt x="315" y="92" on="0"/>
        <pt x="283" y="127" on="0"/>
        <pt x="283" y="156" on="1"/>
        <pt x="283" y="174" on="0"/>
        <pt x="301" y="211" on="0"/>
        <pt x="338" y="240" on="0"/>
        <pt x="393" y="258" on="0"/>
        <pt x="430" y="258" on="1"/>
        <pt x="494" y="258" on="0"/>
        <pt x="556" y="186" on="0"/>
        <pt x="556" y="134" on="1"/>
        <pt x="556" y="103" on="0"/>
        <pt x="524" y="46" on="0"/>
        <pt x="462" y="2" on="0"/>
        <pt x="374" y="-25" on="0"/>
        <pt x="317" y="-25" on="1"/>
        <pt x="245" y="-25" on="0"/>
        <pt x="132" y="7" on="0"/>
        <pt x="54" y="64" on="0"/>
        <pt x="13" y="143" on="0"/>
        <pt x="13" y="190" on="1"/>
        <pt x="13" y="255" on="0"/>
        <pt x="102" y="366" on="0"/>
        <pt x="184" y="394" on="1"/>
        <pt x="153" y="419" on="0"/>
        <pt x="121" y="481" on="0"/>
        <pt x="121" y="513" on="1"/>
        <pt x="121" y="555" on="0"/>
        <pt x="159" y="625" on="0"/>
        <pt x="225" y="674" on="0"/>
        <pt x="317" y="701" on="0"/>
        <pt x="371" y="701" on="1"/>
        <pt x="416" y="701" on="0"/>
        <pt x="494" y="677" on="0"/>
        <pt x="551" y="635" on="0"/>
        <pt x="583" y="578" on="0"/>
      </contour>
      <contour>
        <pt x="440" y="377" on="1"/>
        <pt x="440" y="390" on="0"/>
        <pt x="414" y="408" on="0"/>
        <pt x="389" y="408" on="1"/>
        <pt x="369" y="408" on="0"/>
        <pt x="332" y="398" on="0"/>
        <pt x="316" y="387" on="1"/>
        <pt x="330" y="365" on="0"/>
        <pt x="372" y="347" on="0"/>
        <pt x="389" y="347" on="1"/>
        <pt x="414" y="347" on="0"/>
        <pt x="440" y="364" on="0"/>
      </contour>
    </TTGlyph>
    <TTGlyph name="Eacute" xMin="-54" yMin="-6" xMax="669" yMax="991">
      <component glyphName="E" x="0" y="0" flags="0x204"/>
      <component glyphName="acute.cap" x="203" y="0" flags="0x4"/>
    </TTGlyph>
    <TTGlyph name="Eacute.sc" xMin="-50" yMin="-5" xMax="496" yMax="776">
      <component glyphName="e.sc" x="0" y="0" flags="0x204"/>
      <component glyphName="acute" x="142" y="15" flags="0x4"/>
    </TTGlyph>
    <TTGlyph name="Eacute.sc_swa" xMin="-3" yMin="-18" xMax="473" yMax="786">
      <component glyphName="e.sc_swa" x="0" y="0" flags="0x204"/>
      <component glyphName="acute" x="119" y="25" flags="0x4"/>
    </TTGlyph>
    <TTGlyph name="Eacute.swa" xMin="13" yMin="-25" xMax="599" yMax="1006">
      <component glyphName="E.swa" x="0" y="0" flags="0x204"/>
      <component glyphName="acute.cap" x="201" y="15" flags="0x4"/>
    </TTGlyph>
    <TTGlyph name="Ebreve" xMin="-54" yMin="-6" xMax="669" yMax="956">
      <component glyphName="E" x="0" y="0" flags="0x204"/>
      <component glyphName="breve.cap" x="178" y="0" flags="0x4"/>
    </TTGlyph>
    <TTGlyph name="Ebreve.sc" xMin="-50" yMin="-5" xMax="505" yMax="728">
      <component glyphName="e.sc" x="0" y="0" flags="0x204"/>
      <component glyphName="breve" x="97" y="15" flags="0x4"/>
    </TTGlyph>
    <TTGlyph name="Ebreve.sc_swa" xMin="-3" yMin="-18" xMax="481" yMax="738">
      <component glyphName="e.sc_swa" x="0" y="0" flags="0x204"/>
      <component glyphName="breve" x="73" y="25" flags="0x4"/>
    </TTGlyph>
    <TTGlyph name="Ebreve.swa" xMin="13" yMin="-25" xMax="613" yMax="971">
      <component glyphName="E.swa" x="0" y="0" flags="0x204"/>
      <component glyphName="breve.cap" x="175" y="15" flags="0x4"/>
    </TTGlyph>
    <TTGlyph name="Ecaron" xMin="-54" yMin="-6" xMax="669" yMax="962">
      <component glyphName="E" x="0" y="0" flags="0x204"/>
      <component glyphName="caron.cap" x="139" y="0" flags="0x4"/>
    </TTGlyph>
    <TTGlyph name="Ecaron.sc" xMin="-50" yMin="-5" xMax="512" yMax="745">
      <component glyphName="e.sc" x="0" y="0" flags="0x204"/>
      <component glyphName="caron" x="82" y="15" flags="0x4"/>
    </TTGlyph>
    <TTGlyph name="Ecaron.sc_swa" xMin="-3" yMin="-18" xMax="488" yMax="755">
      <component glyphName="e.sc_swa" x="0" y="0" flags="0x204"/>
      <component glyphName="caron" x="58" y="25" flags="0x4"/>
    </TTGlyph>
    <TTGlyph name="Ecaron.swa" xMin="13" yMin="-25" xMax="646" yMax="977">
      <component glyphName="E.swa" x="0" y="0" flags="0x204"/>
      <component glyphName="caron.cap" x="137" y="15" flags="0x4"/>
    </TTGlyph>
    <TTGlyph name="Ecircumflex" xMin="-54" yMin="-6" xMax="669" yMax="962">
      <component glyphName="E" x="0" y="0" flags="0x204"/>
      <component glyphName="circumflex.cap" x="166" y="0" flags="0x4"/>
    </TTGlyph>
    <TTGlyph name="Ecircumflex.sc" xMin="-50" yMin="-5" xMax="496" yMax="761">
      <component glyphName="e.sc" x="0" y="0" flags="0x204"/>
      <component glyphName="circumflex" x="114" y="15" flags="0x4"/>
    </TTGlyph>
    <TTGlyph name="Ecircumflex.sc_swa" xMin="-3" yMin="-18" xMax="454" yMax="771">
      <component glyphName="e.sc_swa" x="0" y="0" flags="0x204"/>
      <component glyphName="circumflex" x="90" y="25" flags="0x4"/>
    </TTGlyph>
    <TTGlyph name="Ecircumflex.swa" xMin="13" yMin="-25" xMax="607" yMax="977">
      <component glyphName="E.swa" x="0" y="0" flags="0x204"/>
      <component glyphName="circumflex.cap" x="164" y="15" flags="0x4"/>
    </TTGlyph>
    <TTGlyph name="Edieresis" xMin="-54" yMin="-6" xMax="669" yMax="944">
      <component glyphName="E" x="0" y="0" flags="0x204"/>
      <component glyphName="dieresis.cap" x="145" y="0" flags="0x4"/>
    </TTGlyph>
    <TTGlyph name="Edieresis.sc" xMin="-50" yMin="-5" xMax="526" yMax="736">
      <component glyphName="e.sc" x="0" y="0" flags="0x204"/>
      <component glyphName="dieresis" x="95" y="15" flags="0x4"/>
    </TTGlyph>
    <TTGlyph name="Edieresis.sc_swa" xMin="-3" yMin="-18" xMax="503" yMax="746">
      <component glyphName="e.sc_swa" x="0" y="0" flags="0x204"/>
      <component glyphName="dieresis" x="72" y="25" flags="0x4"/>
    </TTGlyph>
    <TTGlyph name="Edieresis.swa" xMin="13" yMin="-25" xMax="640" yMax="959">
      <component glyphName="E.swa" x="0" y="0" flags="0x204"/>
      <component glyphName="dieresis.cap" x="142" y="15" flags="0x4"/>
    </TTGlyph>
    <TTGlyph name="Edotaccent" xMin="-54" yMin="-6" xMax="669" yMax="944">
      <component glyphName="E" x="0" y="0" flags="0x204"/>
      <component glyphName="dotaccent.cap" x="154" y="0" flags="0x4"/>
    </TTGlyph>
    <TTGlyph name="Edotaccent.sc" xMin="-50" yMin="-5" xMax="496" yMax="736">
      <component glyphName="e.sc" x="0" y="0" flags="0x204"/>
      <component glyphName="dotaccent" x="111" y="15" flags="0x4"/>
    </TTGlyph>
    <TTGlyph name="Edotaccent.sc_swa" xMin="-3" yMin="-18" xMax="420" yMax="746">
      <component glyphName="e.sc_swa" x="0" y="0" flags="0x204"/>
      <component glyphName="dotaccent" x="88" y="25" flags="0x4"/>
    </TTGlyph>
    <TTGlyph name="Edotaccent.swa" xMin="13" yMin="-25" xMax="583" yMax="959">
      <component glyphName="E.swa" x="0" y="0" flags="0x204"/>
      <component glyphName="dotaccent.cap" x="151" y="15" flags="0x4"/>
    </TTGlyph>
    <TTGlyph name="Egrave" xMin="-54" yMin="-6" xMax="669" yMax="990">
      <component glyphName="E" x="0" y="0" flags="0x204"/>
      <component glyphName="grave.cap" x="114" y="0" flags="0x4"/>
    </TTGlyph>
    <TTGlyph name="Egrave.sc" xMin="-50" yMin="-5" xMax="496" yMax="776">
      <component glyphName="e.sc" x="0" y="0" flags="0x204"/>
      <component glyphName="grave" x="55" y="15" flags="0x4"/>
    </TTGlyph>
    <TTGlyph name="Egrave.sc_swa" xMin="-3" yMin="-18" xMax="420" yMax="786">
      <component glyphName="e.sc_swa" x="0" y="0" flags="0x204"/>
      <component glyphName="grave" x="32" y="25" flags="0x4"/>
    </TTGlyph>
    <TTGlyph name="Egrave.swa" xMin="13" yMin="-25" xMax="583" yMax="1005">
      <component glyphName="E.swa" x="0" y="0" flags="0x204"/>
      <component glyphName="grave.cap" x="112" y="15" flags="0x4"/>
    </TTGlyph>
    <TTGlyph name="Emacron" xMin="-54" yMin="-6" xMax="669" yMax="887">
      <component glyphName="E" x="0" y="0" flags="0x204"/>
      <component glyphName="macron.cap" x="117" y="0" flags="0x4"/>
    </TTGlyph>
    <TTGlyph name="Emacron.sc" xMin="-50" yMin="-5" xMax="496" yMax="666">
      <component glyphName="e.sc" x="0" y="0" flags="0x204"/>
      <component glyphName="macron" x="69" y="15" flags="0x4"/>
    </TTGlyph>
    <TTGlyph name="Emacron.sc_swa" xMin="-3" yMin="-18" xMax="461" yMax="676">
      <component glyphName="e.sc_swa" x="0" y="0" flags="0x204"/>
      <component glyphName="macron" x="45" y="25" flags="0x4"/>
    </TTGlyph>
    <TTGlyph name="Emacron.swa" xMin="13" yMin="-25" xMax="622" yMax="902">
      <component glyphName="E.swa" x="0" y="0" flags="0x204"/>
      <component glyphName="macron.cap" x="114" y="15" flags="0x4"/>
    </TTGlyph>
    <TTGlyph name="Eogonek" xMin="-54" yMin="-204" xMax="669" yMax="690">
      <contour>
        <pt x="525" y="-172" on="1"/>
        <pt x="511" y="-186" on="0"/>
        <pt x="470" y="-204" on="0"/>
        <pt x="444" y="-204" on="1"/>
        <pt x="396" y="-204" on="0"/>
        <pt x="331" y="-160" on="0"/>
        <pt x="331" y="-120" on="1"/>
        <pt x="331" y="-86" on="0"/>
        <pt x="375" y="-27" on="0"/>
        <pt x="410" y="-1" on="1"/>
        <pt x="365" y="0" on="0"/>
        <pt x="286" y="0" on="0"/>
        <pt x="263" y="0" on="1"/>
        <pt x="239" y="0" on="0"/>
        <pt x="153" y="-1" on="0"/>
        <pt x="60" y="-3" on="0"/>
        <pt x="-26" y="-4" on="0"/>
        <pt x="-49" y="-5" on="1"/>
        <pt x="-51" y="-6" on="0"/>
        <pt x="-54" y="6" on="0"/>
        <pt x="-54" y="12" on="1"/>
        <pt x="-54" y="18" on="0"/>
        <pt x="-43" y="38" on="0"/>
        <pt x="-38" y="39" on="1"/>
        <pt x="-8" y="42" on="0"/>
        <pt x="27" y="54" on="0"/>
        <pt x="47" y="74" on="0"/>
        <pt x="57" y="103" on="0"/>
        <pt x="62" y="123" on="1"/>
        <pt x="166" y="562" on="1"/>
        <pt x="168" y="572" on="0"/>
        <pt x="172" y="588" on="0"/>
        <pt x="172" y="596" on="1"/>
        <pt x="172" y="606" on="0"/>
        <pt x="169" y="622" on="0"/>
        <pt x="155" y="634" on="0"/>
        <pt x="125" y="643" on="0"/>
        <pt x="99" y="646" on="1"/>
        <pt x="96" y="647" on="0"/>
        <pt x="94" y="660" on="0"/>
        <pt x="94" y="663" on="1"/>
        <pt x="94" y="670" on="0"/>
        <pt x="104" y="690" on="0"/>
        <pt x="109" y="690" on="1"/>
        <pt x="128" y="689" on="0"/>
        <pt x="204" y="687" on="0"/>
        <pt x="287" y="686" on="0"/>
        <pt x="363" y="685" on="0"/>
        <pt x="383" y="685" on="1"/>
        <pt x="397" y="685" on="0"/>
        <pt x="443" y="685" on="0"/>
        <pt x="497" y="686" on="0"/>
        <pt x="557" y="687" on="0"/>
        <pt x="611" y="688" on="0"/>
        <pt x="656" y="689" on="0"/>
        <pt x="669" y="690" on="1"/>
        <pt x="665" y="666" on="0"/>
        <pt x="659" y="600" on="0"/>
        <pt x="657" y="578" on="1"/>
        <pt x="657" y="570" on="0"/>
        <pt x="655" y="541" on="0"/>
        <pt x="654" y="508" on="0"/>
        <pt x="653" y="478" on="0"/>
        <pt x="653" y="471" on="1"/>
        <pt x="653" y="468" on="0"/>
        <pt x="636" y="463" on="0"/>
        <pt x="630" y="463" on="1"/>
        <pt x="625" y="463" on="0"/>
        <pt x="609" y="468" on="0"/>
        <pt x="609" y="471" on="1"/>
        <pt x="608" y="501" on="0"/>
        <pt x="587" y="560" on="0"/>
        <pt x="549" y="607" on="0"/>
        <pt x="498" y="636" on="0"/>
        <pt x="468" y="636" on="1"/>
        <pt x="440" y="636" on="1"/>
        <pt x="430" y="636" on="0"/>
        <pt x="408" y="631" on="0"/>
        <pt x="388" y="618" on="0"/>
        <pt x="371" y="595" on="0"/>
        <pt x="367" y="577" on="1"/>
        <pt x="320" y="378" on="1"/>
        <pt x="363" y="378" on="1"/>
        <pt x="414" y="378" on="0"/>
        <pt x="473" y="415" on="0"/>
        <pt x="491" y="466" on="1"/>
        <pt x="493" y="470" on="0"/>
        <pt x="508" y="474" on="0"/>
        <pt x="513" y="474" on="1"/>
        <pt x="521" y="474" on="0"/>
        <pt x="537" y="470" on="0"/>
        <pt x="535" y="466" on="1"/>
        <pt x="530" y="447" on="0"/>
        <pt x="523" y="420" on="0"/>
        <pt x="517" y="396" on="0"/>
        <pt x="510" y="370" on="0"/>
        <pt x="506" y="352" on="1"/>
        <pt x="497" y="316" on="0"/>
        <pt x="487" y="259" on="0"/>
        <pt x="479" y="222" on="1"/>
        <pt x="477" y="217" on="0"/>
        <pt x="462" y="214" on="0"/>
        <pt x="457" y="214" on="1"/>
        <pt x="448" y="214" on="0"/>
        <pt x="434" y="219" on="0"/>
        <pt x="435" y="222" on="1"/>
        <pt x="442" y="281" on="0"/>
        <pt x="396" y="329" on="0"/>
        <pt x="351" y="329" on="1"/>
        <pt x="308" y="329" on="1"/>
        <pt x="259" y="123" on="1"/>
        <pt x="254" y="101" on="0"/>
        <pt x="254" y="89" on="1"/>
        <pt x="254" y="66" on="0"/>
        <pt x="280" y="49" on="0"/>
        <pt x="300" y="49" on="1"/>
        <pt x="366" y="49" on="1"/>
        <pt x="405" y="49" on="0"/>
        <pt x="475" y="80" on="0"/>
        <pt x="532" y="130" on="0"/>
        <pt x="573" y="193" on="0"/>
        <pt x="583" y="225" on="1"/>
        <pt x="584" y="227" on="0"/>
        <pt x="597" y="229" on="0"/>
        <pt x="600" y="229" on="1"/>
        <pt x="608" y="229" on="0"/>
        <pt x="629" y="220" on="0"/>
        <pt x="627" y="216" on="1"/>
        <pt x="621" y="194" on="0"/>
        <pt x="606" y="136" on="0"/>
        <pt x="592" y="76" on="0"/>
        <pt x="578" y="17" on="0"/>
        <pt x="574" y="-5" on="1"/>
        <pt x="485" y="-2" on="1"/>
        <pt x="459" y="-25" on="0"/>
        <pt x="424" y="-78" on="0"/>
        <pt x="424" y="-103" on="1"/>
        <pt x="424" y="-127" on="0"/>
        <pt x="453" y="-150" on="0"/>
        <pt x="473" y="-150" on="1"/>
        <pt x="493" y="-150" on="0"/>
        <pt x="512" y="-139" on="1"/>
        <pt x="515" y="-137" on="0"/>
        <pt x="522" y="-148" on="0"/>
        <pt x="524" y="-153" on="1"/>
        <pt x="526" y="-159" on="0"/>
        <pt x="527" y="-170" on="0"/>
      </contour>
    </TTGlyph>
    <TTGlyph name="Eogonek.sc" xMin="-50" yMin="-204" xMax="496" yMax="481">
      <component glyphName="eogonek.sc" x="0" y="0" flags="0x204"/>
    </TTGlyph>
    <TTGlyph name="Eogonek.sc_swa" xMin="-3" yMin="-204" xMax="420" yMax="497">
      <component glyphName="eogonek.sc_swa" x="0" y="0" flags="0x204"/>
    </TTGlyph>
    <TTGlyph name="Eogonek.swa" xMin="13" yMin="-204" xMax="583" yMax="701">
      <contour>
        <pt x="583" y="544" on="1"/>
        <pt x="583" y="507" on="0"/>
        <pt x="538" y="465" on="0"/>
        <pt x="503" y="465" on="1"/>
        <pt x="476" y="465" on="0"/>
        <pt x="444" y="500" on="0"/>
        <pt x="444" y="519" on="1"/>
        <pt x="444" y="534" on="0"/>
        <pt x="455" y="551" on="0"/>
        <pt x="469" y="563" on="0"/>
        <pt x="480" y="576" on="0"/>
        <pt x="480" y="587" on="1"/>
        <pt x="480" y="616" on="0"/>
        <pt x="432" y="653" on="0"/>
        <pt x="390" y="653" on="1"/>
        <pt x="340" y="653" on="0"/>
        <pt x="287" y="578" on="0"/>
        <pt x="287" y="514" on="1"/>
        <pt x="287" y="493" on="0"/>
        <pt x="295" y="458" on="0"/>
        <pt x="305" y="442" on="1"/>
        <pt x="325" y="450" on="0"/>
        <pt x="361" y="457" on="0"/>
        <pt x="387" y="457" on="1"/>
        <pt x="440" y="457" on="0"/>
        <pt x="497" y="412" on="0"/>
        <pt x="497" y="376" on="1"/>
        <pt x="497" y="362" on="0"/>
        <pt x="486" y="334" on="0"/>
        <pt x="461" y="312" on="0"/>
        <pt x="421" y="298" on="0"/>
        <pt x="393" y="298" on="1"/>
        <pt x="353" y="298" on="0"/>
        <pt x="286" y="326" on="0"/>
        <pt x="257" y="350" on="1"/>
        <pt x="227" y="322" on="0"/>
        <pt x="201" y="247" on="0"/>
        <pt x="201" y="184" on="1"/>
        <pt x="201" y="110" on="0"/>
        <pt x="283" y="23" on="0"/>
        <pt x="358" y="23" on="1"/>
        <pt x="384" y="23" on="0"/>
        <pt x="435" y="40" on="0"/>
        <pt x="475" y="70" on="0"/>
        <pt x="499" y="111" on="0"/>
        <pt x="499" y="134" on="1"/>
        <pt x="499" y="166" on="0"/>
        <pt x="470" y="210" on="0"/>
        <pt x="446" y="210" on="1"/>
        <pt x="421" y="210" on="0"/>
        <pt x="404" y="179" on="0"/>
        <pt x="404" y="147" on="1"/>
        <pt x="404" y="125" on="0"/>
        <pt x="374" y="92" on="0"/>
        <pt x="348" y="92" on="1"/>
        <pt x="315" y="92" on="0"/>
        <pt x="283" y="127" on="0"/>
        <pt x="283" y="156" on="1"/>
        <pt x="283" y="174" on="0"/>
        <pt x="301" y="211" on="0"/>
        <pt x="338" y="240" on="0"/>
        <pt x="393" y="258" on="0"/>
        <pt x="430" y="258" on="1"/>
        <pt x="494" y="258" on="0"/>
        <pt x="556" y="186" on="0"/>
        <pt x="556" y="134" on="1"/>
        <pt x="556" y="103" on="0"/>
        <pt x="524" y="46" on="0"/>
        <pt x="462" y="2" on="0"/>
        <pt x="374" y="-25" on="0"/>
        <pt x="317" y="-25" on="1"/>
        <pt x="306" y="-25" on="0"/>
        <pt x="287" y="-24" on="0"/>
        <pt x="278" y="-23" on="1"/>
        <pt x="260" y="-42" on="0"/>
        <pt x="239" y="-83" on="0"/>
        <pt x="239" y="-103" on="1"/>
        <pt x="239" y="-127" on="0"/>
        <pt x="268" y="-150" on="0"/>
        <pt x="288" y="-150" on="1"/>
        <pt x="308" y="-150" on="0"/>
        <pt x="327" y="-139" on="1"/>
        <pt x="330" y="-137" on="0"/>
        <pt x="337" y="-148" on="0"/>
        <pt x="339" y="-153" on="1"/>
        <pt x="341" y="-159" on="0"/>
        <pt x="342" y="-170" on="0"/>
        <pt x="340" y="-172" on="1"/>
        <pt x="326" y="-186" on="0"/>
        <pt x="285" y="-204" on="0"/>
        <pt x="259" y="-204" on="1"/>
        <pt x="211" y="-204" on="0"/>
        <pt x="146" y="-160" on="0"/>
        <pt x="146" y="-120" on="1"/>
        <pt x="146" y="-90" on="0"/>
        <pt x="181" y="-37" on="0"/>
        <pt x="209" y="-14" on="1"/>
        <pt x="114" y="6" on="0"/>
        <pt x="13" y="114" on="0"/>
        <pt x="13" y="190" on="1"/>
        <pt x="13" y="255" on="0"/>
        <pt x="102" y="366" on="0"/>
        <pt x="184" y="394" on="1"/>
        <pt x="153" y="419" on="0"/>
        <pt x="121" y="481" on="0"/>
        <pt x="121" y="513" on="1"/>
        <pt x="121" y="555" on="0"/>
        <pt x="159" y="625" on="0"/>
        <pt x="225" y="674" on="0"/>
        <pt x="317" y="701" on="0"/>
        <pt x="371" y="701" on="1"/>
        <pt x="416" y="701" on="0"/>
        <pt x="494" y="677" on="0"/>
        <pt x="551" y="635" on="0"/>
        <pt x="583" y="578" on="0"/>
      </contour>
      <contour>
        <pt x="440" y="377" on="1"/>
        <pt x="440" y="390" on="0"/>
        <pt x="414" y="408" on="0"/>
        <pt x="389" y="408" on="1"/>
        <pt x="369" y="408" on="0"/>
        <pt x="332" y="398" on="0"/>
        <pt x="316" y="387" on="1"/>
        <pt x="330" y="365" on="0"/>
        <pt x="372" y="347" on="0"/>
        <pt x="389" y="347" on="1"/>
        <pt x="414" y="347" on="0"/>
        <pt x="440" y="364" on="0"/>
      </contour>
    </TTGlyph>
    <TTGlyph name="Eth" xMin="17" yMin="-6" xMax="860" yMax="692">
      <contour>
        <pt x="860" y="415" on="1"/>
        <pt x="860" y="326" on="0"/>
        <pt x="786" y="173" on="0"/>
        <pt x="658" y="61" on="0"/>
        <pt x="489" y="-3" on="0"/>
        <pt x="393" y="-3" on="1"/>
        <pt x="376" y="-3" on="0"/>
        <pt x="335" y="-2" on="0"/>
        <pt x="291" y="-1" on="0"/>
        <pt x="248" y="0" on="0"/>
        <pt x="231" y="0" on="1"/>
        <pt x="214" y="0" on="0"/>
        <pt x="157" y="-1" on="0"/>
        <pt x="96" y="-3" on="0"/>
        <pt x="40" y="-4" on="0"/>
        <pt x="23" y="-5" on="1"/>
        <pt x="20" y="-6" on="0"/>
        <pt x="17" y="3" on="0"/>
        <pt x="17" y="8" on="1"/>
        <pt x="17" y="14" on="0"/>
        <pt x="28" y="38" on="0"/>
        <pt x="33" y="39" on="1"/>
        <pt x="62" y="42" on="0"/>
        <pt x="97" y="55" on="0"/>
        <pt x="118" y="76" on="0"/>
        <pt x="128" y="105" on="0"/>
        <pt x="133" y="123" on="1"/>
        <pt x="179" y="318" on="1"/>
        <pt x="74" y="314" on="1"/>
        <pt x="69" y="314" on="0"/>
        <pt x="62" y="339" on="0"/>
        <pt x="62" y="350" on="1"/>
        <pt x="62" y="360" on="0"/>
        <pt x="69" y="385" on="0"/>
        <pt x="74" y="385" on="1"/>
        <pt x="195" y="385" on="1"/>
        <pt x="238" y="562" on="1"/>
        <pt x="240" y="572" on="0"/>
        <pt x="243" y="588" on="0"/>
        <pt x="243" y="596" on="1"/>
        <pt x="243" y="606" on="0"/>
        <pt x="240" y="622" on="0"/>
        <pt x="226" y="634" on="0"/>
        <pt x="196" y="643" on="0"/>
        <pt x="170" y="646" on="1"/>
        <pt x="168" y="647" on="0"/>
        <pt x="165" y="660" on="0"/>
        <pt x="165" y="663" on="1"/>
        <pt x="165" y="674" on="0"/>
        <pt x="175" y="691" on="0"/>
        <pt x="180" y="690" on="1"/>
        <pt x="196" y="689" on="0"/>
        <pt x="246" y="689" on="0"/>
        <pt x="299" y="689" on="0"/>
        <pt x="349" y="689" on="0"/>
        <pt x="367" y="689" on="1"/>
        <pt x="402" y="689" on="0"/>
        <pt x="485" y="692" on="0"/>
        <pt x="518" y="692" on="1"/>
        <pt x="610" y="692" on="0"/>
        <pt x="740" y="648" on="0"/>
        <pt x="822" y="573" on="0"/>
        <pt x="860" y="472" on="0"/>
      </contour>
      <contour>
        <pt x="669" y="451" on="1"/>
        <pt x="669" y="486" on="0"/>
        <pt x="653" y="555" on="0"/>
        <pt x="615" y="610" on="0"/>
        <pt x="554" y="643" on="0"/>
        <pt x="509" y="643" on="1"/>
        <pt x="496" y="642" on="1"/>
        <pt x="476" y="641" on="0"/>
        <pt x="449" y="620" on="0"/>
        <pt x="440" y="583" on="1"/>
        <pt x="393" y="385" on="1"/>
        <pt x="476" y="385" on="1"/>
        <pt x="481" y="385" on="0"/>
        <pt x="488" y="360" on="0"/>
        <pt x="488" y="350" on="1"/>
        <pt x="488" y="339" on="0"/>
        <pt x="481" y="314" on="0"/>
        <pt x="476" y="314" on="1"/>
        <pt x="377" y="318" on="1"/>
        <pt x="327" y="106" on="1"/>
        <pt x="318" y="69" on="0"/>
        <pt x="335" y="48" on="0"/>
        <pt x="355" y="47" on="1"/>
        <pt x="381" y="46" on="1"/>
        <pt x="447" y="46" on="0"/>
        <pt x="553" y="111" on="0"/>
        <pt x="628" y="222" on="0"/>
        <pt x="669" y="369" on="0"/>
      </contour>
    </TTGlyph>
    <TTGlyph name="Eth.sc" xMin="6" yMin="-5" xMax="629" yMax="482">
      <component glyphName="dcroat.sc" x="0" y="0" flags="0x204"/>
    </TTGlyph>
    <TTGlyph name="Eth.swa" xMin="29" yMin="-6" xMax="1117" yMax="706">
      <contour>
        <pt x="1117" y="415" on="1"/>
        <pt x="1117" y="326" on="0"/>
        <pt x="1042" y="173" on="0"/>
        <pt x="915" y="61" on="0"/>
        <pt x="745" y="-3" on="0"/>
        <pt x="649" y="-3" on="1"/>
        <pt x="632" y="-3" on="0"/>
        <pt x="591" y="-2" on="0"/>
        <pt x="547" y="-1" on="0"/>
        <pt x="505" y="0" on="0"/>
        <pt x="487" y="0" on="1"/>
        <pt x="470" y="0" on="0"/>
        <pt x="413" y="-1" on="0"/>
        <pt x="352" y="-3" on="0"/>
        <pt x="296" y="-4" on="0"/>
        <pt x="279" y="-5" on="1"/>
        <pt x="276" y="-6" on="0"/>
        <pt x="273" y="3" on="0"/>
        <pt x="273" y="8" on="1"/>
        <pt x="273" y="14" on="0"/>
        <pt x="284" y="38" on="0"/>
        <pt x="289" y="39" on="1"/>
        <pt x="318" y="42" on="0"/>
        <pt x="353" y="55" on="0"/>
        <pt x="374" y="76" on="0"/>
        <pt x="384" y="105" on="0"/>
        <pt x="389" y="123" on="1"/>
        <pt x="436" y="318" on="1"/>
        <pt x="330" y="314" on="1"/>
        <pt x="325" y="314" on="0"/>
        <pt x="318" y="339" on="0"/>
        <pt x="318" y="350" on="1"/>
        <pt x="318" y="360" on="0"/>
        <pt x="325" y="385" on="0"/>
        <pt x="330" y="385" on="1"/>
        <pt x="452" y="385" on="1"/>
        <pt x="499" y="584" on="1"/>
        <pt x="507" y="616" on="0"/>
        <pt x="486" y="633" on="0"/>
        <pt x="469" y="633" on="1"/>
        <pt x="398" y="633" on="0"/>
        <pt x="262" y="597" on="0"/>
        <pt x="156" y="525" on="0"/>
        <pt x="91" y="420" on="0"/>
        <pt x="91" y="351" on="1"/>
        <pt x="91" y="333" on="0"/>
        <pt x="103" y="299" on="0"/>
        <pt x="124" y="272" on="0"/>
        <pt x="154" y="256" on="0"/>
        <pt x="172" y="256" on="1"/>
        <pt x="188" y="256" on="0"/>
        <pt x="206" y="275" on="0"/>
        <pt x="222" y="298" on="0"/>
        <pt x="241" y="317" on="0"/>
        <pt x="259" y="317" on="1"/>
        <pt x="290" y="317" on="0"/>
        <pt x="319" y="281" on="0"/>
        <pt x="319" y="253" on="1"/>
        <pt x="319" y="239" on="0"/>
        <pt x="304" y="209" on="0"/>
        <pt x="274" y="182" on="0"/>
        <pt x="232" y="165" on="0"/>
        <pt x="205" y="165" on="1"/>
        <pt x="164" y="165" on="0"/>
        <pt x="99" y="193" on="0"/>
        <pt x="53" y="243" on="0"/>
        <pt x="29" y="311" on="0"/>
        <pt x="29" y="351" on="1"/>
        <pt x="29" y="433" on="0"/>
        <pt x="121" y="565" on="0"/>
        <pt x="287" y="657" on="0"/>
        <pt x="521" y="706" on="0"/>
        <pt x="663" y="706" on="1"/>
        <pt x="797" y="706" on="0"/>
        <pt x="972" y="661" on="0"/>
        <pt x="1076" y="582" on="0"/>
        <pt x="1117" y="476" on="0"/>
      </contour>
      <contour>
        <pt x="925" y="451" on="1"/>
        <pt x="925" y="486" on="0"/>
        <pt x="909" y="555" on="0"/>
        <pt x="871" y="609" on="0"/>
        <pt x="810" y="643" on="0"/>
        <pt x="765" y="643" on="1"/>
        <pt x="733" y="643" on="0"/>
        <pt x="705" y="620" on="0"/>
        <pt x="696" y="583" on="1"/>
        <pt x="649" y="385" on="1"/>
        <pt x="732" y="385" on="1"/>
        <pt x="737" y="385" on="0"/>
        <pt x="744" y="360" on="0"/>
        <pt x="744" y="350" on="1"/>
        <pt x="744" y="339" on="0"/>
        <pt x="737" y="314" on="0"/>
        <pt x="732" y="314" on="1"/>
        <pt x="633" y="318" on="1"/>
        <pt x="583" y="106" on="1"/>
        <pt x="574" y="69" on="0"/>
        <pt x="591" y="48" on="0"/>
        <pt x="612" y="47" on="1"/>
        <pt x="637" y="46" on="1"/>
        <pt x="703" y="46" on="0"/>
        <pt x="809" y="111" on="0"/>
        <pt x="884" y="222" on="0"/>
        <pt x="925" y="369" on="0"/>
      </contour>
    </TTGlyph>
    <TTGlyph name="Euro" xMin="18" yMin="-21" xMax="714" yMax="637">
      <contour>
        <pt x="714" y="627" on="1"/>
        <pt x="711" y="607" on="0"/>
        <pt x="702" y="551" on="0"/>
        <pt x="693" y="492" on="0"/>
        <pt x="685" y="437" on="0"/>
        <pt x="683" y="418" on="1"/>
        <pt x="683" y="414" on="0"/>
        <pt x="667" y="410" on="0"/>
        <pt x="662" y="410" on="1"/>
        <pt x="656" y="410" on="0"/>
        <pt x="641" y="413" on="0"/>
        <pt x="641" y="418" on="1"/>
        <pt x="638" y="454" on="0"/>
        <pt x="626" y="515" on="0"/>
        <pt x="601" y="559" on="0"/>
        <pt x="562" y="584" on="0"/>
        <pt x="533" y="584" on="1"/>
        <pt x="475" y="584" on="0"/>
        <pt x="365" y="492" on="0"/>
        <pt x="327" y="414" on="1"/>
        <pt x="514" y="415" on="1"/>
        <pt x="519" y="415" on="0"/>
        <pt x="526" y="394" on="0"/>
        <pt x="526" y="382" on="1"/>
        <pt x="526" y="371" on="0"/>
        <pt x="520" y="349" on="0"/>
        <pt x="514" y="349" on="1"/>
        <pt x="302" y="350" on="1"/>
        <pt x="289" y="309" on="0"/>
        <pt x="284" y="260" on="1"/>
        <pt x="481" y="261" on="1"/>
        <pt x="485" y="261" on="0"/>
        <pt x="493" y="241" on="0"/>
        <pt x="493" y="228" on="1"/>
        <pt x="493" y="217" on="0"/>
        <pt x="488" y="195" on="0"/>
        <pt x="481" y="195" on="1"/>
        <pt x="281" y="196" on="1"/>
        <pt x="284" y="106" on="0"/>
        <pt x="359" y="26" on="0"/>
        <pt x="421" y="26" on="1"/>
        <pt x="452" y="26" on="0"/>
        <pt x="510" y="56" on="0"/>
        <pt x="560" y="108" on="0"/>
        <pt x="601" y="177" on="0"/>
        <pt x="616" y="215" on="1"/>
        <pt x="618" y="219" on="0"/>
        <pt x="631" y="222" on="0"/>
        <pt x="637" y="222" on="1"/>
        <pt x="644" y="222" on="0"/>
        <pt x="660" y="216" on="0"/>
        <pt x="659" y="213" on="1"/>
        <pt x="655" y="196" on="0"/>
        <pt x="642" y="142" on="0"/>
        <pt x="628" y="83" on="0"/>
        <pt x="616" y="27" on="0"/>
        <pt x="613" y="8" on="1"/>
        <pt x="597" y="4" on="0"/>
        <pt x="551" y="-6" on="0"/>
        <pt x="495" y="-15" on="0"/>
        <pt x="433" y="-21" on="0"/>
        <pt x="401" y="-21" on="1"/>
        <pt x="338" y="-21" on="0"/>
        <pt x="234" y="9" on="0"/>
        <pt x="156" y="66" on="0"/>
        <pt x="107" y="146" on="0"/>
        <pt x="100" y="196" on="1"/>
        <pt x="31" y="195" on="1"/>
        <pt x="26" y="195" on="0"/>
        <pt x="18" y="213" on="0"/>
        <pt x="18" y="228" on="1"/>
        <pt x="18" y="239" on="0"/>
        <pt x="25" y="261" on="0"/>
        <pt x="30" y="261" on="1"/>
        <pt x="97" y="260" on="1"/>
        <pt x="100" y="307" on="0"/>
        <pt x="115" y="350" on="1"/>
        <pt x="64" y="349" on="1"/>
        <pt x="59" y="349" on="0"/>
        <pt x="51" y="369" on="0"/>
        <pt x="51" y="382" on="1"/>
        <pt x="51" y="395" on="0"/>
        <pt x="58" y="415" on="0"/>
        <pt x="63" y="415" on="1"/>
        <pt x="145" y="414" on="1"/>
        <pt x="174" y="462" on="0"/>
        <pt x="261" y="544" on="0"/>
        <pt x="376" y="604" on="0"/>
        <pt x="518" y="637" on="0"/>
        <pt x="602" y="637" on="1"/>
        <pt x="631" y="637" on="0"/>
        <pt x="692" y="632" on="0"/>
      </contour>
    </TTGlyph>
    <TTGlyph name="Euro.lin" xMin="18" yMin="-21" xMax="777" yMax="706">
      <contour>
        <pt x="777" y="696" on="1"/>
        <pt x="773" y="675" on="0"/>
        <pt x="763" y="613" on="0"/>
        <pt x="753" y="547" on="0"/>
        <pt x="744" y="485" on="0"/>
        <pt x="741" y="465" on="1"/>
        <pt x="741" y="460" on="0"/>
        <pt x="724" y="456" on="0"/>
        <pt x="719" y="456" on="1"/>
        <pt x="713" y="456" on="0"/>
        <pt x="698" y="460" on="0"/>
        <pt x="697" y="465" on="1"/>
        <pt x="693" y="507" on="0"/>
        <pt x="679" y="575" on="0"/>
        <pt x="654" y="623" on="0"/>
        <pt x="614" y="650" on="0"/>
        <pt x="583" y="650" on="1"/>
        <pt x="552" y="650" on="0"/>
        <pt x="489" y="623" on="0"/>
        <pt x="428" y="572" on="0"/>
        <pt x="374" y="501" on="0"/>
        <pt x="352" y="458" on="1"/>
        <pt x="559" y="459" on="1"/>
        <pt x="564" y="459" on="0"/>
        <pt x="571" y="437" on="0"/>
        <pt x="571" y="424" on="1"/>
        <pt x="571" y="412" on="0"/>
        <pt x="565" y="389" on="0"/>
        <pt x="559" y="389" on="1"/>
        <pt x="323" y="390" on="1"/>
        <pt x="308" y="344" on="0"/>
        <pt x="302" y="291" on="1"/>
        <pt x="525" y="292" on="1"/>
        <pt x="529" y="292" on="0"/>
        <pt x="537" y="271" on="0"/>
        <pt x="537" y="257" on="1"/>
        <pt x="537" y="246" on="0"/>
        <pt x="532" y="222" on="0"/>
        <pt x="525" y="222" on="1"/>
        <pt x="298" y="223" on="1"/>
        <pt x="299" y="172" on="0"/>
        <pt x="322" y="98" on="0"/>
        <pt x="363" y="50" on="0"/>
        <pt x="419" y="27" on="0"/>
        <pt x="452" y="27" on="1"/>
        <pt x="488" y="27" on="0"/>
        <pt x="554" y="61" on="0"/>
        <pt x="611" y="119" on="0"/>
        <pt x="658" y="194" on="0"/>
        <pt x="675" y="236" on="1"/>
        <pt x="677" y="241" on="0"/>
        <pt x="693" y="244" on="0"/>
        <pt x="699" y="244" on="1"/>
        <pt x="706" y="244" on="0"/>
        <pt x="721" y="239" on="0"/>
        <pt x="719" y="236" on="1"/>
        <pt x="714" y="218" on="0"/>
        <pt x="700" y="158" on="0"/>
        <pt x="685" y="92" on="0"/>
        <pt x="672" y="30" on="0"/>
        <pt x="668" y="10" on="1"/>
        <pt x="653" y="6" on="0"/>
        <pt x="604" y="-5" on="0"/>
        <pt x="543" y="-14" on="0"/>
        <pt x="474" y="-21" on="0"/>
        <pt x="438" y="-21" on="1"/>
        <pt x="370" y="-21" on="0"/>
        <pt x="257" y="13" on="0"/>
        <pt x="172" y="76" on="0"/>
        <pt x="118" y="167" on="0"/>
        <pt x="110" y="223" on="1"/>
        <pt x="31" y="222" on="1"/>
        <pt x="26" y="222" on="0"/>
        <pt x="18" y="241" on="0"/>
        <pt x="18" y="257" on="1"/>
        <pt x="18" y="270" on="0"/>
        <pt x="25" y="292" on="0"/>
        <pt x="30" y="292" on="1"/>
        <pt x="108" y="291" on="1"/>
        <pt x="110" y="316" on="0"/>
        <pt x="119" y="366" on="0"/>
        <pt x="127" y="390" on="1"/>
        <pt x="65" y="389" on="1"/>
        <pt x="60" y="389" on="0"/>
        <pt x="52" y="410" on="0"/>
        <pt x="52" y="424" on="1"/>
        <pt x="52" y="437" on="0"/>
        <pt x="59" y="459" on="0"/>
        <pt x="64" y="459" on="1"/>
        <pt x="158" y="458" on="1"/>
        <pt x="188" y="512" on="0"/>
        <pt x="282" y="603" on="0"/>
        <pt x="409" y="669" on="0"/>
        <pt x="569" y="706" on="0"/>
        <pt x="665" y="706" on="1"/>
        <pt x="695" y="706" on="0"/>
        <pt x="754" y="701" on="0"/>
      </contour>
    </TTGlyph>
    <TTGlyph name="Euro.sc" xMin="18" yMin="-21" xMax="582" yMax="494">
      <contour>
        <pt x="582" y="484" on="1"/>
        <pt x="577" y="444" on="0"/>
        <pt x="566" y="356" on="0"/>
        <pt x="563" y="320" on="1"/>
        <pt x="563" y="317" on="0"/>
        <pt x="548" y="313" on="0"/>
        <pt x="543" y="313" on="1"/>
        <pt x="538" y="313" on="0"/>
        <pt x="523" y="316" on="0"/>
        <pt x="524" y="320" on="1"/>
        <pt x="524" y="344" on="0"/>
        <pt x="514" y="390" on="0"/>
        <pt x="491" y="424" on="0"/>
        <pt x="455" y="445" on="0"/>
        <pt x="430" y="445" on="1"/>
        <pt x="379" y="445" on="0"/>
        <pt x="302" y="379" on="0"/>
        <pt x="276" y="322" on="1"/>
        <pt x="421" y="323" on="1"/>
        <pt x="425" y="323" on="0"/>
        <pt x="433" y="305" on="0"/>
        <pt x="433" y="295" on="1"/>
        <pt x="433" y="287" on="0"/>
        <pt x="426" y="267" on="0"/>
        <pt x="421" y="267" on="1"/>
        <pt x="257" y="268" on="1"/>
        <pt x="249" y="231" on="0"/>
        <pt x="246" y="194" on="1"/>
        <pt x="390" y="195" on="1"/>
        <pt x="395" y="195" on="0"/>
        <pt x="402" y="177" on="0"/>
        <pt x="402" y="167" on="1"/>
        <pt x="402" y="159" on="0"/>
        <pt x="396" y="138" on="0"/>
        <pt x="390" y="138" on="1"/>
        <pt x="246" y="139" on="1"/>
        <pt x="251" y="78" on="0"/>
        <pt x="306" y="23" on="0"/>
        <pt x="357" y="23" on="1"/>
        <pt x="403" y="23" on="0"/>
        <pt x="472" y="108" on="0"/>
        <pt x="495" y="171" on="1"/>
        <pt x="496" y="177" on="0"/>
        <pt x="508" y="177" on="1"/>
        <pt x="516" y="177" on="0"/>
        <pt x="534" y="167" on="0"/>
        <pt x="533" y="164" on="1"/>
        <pt x="530" y="149" on="0"/>
        <pt x="520" y="108" on="0"/>
        <pt x="510" y="64" on="0"/>
        <pt x="501" y="21" on="0"/>
        <pt x="498" y="4" on="1"/>
        <pt x="464" y="-5" on="0"/>
        <pt x="374" y="-21" on="0"/>
        <pt x="323" y="-21" on="1"/>
        <pt x="220" y="-21" on="0"/>
        <pt x="94" y="67" on="0"/>
        <pt x="78" y="139" on="1"/>
        <pt x="31" y="138" on="1"/>
        <pt x="27" y="138" on="0"/>
        <pt x="18" y="153" on="0"/>
        <pt x="18" y="167" on="1"/>
        <pt x="18" y="176" on="0"/>
        <pt x="25" y="195" on="0"/>
        <pt x="30" y="195" on="1"/>
        <pt x="74" y="194" on="1"/>
        <pt x="76" y="213" on="0"/>
        <pt x="84" y="250" on="0"/>
        <pt x="90" y="268" on="1"/>
        <pt x="62" y="267" on="1"/>
        <pt x="56" y="267" on="0"/>
        <pt x="49" y="284" on="0"/>
        <pt x="49" y="295" on="1"/>
        <pt x="49" y="306" on="0"/>
        <pt x="57" y="323" on="0"/>
        <pt x="61" y="323" on="1"/>
        <pt x="120" y="322" on="1"/>
        <pt x="145" y="359" on="0"/>
        <pt x="218" y="423" on="0"/>
        <pt x="308" y="468" on="0"/>
        <pt x="413" y="494" on="0"/>
        <pt x="472" y="494" on="1"/>
        <pt x="498" y="494" on="0"/>
        <pt x="563" y="489" on="0"/>
      </contour>
    </TTGlyph>
    <TTGlyph name="F" xMin="-61" yMin="-5" xMax="665" yMax="691">
      <contour>
        <pt x="665" y="690" on="1"/>
        <pt x="664" y="684" on="0"/>
        <pt x="662" y="656" on="0"/>
        <pt x="660" y="626" on="0"/>
        <pt x="658" y="597" on="0"/>
        <pt x="658" y="589" on="1"/>
        <pt x="656" y="563" on="0"/>
        <pt x="653" y="495" on="0"/>
        <pt x="654" y="467" on="1"/>
        <pt x="654" y="464" on="0"/>
        <pt x="638" y="459" on="0"/>
        <pt x="632" y="459" on="1"/>
        <pt x="626" y="459" on="0"/>
        <pt x="610" y="464" on="0"/>
        <pt x="610" y="467" on="1"/>
        <pt x="608" y="497" on="0"/>
        <pt x="587" y="557" on="0"/>
        <pt x="549" y="605" on="0"/>
        <pt x="493" y="636" on="0"/>
        <pt x="457" y="636" on="1"/>
        <pt x="441" y="636" on="1"/>
        <pt x="431" y="636" on="0"/>
        <pt x="409" y="631" on="0"/>
        <pt x="389" y="618" on="0"/>
        <pt x="372" y="595" on="0"/>
        <pt x="368" y="577" on="1"/>
        <pt x="320" y="374" on="1"/>
        <pt x="367" y="374" on="1"/>
        <pt x="418" y="374" on="0"/>
        <pt x="477" y="412" on="0"/>
        <pt x="495" y="463" on="1"/>
        <pt x="497" y="466" on="0"/>
        <pt x="512" y="471" on="0"/>
        <pt x="517" y="471" on="1"/>
        <pt x="525" y="471" on="0"/>
        <pt x="541" y="467" on="0"/>
        <pt x="540" y="463" on="1"/>
        <pt x="535" y="444" on="0"/>
        <pt x="528" y="416" on="0"/>
        <pt x="521" y="392" on="0"/>
        <pt x="514" y="366" on="0"/>
        <pt x="510" y="348" on="1"/>
        <pt x="502" y="313" on="0"/>
        <pt x="492" y="255" on="0"/>
        <pt x="483" y="218" on="1"/>
        <pt x="481" y="213" on="0"/>
        <pt x="466" y="210" on="0"/>
        <pt x="461" y="210" on="1"/>
        <pt x="452" y="210" on="0"/>
        <pt x="438" y="215" on="0"/>
        <pt x="439" y="218" on="1"/>
        <pt x="446" y="277" on="0"/>
        <pt x="399" y="326" on="0"/>
        <pt x="355" y="326" on="1"/>
        <pt x="309" y="326" on="1"/>
        <pt x="260" y="123" on="1"/>
        <pt x="255" y="101" on="0"/>
        <pt x="255" y="89" on="1"/>
        <pt x="255" y="78" on="0"/>
        <pt x="259" y="62" on="0"/>
        <pt x="275" y="50" on="0"/>
        <pt x="306" y="42" on="0"/>
        <pt x="332" y="39" on="1"/>
        <pt x="335" y="38" on="0"/>
        <pt x="337" y="26" on="0"/>
        <pt x="337" y="22" on="1"/>
        <pt x="337" y="15" on="0"/>
        <pt x="331" y="-5" on="0"/>
        <pt x="326" y="-5" on="1"/>
        <pt x="275" y="-5" on="0"/>
        <pt x="173" y="0" on="0"/>
        <pt x="132" y="0" on="1"/>
        <pt x="93" y="0" on="0"/>
        <pt x="-11" y="-5" on="0"/>
        <pt x="-56" y="-5" on="1"/>
        <pt x="-58" y="-5" on="0"/>
        <pt x="-61" y="6" on="0"/>
        <pt x="-61" y="12" on="1"/>
        <pt x="-61" y="18" on="0"/>
        <pt x="-54" y="38" on="0"/>
        <pt x="-49" y="39" on="1"/>
        <pt x="-19" y="42" on="0"/>
        <pt x="19" y="51" on="0"/>
        <pt x="43" y="69" on="0"/>
        <pt x="56" y="99" on="0"/>
        <pt x="62" y="123" on="1"/>
        <pt x="167" y="562" on="1"/>
        <pt x="169" y="572" on="0"/>
        <pt x="172" y="588" on="0"/>
        <pt x="172" y="596" on="1"/>
        <pt x="172" y="606" on="0"/>
        <pt x="168" y="622" on="0"/>
        <pt x="152" y="634" on="0"/>
        <pt x="121" y="643" on="0"/>
        <pt x="95" y="646" on="1"/>
        <pt x="93" y="647" on="0"/>
        <pt x="90" y="660" on="0"/>
        <pt x="90" y="663" on="1"/>
        <pt x="90" y="670" on="0"/>
        <pt x="97" y="691" on="0"/>
        <pt x="102" y="690" on="1"/>
        <pt x="115" y="689" on="0"/>
        <pt x="160" y="688" on="0"/>
        <pt x="215" y="687" on="0"/>
        <pt x="275" y="686" on="0"/>
        <pt x="331" y="685" on="0"/>
        <pt x="377" y="685" on="0"/>
        <pt x="391" y="685" on="1"/>
        <pt x="411" y="685" on="0"/>
        <pt x="487" y="686" on="0"/>
        <pt x="570" y="687" on="0"/>
        <pt x="645" y="689" on="0"/>
      </contour>
    </TTGlyph>
    <TTGlyph name="F.sc" xMin="-50" yMin="-5" xMax="492" yMax="481">
      <component glyphName="f.sc" x="0" y="0" flags="0x204"/>
    </TTGlyph>
    <TTGlyph name="F.swa" xMin="-161" yMin="-279" xMax="913" yMax="802">
      <contour>
        <pt x="913" y="671" on="1"/>
        <pt x="913" y="629" on="0"/>
        <pt x="880" y="559" on="0"/>
        <pt x="822" y="508" on="0"/>
        <pt x="742" y="480" on="0"/>
        <pt x="694" y="480" on="1"/>
        <pt x="652" y="480" on="0"/>
        <pt x="563" y="502" on="0"/>
        <pt x="525" y="519" on="1"/>
        <pt x="476" y="300" on="1"/>
        <pt x="547" y="300" on="1"/>
        <pt x="598" y="300" on="0"/>
        <pt x="658" y="338" on="0"/>
        <pt x="676" y="388" on="1"/>
        <pt x="677" y="392" on="0"/>
        <pt x="692" y="396" on="0"/>
        <pt x="698" y="396" on="1"/>
        <pt x="705" y="396" on="0"/>
        <pt x="721" y="392" on="0"/>
        <pt x="720" y="388" on="1"/>
        <pt x="715" y="369" on="0"/>
        <pt x="708" y="342" on="0"/>
        <pt x="701" y="318" on="0"/>
        <pt x="694" y="292" on="0"/>
        <pt x="690" y="274" on="1"/>
        <pt x="682" y="239" on="0"/>
        <pt x="672" y="181" on="0"/>
        <pt x="663" y="144" on="1"/>
        <pt x="661" y="139" on="0"/>
        <pt x="646" y="136" on="0"/>
        <pt x="641" y="136" on="1"/>
        <pt x="632" y="136" on="0"/>
        <pt x="618" y="141" on="0"/>
        <pt x="619" y="144" on="1"/>
        <pt x="626" y="203" on="0"/>
        <pt x="580" y="252" on="0"/>
        <pt x="535" y="252" on="1"/>
        <pt x="465" y="252" on="1"/>
        <pt x="427" y="99" on="1"/>
        <pt x="404" y="3" on="0"/>
        <pt x="321" y="-139" on="0"/>
        <pt x="211" y="-233" on="0"/>
        <pt x="82" y="-279" on="0"/>
        <pt x="15" y="-279" on="1"/>
        <pt x="-69" y="-279" on="0"/>
        <pt x="-161" y="-220" on="0"/>
        <pt x="-161" y="-175" on="1"/>
        <pt x="-161" y="-133" on="0"/>
        <pt x="-111" y="-81" on="0"/>
        <pt x="-70" y="-81" on="1"/>
        <pt x="-37" y="-81" on="0"/>
        <pt x="-1" y="-121" on="0"/>
        <pt x="24" y="-168" on="0"/>
        <pt x="47" y="-208" on="0"/>
        <pt x="67" y="-208" on="1"/>
        <pt x="83" y="-208" on="0"/>
        <pt x="120" y="-189" on="0"/>
        <pt x="159" y="-130" on="0"/>
        <pt x="201" y="-20" on="0"/>
        <pt x="223" y="71" on="1"/>
        <pt x="341" y="572" on="1"/>
        <pt x="322" y="577" on="0"/>
        <pt x="285" y="584" on="0"/>
        <pt x="266" y="584" on="1"/>
        <pt x="191" y="584" on="0"/>
        <pt x="113" y="540" on="0"/>
        <pt x="113" y="496" on="1"/>
        <pt x="113" y="461" on="0"/>
        <pt x="145" y="431" on="0"/>
        <pt x="183" y="412" on="0"/>
        <pt x="215" y="386" on="0"/>
        <pt x="215" y="355" on="1"/>
        <pt x="215" y="324" on="0"/>
        <pt x="165" y="277" on="0"/>
        <pt x="127" y="277" on="1"/>
        <pt x="76" y="277" on="0"/>
        <pt x="15" y="346" on="0"/>
        <pt x="15" y="412" on="1"/>
        <pt x="15" y="463" on="0"/>
        <pt x="65" y="567" on="0"/>
        <pt x="150" y="649" on="0"/>
        <pt x="264" y="701" on="0"/>
        <pt x="328" y="701" on="1"/>
        <pt x="410" y="701" on="0"/>
        <pt x="538" y="664" on="0"/>
        <pt x="646" y="621" on="0"/>
        <pt x="742" y="584" on="0"/>
        <pt x="793" y="584" on="1"/>
        <pt x="837" y="584" on="0"/>
        <pt x="837" y="626" on="1"/>
        <pt x="837" y="640" on="0"/>
        <pt x="813" y="660" on="0"/>
        <pt x="784" y="680" on="0"/>
        <pt x="760" y="705" on="0"/>
        <pt x="760" y="726" on="1"/>
        <pt x="760" y="756" on="0"/>
        <pt x="802" y="802" on="0"/>
        <pt x="833" y="802" on="1"/>
        <pt x="870" y="802" on="0"/>
        <pt x="913" y="737" on="0"/>
      </contour>
    </TTGlyph>
    <TTGlyph name="G" xMin="18" yMin="-21" xMax="759" yMax="706">
      <contour>
        <pt x="759" y="315" on="1"/>
        <pt x="759" y="308" on="0"/>
        <pt x="752" y="289" on="0"/>
        <pt x="747" y="288" on="1"/>
        <pt x="724" y="285" on="0"/>
        <pt x="695" y="275" on="0"/>
        <pt x="676" y="256" on="0"/>
        <pt x="664" y="226" on="0"/>
        <pt x="659" y="204" on="1"/>
        <pt x="644" y="138" on="1"/>
        <pt x="636" y="105" on="0"/>
        <pt x="627" y="47" on="0"/>
        <pt x="629" y="33" on="1"/>
        <pt x="570" y="11" on="0"/>
        <pt x="423" y="-21" on="0"/>
        <pt x="334" y="-21" on="1"/>
        <pt x="270" y="-21" on="0"/>
        <pt x="155" y="19" on="0"/>
        <pt x="69" y="94" on="0"/>
        <pt x="18" y="200" on="0"/>
        <pt x="18" y="266" on="1"/>
        <pt x="18" y="353" on="0"/>
        <pt x="93" y="512" on="0"/>
        <pt x="235" y="633" on="0"/>
        <pt x="443" y="706" on="0"/>
        <pt x="576" y="706" on="1"/>
        <pt x="591" y="706" on="0"/>
        <pt x="629" y="705" on="0"/>
        <pt x="667" y="702" on="0"/>
        <pt x="701" y="698" on="0"/>
        <pt x="712" y="696" on="1"/>
        <pt x="708" y="675" on="0"/>
        <pt x="698" y="611" on="0"/>
        <pt x="688" y="542" on="0"/>
        <pt x="680" y="477" on="0"/>
        <pt x="677" y="457" on="1"/>
        <pt x="676" y="452" on="0"/>
        <pt x="660" y="448" on="0"/>
        <pt x="654" y="448" on="1"/>
        <pt x="649" y="448" on="0"/>
        <pt x="633" y="452" on="0"/>
        <pt x="633" y="457" on="1"/>
        <pt x="624" y="547" on="0"/>
        <pt x="570" y="652" on="0"/>
        <pt x="510" y="652" on="1"/>
        <pt x="461" y="652" on="0"/>
        <pt x="355" y="587" on="0"/>
        <pt x="266" y="473" on="0"/>
        <pt x="209" y="319" on="0"/>
        <pt x="209" y="231" on="1"/>
        <pt x="209" y="177" on="0"/>
        <pt x="234" y="100" on="0"/>
        <pt x="274" y="50" on="0"/>
        <pt x="323" y="27" on="0"/>
        <pt x="348" y="27" on="1"/>
        <pt x="403" y="27" on="0"/>
        <pt x="451" y="64" on="0"/>
        <pt x="461" y="106" on="1"/>
        <pt x="487" y="215" on="1"/>
        <pt x="490" y="225" on="0"/>
        <pt x="490" y="233" on="1"/>
        <pt x="490" y="259" on="0"/>
        <pt x="460" y="284" on="0"/>
        <pt x="415" y="288" on="1"/>
        <pt x="413" y="289" on="0"/>
        <pt x="410" y="301" on="0"/>
        <pt x="410" y="305" on="1"/>
        <pt x="410" y="312" on="0"/>
        <pt x="417" y="332" on="0"/>
        <pt x="422" y="332" on="1"/>
        <pt x="447" y="332" on="0"/>
        <pt x="488" y="330" on="0"/>
        <pt x="526" y="328" on="0"/>
        <pt x="566" y="326" on="0"/>
        <pt x="589" y="326" on="1"/>
        <pt x="612" y="326" on="0"/>
        <pt x="651" y="328" on="0"/>
        <pt x="689" y="330" on="0"/>
        <pt x="729" y="332" on="0"/>
        <pt x="754" y="332" on="1"/>
        <pt x="756" y="332" on="0"/>
        <pt x="759" y="321" on="0"/>
      </contour>
    </TTGlyph>
    <TTGlyph name="G.sc" xMin="-12" yMin="-18" xMax="558" yMax="497">
      <component glyphName="g.sc" x="0" y="0" flags="0x204"/>
    </TTGlyph>
    <TTGlyph name="G.swa" xMin="18" yMin="-290" xMax="759" yMax="706">
      <contour>
        <pt x="759" y="314" on="1"/>
        <pt x="759" y="308" on="0"/>
        <pt x="752" y="288" on="0"/>
        <pt x="747" y="287" on="1"/>
        <pt x="724" y="284" on="0"/>
        <pt x="695" y="275" on="0"/>
        <pt x="676" y="256" on="0"/>
        <pt x="664" y="226" on="0"/>
        <pt x="659" y="203" on="1"/>
        <pt x="624" y="57" on="1"/>
        <pt x="608" y="-14" on="0"/>
        <pt x="551" y="-140" on="0"/>
        <pt x="464" y="-234" on="0"/>
        <pt x="343" y="-290" on="0"/>
        <pt x="263" y="-290" on="1"/>
        <pt x="179" y="-290" on="0"/>
        <pt x="87" y="-231" on="0"/>
        <pt x="87" y="-186" on="1"/>
        <pt x="87" y="-144" on="0"/>
        <pt x="137" y="-92" on="0"/>
        <pt x="178" y="-92" on="1"/>
        <pt x="200" y="-92" on="0"/>
        <pt x="230" y="-112" on="0"/>
        <pt x="251" y="-142" on="0"/>
        <pt x="267" y="-177" on="0"/>
        <pt x="283" y="-207" on="0"/>
        <pt x="302" y="-227" on="0"/>
        <pt x="315" y="-227" on="1"/>
        <pt x="330" y="-227" on="0"/>
        <pt x="357" y="-213" on="0"/>
        <pt x="385" y="-168" on="0"/>
        <pt x="415" y="-83" on="0"/>
        <pt x="433" y="-11" on="1"/>
        <pt x="410" y="-18" on="0"/>
        <pt x="360" y="-22" on="0"/>
        <pt x="334" y="-22" on="1"/>
        <pt x="270" y="-22" on="0"/>
        <pt x="155" y="19" on="0"/>
        <pt x="69" y="94" on="0"/>
        <pt x="18" y="200" on="0"/>
        <pt x="18" y="266" on="1"/>
        <pt x="18" y="353" on="0"/>
        <pt x="93" y="512" on="0"/>
        <pt x="235" y="633" on="0"/>
        <pt x="443" y="706" on="0"/>
        <pt x="576" y="706" on="1"/>
        <pt x="591" y="706" on="0"/>
        <pt x="629" y="705" on="0"/>
        <pt x="667" y="702" on="0"/>
        <pt x="701" y="698" on="0"/>
        <pt x="712" y="696" on="1"/>
        <pt x="708" y="675" on="0"/>
        <pt x="698" y="611" on="0"/>
        <pt x="688" y="542" on="0"/>
        <pt x="680" y="477" on="0"/>
        <pt x="677" y="457" on="1"/>
        <pt x="676" y="452" on="0"/>
        <pt x="660" y="448" on="0"/>
        <pt x="654" y="448" on="1"/>
        <pt x="649" y="448" on="0"/>
        <pt x="633" y="452" on="0"/>
        <pt x="633" y="457" on="1"/>
        <pt x="624" y="547" on="0"/>
        <pt x="570" y="652" on="0"/>
        <pt x="510" y="652" on="1"/>
        <pt x="461" y="652" on="0"/>
        <pt x="355" y="587" on="0"/>
        <pt x="266" y="473" on="0"/>
        <pt x="209" y="319" on="0"/>
        <pt x="209" y="231" on="1"/>
        <pt x="209" y="177" on="0"/>
        <pt x="234" y="100" on="0"/>
        <pt x="274" y="50" on="0"/>
        <pt x="323" y="27" on="0"/>
        <pt x="348" y="27" on="1"/>
        <pt x="403" y="27" on="0"/>
        <pt x="451" y="63" on="0"/>
        <pt x="461" y="105" on="1"/>
        <pt x="487" y="214" on="1"/>
        <pt x="490" y="224" on="0"/>
        <pt x="490" y="233" on="1"/>
        <pt x="490" y="258" on="0"/>
        <pt x="460" y="283" on="0"/>
        <pt x="415" y="287" on="1"/>
        <pt x="413" y="288" on="0"/>
        <pt x="410" y="301" on="0"/>
        <pt x="410" y="304" on="1"/>
        <pt x="410" y="311" on="0"/>
        <pt x="417" y="332" on="0"/>
        <pt x="422" y="332" on="1"/>
        <pt x="447" y="332" on="0"/>
        <pt x="488" y="330" on="0"/>
        <pt x="526" y="328" on="0"/>
        <pt x="566" y="326" on="0"/>
        <pt x="589" y="326" on="1"/>
        <pt x="612" y="326" on="0"/>
        <pt x="651" y="328" on="0"/>
        <pt x="689" y="330" on="0"/>
        <pt x="729" y="332" on="0"/>
        <pt x="754" y="332" on="1"/>
        <pt x="756" y="332" on="0"/>
        <pt x="759" y="320" on="0"/>
      </contour>
    </TTGlyph>
    <TTGlyph name="Gbreve" xMin="18" yMin="-21" xMax="759" yMax="971">
      <component glyphName="G" x="0" y="0" flags="0x204"/>
      <component glyphName="breve.cap" x="272" y="15" flags="0x4"/>
    </TTGlyph>
    <TTGlyph name="Gbreve.sc" xMin="-12" yMin="-18" xMax="558" yMax="738">
      <component glyphName="g.sc" x="0" y="0" flags="0x204"/>
      <component glyphName="breve" x="146" y="25" flags="0x4"/>
    </TTGlyph>
    <TTGlyph name="Gbreve.swa" xMin="18" yMin="-290" xMax="759" yMax="971">
      <component glyphName="G.swa" x="0" y="0" flags="0x204"/>
      <component glyphName="breve.cap" x="284" y="15" flags="0x4"/>
    </TTGlyph>
    <TTGlyph name="Gcommaaccent" xMin="18" yMin="-352" xMax="759" yMax="706">
      <component glyphName="G" x="0" y="0" flags="0x204"/>
      <component glyphName="commaaccent" x="162" y="-14" flags="0x4"/>
    </TTGlyph>
    <TTGlyph name="Gcommaaccent.sc" xMin="-12" yMin="-347" xMax="558" yMax="497">
      <component glyphName="g.sc" x="0" y="0" flags="0x204"/>
      <component glyphName="commaaccent" x="79" y="-9" flags="0x4"/>
    </TTGlyph>
    <TTGlyph name="Gdotaccent" xMin="18" yMin="-21" xMax="759" yMax="959">
      <component glyphName="G" x="0" y="0" flags="0x204"/>
      <component glyphName="dotaccent.cap" x="248" y="15" flags="0x4"/>
    </TTGlyph>
    <TTGlyph name="Gdotaccent.sc" xMin="-12" yMin="-18" xMax="558" yMax="746">
      <component glyphName="g.sc" x="0" y="0" flags="0x204"/>
      <component glyphName="dotaccent" x="161" y="25" flags="0x4"/>
    </TTGlyph>
    <TTGlyph name="Gdotaccent.swa" xMin="18" yMin="-290" xMax="759" yMax="959">
      <component glyphName="G.swa" x="0" y="0" flags="0x204"/>
      <component glyphName="dotaccent.cap" x="260" y="15" flags="0x4"/>
    </TTGlyph>
    <TTGlyph name="H" xMin="-54" yMin="-5" xMax="912" yMax="690">
      <contour>
        <pt x="912" y="677" on="1"/>
        <pt x="912" y="671" on="0"/>
        <pt x="901" y="647" on="0"/>
        <pt x="896" y="646" on="1"/>
        <pt x="866" y="643" on="0"/>
        <pt x="832" y="631" on="0"/>
        <pt x="812" y="611" on="0"/>
        <pt x="802" y="582" on="0"/>
        <pt x="797" y="562" on="1"/>
        <pt x="692" y="123" on="1"/>
        <pt x="687" y="101" on="0"/>
        <pt x="687" y="89" on="1"/>
        <pt x="687" y="78" on="0"/>
        <pt x="690" y="62" on="0"/>
        <pt x="704" y="50" on="0"/>
        <pt x="734" y="42" on="0"/>
        <pt x="760" y="39" on="1"/>
        <pt x="762" y="38" on="0"/>
        <pt x="765" y="26" on="0"/>
        <pt x="765" y="22" on="1"/>
        <pt x="765" y="15" on="0"/>
        <pt x="754" y="-5" on="0"/>
        <pt x="749" y="-5" on="1"/>
        <pt x="699" y="-5" on="0"/>
        <pt x="604" y="0" on="0"/>
        <pt x="564" y="0" on="1"/>
        <pt x="525" y="0" on="0"/>
        <pt x="441" y="-5" on="0"/>
        <pt x="396" y="-5" on="1"/>
        <pt x="394" y="-5" on="0"/>
        <pt x="391" y="6" on="0"/>
        <pt x="391" y="12" on="1"/>
        <pt x="391" y="18" on="0"/>
        <pt x="402" y="38" on="0"/>
        <pt x="407" y="39" on="1"/>
        <pt x="432" y="42" on="0"/>
        <pt x="463" y="55" on="0"/>
        <pt x="481" y="76" on="0"/>
        <pt x="490" y="105" on="0"/>
        <pt x="495" y="123" on="1"/>
        <pt x="541" y="321" on="1"/>
        <pt x="307" y="321" on="1"/>
        <pt x="260" y="123" on="1"/>
        <pt x="258" y="113" on="0"/>
        <pt x="254" y="96" on="0"/>
        <pt x="254" y="89" on="1"/>
        <pt x="254" y="78" on="0"/>
        <pt x="253" y="62" on="0"/>
        <pt x="263" y="50" on="0"/>
        <pt x="289" y="42" on="0"/>
        <pt x="315" y="39" on="1"/>
        <pt x="318" y="38" on="0"/>
        <pt x="320" y="26" on="0"/>
        <pt x="320" y="22" on="1"/>
        <pt x="320" y="15" on="0"/>
        <pt x="310" y="-5" on="0"/>
        <pt x="305" y="-5" on="1"/>
        <pt x="254" y="-5" on="0"/>
        <pt x="172" y="0" on="0"/>
        <pt x="131" y="0" on="1"/>
        <pt x="92" y="0" on="0"/>
        <pt x="-3" y="-5" on="0"/>
        <pt x="-48" y="-5" on="1"/>
        <pt x="-50" y="-5" on="0"/>
        <pt x="-54" y="6" on="0"/>
        <pt x="-54" y="12" on="1"/>
        <pt x="-54" y="18" on="0"/>
        <pt x="-43" y="38" on="0"/>
        <pt x="-38" y="39" on="1"/>
        <pt x="-8" y="42" on="0"/>
        <pt x="27" y="54" on="0"/>
        <pt x="47" y="74" on="0"/>
        <pt x="57" y="103" on="0"/>
        <pt x="62" y="123" on="1"/>
        <pt x="166" y="562" on="1"/>
        <pt x="168" y="572" on="0"/>
        <pt x="172" y="588" on="0"/>
        <pt x="172" y="596" on="1"/>
        <pt x="172" y="606" on="0"/>
        <pt x="169" y="622" on="0"/>
        <pt x="155" y="634" on="0"/>
        <pt x="125" y="643" on="0"/>
        <pt x="99" y="646" on="1"/>
        <pt x="96" y="647" on="0"/>
        <pt x="94" y="660" on="0"/>
        <pt x="94" y="663" on="1"/>
        <pt x="94" y="670" on="0"/>
        <pt x="104" y="690" on="0"/>
        <pt x="109" y="690" on="1"/>
        <pt x="159" y="690" on="0"/>
        <pt x="254" y="685" on="0"/>
        <pt x="294" y="685" on="1"/>
        <pt x="333" y="685" on="0"/>
        <pt x="417" y="690" on="0"/>
        <pt x="462" y="690" on="1"/>
        <pt x="468" y="690" on="0"/>
        <pt x="468" y="677" on="1"/>
        <pt x="468" y="671" on="0"/>
        <pt x="457" y="647" on="0"/>
        <pt x="452" y="646" on="1"/>
        <pt x="427" y="643" on="0"/>
        <pt x="396" y="630" on="0"/>
        <pt x="378" y="609" on="0"/>
        <pt x="368" y="580" on="0"/>
        <pt x="364" y="562" on="1"/>
        <pt x="318" y="370" on="1"/>
        <pt x="553" y="370" on="1"/>
        <pt x="599" y="562" on="1"/>
        <pt x="601" y="572" on="0"/>
        <pt x="604" y="588" on="0"/>
        <pt x="604" y="596" on="1"/>
        <pt x="604" y="608" on="0"/>
        <pt x="600" y="625" on="0"/>
        <pt x="587" y="637" on="0"/>
        <pt x="563" y="644" on="0"/>
        <pt x="543" y="646" on="1"/>
        <pt x="541" y="647" on="0"/>
        <pt x="538" y="660" on="0"/>
        <pt x="538" y="663" on="1"/>
        <pt x="538" y="670" on="0"/>
        <pt x="549" y="690" on="0"/>
        <pt x="554" y="690" on="1"/>
        <pt x="604" y="690" on="0"/>
        <pt x="686" y="685" on="0"/>
        <pt x="727" y="685" on="1"/>
        <pt x="766" y="685" on="0"/>
        <pt x="862" y="690" on="0"/>
        <pt x="907" y="690" on="1"/>
        <pt x="912" y="690" on="0"/>
      </contour>
    </TTGlyph>
    <TTGlyph name="H.sc" xMin="-49" yMin="-5" xMax="681" yMax="481">
      <component glyphName="h.sc" x="0" y="0" flags="0x204"/>
    </TTGlyph>
    <TTGlyph name="H.swa" xMin="-103" yMin="-95" xMax="1278" yMax="739">
      <contour>
        <pt x="1278" y="615" on="1"/>
        <pt x="1278" y="579" on="0"/>
        <pt x="1231" y="529" on="0"/>
        <pt x="1190" y="529" on="1"/>
        <pt x="1167" y="529" on="0"/>
        <pt x="1138" y="551" on="0"/>
        <pt x="1119" y="583" on="0"/>
        <pt x="1106" y="622" on="0"/>
        <pt x="1093" y="654" on="0"/>
        <pt x="1076" y="676" on="0"/>
        <pt x="1062" y="676" on="1"/>
        <pt x="1043" y="676" on="0"/>
        <pt x="1004" y="660" on="0"/>
        <pt x="964" y="601" on="0"/>
        <pt x="920" y="487" on="0"/>
        <pt x="897" y="390" on="1"/>
        <pt x="834" y="123" on="1"/>
        <pt x="829" y="101" on="0"/>
        <pt x="829" y="89" on="1"/>
        <pt x="829" y="78" on="0"/>
        <pt x="832" y="62" on="0"/>
        <pt x="846" y="50" on="0"/>
        <pt x="875" y="42" on="0"/>
        <pt x="902" y="39" on="1"/>
        <pt x="904" y="38" on="0"/>
        <pt x="907" y="26" on="0"/>
        <pt x="907" y="22" on="1"/>
        <pt x="907" y="15" on="0"/>
        <pt x="896" y="-5" on="0"/>
        <pt x="891" y="-5" on="1"/>
        <pt x="841" y="-5" on="0"/>
        <pt x="746" y="0" on="0"/>
        <pt x="706" y="0" on="1"/>
        <pt x="667" y="0" on="0"/>
        <pt x="567" y="-5" on="0"/>
        <pt x="522" y="-5" on="1"/>
        <pt x="520" y="-5" on="0"/>
        <pt x="517" y="6" on="0"/>
        <pt x="517" y="12" on="1"/>
        <pt x="517" y="18" on="0"/>
        <pt x="528" y="38" on="0"/>
        <pt x="533" y="39" on="1"/>
        <pt x="562" y="42" on="0"/>
        <pt x="598" y="55" on="0"/>
        <pt x="620" y="76" on="0"/>
        <pt x="632" y="105" on="0"/>
        <pt x="636" y="123" on="1"/>
        <pt x="683" y="321" on="1"/>
        <pt x="488" y="321" on="1"/>
        <pt x="478" y="283" on="1"/>
        <pt x="454" y="183" on="0"/>
        <pt x="376" y="40" on="0"/>
        <pt x="272" y="-52" on="0"/>
        <pt x="141" y="-95" on="0"/>
        <pt x="65" y="-95" on="1"/>
        <pt x="25" y="-95" on="0"/>
        <pt x="-38" y="-76" on="0"/>
        <pt x="-81" y="-46" on="0"/>
        <pt x="-103" y="-9" on="0"/>
        <pt x="-103" y="9" on="1"/>
        <pt x="-103" y="25" on="0"/>
        <pt x="-92" y="56" on="0"/>
        <pt x="-70" y="80" on="0"/>
        <pt x="-38" y="95" on="0"/>
        <pt x="-17" y="95" on="1"/>
        <pt x="9" y="95" on="0"/>
        <pt x="48" y="54" on="0"/>
        <pt x="82" y="5" on="0"/>
        <pt x="112" y="-36" on="0"/>
        <pt x="129" y="-36" on="1"/>
        <pt x="151" y="-36" on="0"/>
        <pt x="185" y="-14" on="0"/>
        <pt x="217" y="50" on="0"/>
        <pt x="251" y="163" on="0"/>
        <pt x="273" y="255" on="1"/>
        <pt x="346" y="559" on="1"/>
        <pt x="329" y="559" on="0"/>
        <pt x="286" y="567" on="0"/>
        <pt x="235" y="578" on="0"/>
        <pt x="179" y="586" on="0"/>
        <pt x="149" y="586" on="1"/>
        <pt x="108" y="586" on="0"/>
        <pt x="81" y="561" on="0"/>
        <pt x="81" y="533" on="1"/>
        <pt x="81" y="517" on="0"/>
        <pt x="105" y="494" on="0"/>
        <pt x="134" y="473" on="0"/>
        <pt x="158" y="448" on="0"/>
        <pt x="158" y="431" on="1"/>
        <pt x="158" y="396" on="0"/>
        <pt x="123" y="354" on="0"/>
        <pt x="86" y="354" on="1"/>
        <pt x="71" y="354" on="0"/>
        <pt x="34" y="367" on="0"/>
        <pt x="3" y="394" on="0"/>
        <pt x="-18" y="436" on="0"/>
        <pt x="-18" y="464" on="1"/>
        <pt x="-18" y="505" on="0"/>
        <pt x="28" y="590" on="0"/>
        <pt x="108" y="660" on="0"/>
        <pt x="216" y="704" on="0"/>
        <pt x="279" y="704" on="1"/>
        <pt x="301" y="704" on="0"/>
        <pt x="350" y="698" on="0"/>
        <pt x="399" y="691" on="0"/>
        <pt x="448" y="685" on="0"/>
        <pt x="471" y="685" on="1"/>
        <pt x="494" y="685" on="0"/>
        <pt x="524" y="689" on="0"/>
        <pt x="547" y="690" on="1"/>
        <pt x="560" y="691" on="0"/>
        <pt x="572" y="670" on="0"/>
        <pt x="569" y="658" on="1"/>
        <pt x="500" y="370" on="1"/>
        <pt x="695" y="370" on="1"/>
        <pt x="719" y="472" on="0"/>
        <pt x="811" y="613" on="0"/>
        <pt x="928" y="700" on="0"/>
        <pt x="1058" y="739" on="0"/>
        <pt x="1121" y="739" on="1"/>
        <pt x="1157" y="739" on="0"/>
        <pt x="1216" y="717" on="0"/>
        <pt x="1256" y="682" on="0"/>
        <pt x="1278" y="637" on="0"/>
      </contour>
    </TTGlyph>
    <TTGlyph name="H.swa2" xMin="-96" yMin="-95" xMax="1406" yMax="739">
      <contour>
        <pt x="1406" y="615" on="1"/>
        <pt x="1406" y="579" on="0"/>
        <pt x="1359" y="529" on="0"/>
        <pt x="1318" y="529" on="1"/>
        <pt x="1295" y="529" on="0"/>
        <pt x="1266" y="551" on="0"/>
        <pt x="1247" y="583" on="0"/>
        <pt x="1234" y="622" on="0"/>
        <pt x="1221" y="654" on="0"/>
        <pt x="1204" y="676" on="0"/>
        <pt x="1190" y="676" on="1"/>
        <pt x="1171" y="676" on="0"/>
        <pt x="1132" y="660" on="0"/>
        <pt x="1092" y="601" on="0"/>
        <pt x="1048" y="487" on="0"/>
        <pt x="1025" y="390" on="1"/>
        <pt x="962" y="123" on="1"/>
        <pt x="957" y="101" on="0"/>
        <pt x="957" y="89" on="1"/>
        <pt x="957" y="78" on="0"/>
        <pt x="960" y="62" on="0"/>
        <pt x="974" y="50" on="0"/>
        <pt x="1004" y="42" on="0"/>
        <pt x="1030" y="39" on="1"/>
        <pt x="1032" y="38" on="0"/>
        <pt x="1035" y="26" on="0"/>
        <pt x="1035" y="22" on="1"/>
        <pt x="1035" y="15" on="0"/>
        <pt x="1024" y="-5" on="0"/>
        <pt x="1019" y="-5" on="1"/>
        <pt x="969" y="-5" on="0"/>
        <pt x="874" y="0" on="0"/>
        <pt x="834" y="0" on="1"/>
        <pt x="795" y="0" on="0"/>
        <pt x="695" y="-5" on="0"/>
        <pt x="650" y="-5" on="1"/>
        <pt x="648" y="-5" on="0"/>
        <pt x="645" y="6" on="0"/>
        <pt x="645" y="12" on="1"/>
        <pt x="645" y="18" on="0"/>
        <pt x="656" y="38" on="0"/>
        <pt x="661" y="39" on="1"/>
        <pt x="690" y="42" on="0"/>
        <pt x="726" y="55" on="0"/>
        <pt x="748" y="76" on="0"/>
        <pt x="760" y="105" on="0"/>
        <pt x="764" y="123" on="1"/>
        <pt x="811" y="321" on="1"/>
        <pt x="625" y="321" on="1"/>
        <pt x="602" y="223" on="0"/>
        <pt x="519" y="69" on="0"/>
        <pt x="402" y="-38" on="0"/>
        <pt x="251" y="-95" on="0"/>
        <pt x="159" y="-95" on="1"/>
        <pt x="99" y="-95" on="0"/>
        <pt x="5" y="-62" on="0"/>
        <pt x="-61" y="-4" on="0"/>
        <pt x="-96" y="74" on="0"/>
        <pt x="-96" y="118" on="1"/>
        <pt x="-96" y="156" on="0"/>
        <pt x="-65" y="229" on="0"/>
        <pt x="-10" y="286" on="0"/>
        <pt x="65" y="321" on="0"/>
        <pt x="108" y="321" on="1"/>
        <pt x="139" y="321" on="0"/>
        <pt x="197" y="298" on="0"/>
        <pt x="241" y="260" on="0"/>
        <pt x="267" y="210" on="0"/>
        <pt x="267" y="182" on="1"/>
        <pt x="267" y="163" on="0"/>
        <pt x="253" y="117" on="0"/>
        <pt x="228" y="76" on="0"/>
        <pt x="191" y="49" on="0"/>
        <pt x="167" y="49" on="1"/>
        <pt x="132" y="49" on="0"/>
        <pt x="96" y="89" on="0"/>
        <pt x="96" y="115" on="1"/>
        <pt x="96" y="136" on="0"/>
        <pt x="121" y="159" on="0"/>
        <pt x="152" y="176" on="0"/>
        <pt x="177" y="194" on="0"/>
        <pt x="177" y="211" on="1"/>
        <pt x="177" y="237" on="0"/>
        <pt x="137" y="273" on="0"/>
        <pt x="108" y="273" on="1"/>
        <pt x="84" y="273" on="0"/>
        <pt x="40" y="252" on="0"/>
        <pt x="7" y="213" on="0"/>
        <pt x="-12" y="160" on="0"/>
        <pt x="-12" y="127" on="1"/>
        <pt x="-12" y="67" on="0"/>
        <pt x="74" y="-15" on="0"/>
        <pt x="159" y="-15" on="1"/>
        <pt x="204" y="-15" on="0"/>
        <pt x="280" y="11" on="0"/>
        <pt x="343" y="74" on="0"/>
        <pt x="392" y="178" on="0"/>
        <pt x="411" y="255" on="1"/>
        <pt x="489" y="580" on="1"/>
        <pt x="454" y="581" on="0"/>
        <pt x="400" y="595" on="0"/>
        <pt x="350" y="610" on="0"/>
        <pt x="300" y="622" on="0"/>
        <pt x="270" y="622" on="1"/>
        <pt x="216" y="622" on="0"/>
        <pt x="147" y="557" on="0"/>
        <pt x="147" y="491" on="1"/>
        <pt x="147" y="461" on="0"/>
        <pt x="186" y="425" on="0"/>
        <pt x="218" y="425" on="1"/>
        <pt x="234" y="425" on="0"/>
        <pt x="252" y="447" on="0"/>
        <pt x="268" y="473" on="0"/>
        <pt x="287" y="495" on="0"/>
        <pt x="305" y="495" on="1"/>
        <pt x="332" y="495" on="0"/>
        <pt x="365" y="460" on="0"/>
        <pt x="365" y="431" on="1"/>
        <pt x="365" y="416" on="0"/>
        <pt x="353" y="388" on="0"/>
        <pt x="328" y="365" on="0"/>
        <pt x="287" y="351" on="0"/>
        <pt x="259" y="351" on="1"/>
        <pt x="228" y="351" on="0"/>
        <pt x="168" y="371" on="0"/>
        <pt x="120" y="407" on="0"/>
        <pt x="91" y="459" on="0"/>
        <pt x="91" y="491" on="1"/>
        <pt x="91" y="534" on="0"/>
        <pt x="136" y="612" on="0"/>
        <pt x="215" y="670" on="0"/>
        <pt x="323" y="704" on="0"/>
        <pt x="387" y="704" on="1"/>
        <pt x="413" y="704" on="0"/>
        <pt x="472" y="698" on="0"/>
        <pt x="531" y="691" on="0"/>
        <pt x="586" y="685" on="0"/>
        <pt x="609" y="685" on="1"/>
        <pt x="622" y="685" on="0"/>
        <pt x="641" y="686" on="0"/>
        <pt x="657" y="688" on="0"/>
        <pt x="674" y="690" on="0"/>
        <pt x="685" y="690" on="1"/>
        <pt x="698" y="691" on="0"/>
        <pt x="709" y="670" on="0"/>
        <pt x="706" y="658" on="1"/>
        <pt x="636" y="370" on="1"/>
        <pt x="823" y="370" on="1"/>
        <pt x="847" y="472" on="0"/>
        <pt x="940" y="613" on="0"/>
        <pt x="1056" y="700" on="0"/>
        <pt x="1187" y="739" on="0"/>
        <pt x="1250" y="739" on="1"/>
        <pt x="1286" y="739" on="0"/>
        <pt x="1344" y="717" on="0"/>
        <pt x="1384" y="682" on="0"/>
        <pt x="1406" y="637" on="0"/>
      </contour>
    </TTGlyph>
    <TTGlyph name="Hbar" xMin="-54" yMin="-5" xMax="912" yMax="690">
      <contour>
        <pt x="912" y="677" on="1"/>
        <pt x="912" y="671" on="0"/>
        <pt x="901" y="647" on="0"/>
        <pt x="896" y="646" on="1"/>
        <pt x="866" y="643" on="0"/>
        <pt x="832" y="631" on="0"/>
        <pt x="812" y="611" on="0"/>
        <pt x="802" y="582" on="0"/>
        <pt x="797" y="562" on="1"/>
        <pt x="792" y="543" on="1"/>
        <pt x="890" y="543" on="1"/>
        <pt x="896" y="543" on="0"/>
        <pt x="903" y="528" on="0"/>
        <pt x="903" y="517" on="1"/>
        <pt x="903" y="491" on="0"/>
        <pt x="890" y="491" on="1"/>
        <pt x="780" y="491" on="1"/>
        <pt x="692" y="123" on="1"/>
        <pt x="687" y="101" on="0"/>
        <pt x="687" y="89" on="1"/>
        <pt x="687" y="78" on="0"/>
        <pt x="690" y="62" on="0"/>
        <pt x="704" y="50" on="0"/>
        <pt x="734" y="42" on="0"/>
        <pt x="760" y="39" on="1"/>
        <pt x="762" y="38" on="0"/>
        <pt x="765" y="26" on="0"/>
        <pt x="765" y="22" on="1"/>
        <pt x="765" y="15" on="0"/>
        <pt x="754" y="-5" on="0"/>
        <pt x="749" y="-5" on="1"/>
        <pt x="699" y="-5" on="0"/>
        <pt x="604" y="0" on="0"/>
        <pt x="564" y="0" on="1"/>
        <pt x="525" y="0" on="0"/>
        <pt x="441" y="-5" on="0"/>
        <pt x="396" y="-5" on="1"/>
        <pt x="394" y="-5" on="0"/>
        <pt x="391" y="6" on="0"/>
        <pt x="391" y="12" on="1"/>
        <pt x="391" y="18" on="0"/>
        <pt x="402" y="38" on="0"/>
        <pt x="407" y="39" on="1"/>
        <pt x="432" y="42" on="0"/>
        <pt x="463" y="55" on="0"/>
        <pt x="481" y="76" on="0"/>
        <pt x="490" y="105" on="0"/>
        <pt x="495" y="123" on="1"/>
        <pt x="541" y="321" on="1"/>
        <pt x="307" y="321" on="1"/>
        <pt x="260" y="123" on="1"/>
        <pt x="258" y="113" on="0"/>
        <pt x="254" y="96" on="0"/>
        <pt x="254" y="89" on="1"/>
        <pt x="254" y="78" on="0"/>
        <pt x="253" y="62" on="0"/>
        <pt x="263" y="50" on="0"/>
        <pt x="289" y="42" on="0"/>
        <pt x="315" y="39" on="1"/>
        <pt x="318" y="38" on="0"/>
        <pt x="320" y="26" on="0"/>
        <pt x="320" y="22" on="1"/>
        <pt x="320" y="15" on="0"/>
        <pt x="310" y="-5" on="0"/>
        <pt x="305" y="-5" on="1"/>
        <pt x="254" y="-5" on="0"/>
        <pt x="172" y="0" on="0"/>
        <pt x="131" y="0" on="1"/>
        <pt x="92" y="0" on="0"/>
        <pt x="-3" y="-5" on="0"/>
        <pt x="-48" y="-5" on="1"/>
        <pt x="-50" y="-5" on="0"/>
        <pt x="-54" y="6" on="0"/>
        <pt x="-54" y="12" on="1"/>
        <pt x="-54" y="18" on="0"/>
        <pt x="-43" y="38" on="0"/>
        <pt x="-38" y="39" on="1"/>
        <pt x="-8" y="42" on="0"/>
        <pt x="27" y="54" on="0"/>
        <pt x="47" y="74" on="0"/>
        <pt x="57" y="103" on="0"/>
        <pt x="62" y="123" on="1"/>
        <pt x="149" y="491" on="1"/>
        <pt x="50" y="491" on="1"/>
        <pt x="38" y="491" on="0"/>
        <pt x="38" y="517" on="1"/>
        <pt x="38" y="528" on="0"/>
        <pt x="45" y="543" on="0"/>
        <pt x="50" y="543" on="1"/>
        <pt x="161" y="543" on="1"/>
        <pt x="166" y="562" on="1"/>
        <pt x="168" y="572" on="0"/>
        <pt x="172" y="588" on="0"/>
        <pt x="172" y="596" on="1"/>
        <pt x="172" y="606" on="0"/>
        <pt x="169" y="622" on="0"/>
        <pt x="155" y="634" on="0"/>
        <pt x="125" y="643" on="0"/>
        <pt x="99" y="646" on="1"/>
        <pt x="96" y="647" on="0"/>
        <pt x="94" y="660" on="0"/>
        <pt x="94" y="663" on="1"/>
        <pt x="94" y="670" on="0"/>
        <pt x="104" y="690" on="0"/>
        <pt x="109" y="690" on="1"/>
        <pt x="159" y="690" on="0"/>
        <pt x="254" y="685" on="0"/>
        <pt x="294" y="685" on="1"/>
        <pt x="333" y="685" on="0"/>
        <pt x="417" y="690" on="0"/>
        <pt x="462" y="690" on="1"/>
        <pt x="468" y="690" on="0"/>
        <pt x="468" y="677" on="1"/>
        <pt x="468" y="671" on="0"/>
        <pt x="457" y="647" on="0"/>
        <pt x="452" y="646" on="1"/>
        <pt x="427" y="643" on="0"/>
        <pt x="396" y="630" on="0"/>
        <pt x="378" y="609" on="0"/>
        <pt x="368" y="580" on="0"/>
        <pt x="364" y="562" on="1"/>
        <pt x="359" y="542" on="1"/>
        <pt x="594" y="542" on="1"/>
        <pt x="599" y="562" on="1"/>
        <pt x="601" y="572" on="0"/>
        <pt x="604" y="588" on="0"/>
        <pt x="604" y="596" on="1"/>
        <pt x="604" y="608" on="0"/>
        <pt x="600" y="625" on="0"/>
        <pt x="587" y="637" on="0"/>
        <pt x="563" y="644" on="0"/>
        <pt x="543" y="646" on="1"/>
        <pt x="541" y="647" on="0"/>
        <pt x="538" y="660" on="0"/>
        <pt x="538" y="663" on="1"/>
        <pt x="538" y="670" on="0"/>
        <pt x="549" y="690" on="0"/>
        <pt x="554" y="690" on="1"/>
        <pt x="604" y="690" on="0"/>
        <pt x="686" y="685" on="0"/>
        <pt x="727" y="685" on="1"/>
        <pt x="766" y="685" on="0"/>
        <pt x="862" y="690" on="0"/>
        <pt x="907" y="690" on="1"/>
        <pt x="912" y="690" on="0"/>
      </contour>
      <contour>
        <pt x="553" y="370" on="1"/>
        <pt x="582" y="492" on="1"/>
        <pt x="347" y="492" on="1"/>
        <pt x="318" y="370" on="1"/>
      </contour>
    </TTGlyph>
    <TTGlyph name="Hbar.sc" xMin="-49" yMin="-5" xMax="681" yMax="481">
      <component glyphName="hbar.sc" x="0" y="0" flags="0x204"/>
    </TTGlyph>
    <TTGlyph name="Hbar.swa" xMin="-103" yMin="-95" xMax="1278" yMax="739">
      <contour>
        <pt x="1278" y="615" on="1"/>
        <pt x="1278" y="579" on="0"/>
        <pt x="1231" y="529" on="0"/>
        <pt x="1190" y="529" on="1"/>
        <pt x="1167" y="529" on="0"/>
        <pt x="1138" y="551" on="0"/>
        <pt x="1119" y="583" on="0"/>
        <pt x="1106" y="622" on="0"/>
        <pt x="1093" y="654" on="0"/>
        <pt x="1076" y="676" on="0"/>
        <pt x="1062" y="676" on="1"/>
        <pt x="1046" y="676" on="0"/>
        <pt x="1013" y="665" on="0"/>
        <pt x="978" y="627" on="0"/>
        <pt x="943" y="553" on="0"/>
        <pt x="924" y="491" on="1"/>
        <pt x="1043" y="491" on="1"/>
        <pt x="1049" y="491" on="0"/>
        <pt x="1056" y="476" on="0"/>
        <pt x="1056" y="465" on="1"/>
        <pt x="1056" y="439" on="0"/>
        <pt x="1043" y="439" on="1"/>
        <pt x="909" y="439" on="1"/>
        <pt x="897" y="390" on="1"/>
        <pt x="834" y="123" on="1"/>
        <pt x="829" y="101" on="0"/>
        <pt x="829" y="89" on="1"/>
        <pt x="829" y="78" on="0"/>
        <pt x="832" y="62" on="0"/>
        <pt x="846" y="50" on="0"/>
        <pt x="875" y="42" on="0"/>
        <pt x="902" y="39" on="1"/>
        <pt x="904" y="38" on="0"/>
        <pt x="907" y="26" on="0"/>
        <pt x="907" y="22" on="1"/>
        <pt x="907" y="15" on="0"/>
        <pt x="896" y="-5" on="0"/>
        <pt x="891" y="-5" on="1"/>
        <pt x="841" y="-5" on="0"/>
        <pt x="746" y="0" on="0"/>
        <pt x="706" y="0" on="1"/>
        <pt x="667" y="0" on="0"/>
        <pt x="567" y="-5" on="0"/>
        <pt x="522" y="-5" on="1"/>
        <pt x="520" y="-5" on="0"/>
        <pt x="517" y="6" on="0"/>
        <pt x="517" y="12" on="1"/>
        <pt x="517" y="18" on="0"/>
        <pt x="528" y="38" on="0"/>
        <pt x="533" y="39" on="1"/>
        <pt x="562" y="42" on="0"/>
        <pt x="598" y="55" on="0"/>
        <pt x="620" y="76" on="0"/>
        <pt x="632" y="105" on="0"/>
        <pt x="636" y="123" on="1"/>
        <pt x="683" y="321" on="1"/>
        <pt x="488" y="321" on="1"/>
        <pt x="478" y="283" on="1"/>
        <pt x="454" y="183" on="0"/>
        <pt x="376" y="40" on="0"/>
        <pt x="272" y="-52" on="0"/>
        <pt x="141" y="-95" on="0"/>
        <pt x="65" y="-95" on="1"/>
        <pt x="25" y="-95" on="0"/>
        <pt x="-38" y="-76" on="0"/>
        <pt x="-81" y="-46" on="0"/>
        <pt x="-103" y="-9" on="0"/>
        <pt x="-103" y="9" on="1"/>
        <pt x="-103" y="25" on="0"/>
        <pt x="-92" y="56" on="0"/>
        <pt x="-70" y="80" on="0"/>
        <pt x="-38" y="95" on="0"/>
        <pt x="-17" y="95" on="1"/>
        <pt x="9" y="95" on="0"/>
        <pt x="48" y="54" on="0"/>
        <pt x="82" y="5" on="0"/>
        <pt x="112" y="-36" on="0"/>
        <pt x="129" y="-36" on="1"/>
        <pt x="151" y="-36" on="0"/>
        <pt x="185" y="-14" on="0"/>
        <pt x="217" y="50" on="0"/>
        <pt x="251" y="163" on="0"/>
        <pt x="273" y="255" on="1"/>
        <pt x="317" y="439" on="1"/>
        <pt x="220" y="439" on="1"/>
        <pt x="208" y="439" on="0"/>
        <pt x="208" y="465" on="1"/>
        <pt x="208" y="476" on="0"/>
        <pt x="215" y="491" on="0"/>
        <pt x="220" y="491" on="1"/>
        <pt x="329" y="491" on="1"/>
        <pt x="346" y="559" on="1"/>
        <pt x="329" y="559" on="0"/>
        <pt x="286" y="567" on="0"/>
        <pt x="235" y="578" on="0"/>
        <pt x="179" y="586" on="0"/>
        <pt x="149" y="586" on="1"/>
        <pt x="108" y="586" on="0"/>
        <pt x="81" y="561" on="0"/>
        <pt x="81" y="533" on="1"/>
        <pt x="81" y="517" on="0"/>
        <pt x="105" y="494" on="0"/>
        <pt x="134" y="473" on="0"/>
        <pt x="158" y="448" on="0"/>
        <pt x="158" y="431" on="1"/>
        <pt x="158" y="396" on="0"/>
        <pt x="123" y="354" on="0"/>
        <pt x="86" y="354" on="1"/>
        <pt x="71" y="354" on="0"/>
        <pt x="34" y="367" on="0"/>
        <pt x="3" y="394" on="0"/>
        <pt x="-18" y="436" on="0"/>
        <pt x="-18" y="464" on="1"/>
        <pt x="-18" y="505" on="0"/>
        <pt x="28" y="590" on="0"/>
        <pt x="108" y="660" on="0"/>
        <pt x="216" y="704" on="0"/>
        <pt x="279" y="704" on="1"/>
        <pt x="301" y="704" on="0"/>
        <pt x="350" y="698" on="0"/>
        <pt x="399" y="691" on="0"/>
        <pt x="448" y="685" on="0"/>
        <pt x="471" y="685" on="1"/>
        <pt x="494" y="685" on="0"/>
        <pt x="524" y="689" on="0"/>
        <pt x="547" y="690" on="1"/>
        <pt x="560" y="691" on="0"/>
        <pt x="572" y="670" on="0"/>
        <pt x="569" y="658" on="1"/>
        <pt x="529" y="490" on="1"/>
        <pt x="736" y="490" on="1"/>
        <pt x="768" y="558" on="0"/>
        <pt x="857" y="653" on="0"/>
        <pt x="959" y="712" on="0"/>
        <pt x="1068" y="739" on="0"/>
        <pt x="1121" y="739" on="1"/>
        <pt x="1157" y="739" on="0"/>
        <pt x="1216" y="717" on="0"/>
        <pt x="1256" y="682" on="0"/>
        <pt x="1278" y="637" on="0"/>
      </contour>
      <contour>
        <pt x="695" y="370" on="1"/>
        <pt x="700" y="388" on="0"/>
        <pt x="709" y="423" on="0"/>
        <pt x="715" y="440" on="1"/>
        <pt x="517" y="440" on="1"/>
        <pt x="500" y="370" on="1"/>
      </contour>
    </TTGlyph>
    <TTGlyph name="I" xMin="-23" yMin="-5" xMax="510" yMax="690">
      <contour>
        <pt x="510" y="677" on="1"/>
        <pt x="510" y="671" on="0"/>
        <pt x="499" y="647" on="0"/>
        <pt x="494" y="646" on="1"/>
        <pt x="464" y="643" on="0"/>
        <pt x="429" y="631" on="0"/>
        <pt x="409" y="611" on="0"/>
        <pt x="399" y="582" on="0"/>
        <pt x="394" y="562" on="1"/>
        <pt x="290" y="123" on="1"/>
        <pt x="285" y="101" on="0"/>
        <pt x="285" y="89" on="1"/>
        <pt x="285" y="78" on="0"/>
        <pt x="288" y="62" on="0"/>
        <pt x="302" y="50" on="0"/>
        <pt x="331" y="42" on="0"/>
        <pt x="358" y="39" on="1"/>
        <pt x="360" y="38" on="0"/>
        <pt x="363" y="26" on="0"/>
        <pt x="363" y="22" on="1"/>
        <pt x="363" y="15" on="0"/>
        <pt x="352" y="-5" on="0"/>
        <pt x="347" y="-5" on="1"/>
        <pt x="297" y="-5" on="0"/>
        <pt x="202" y="0" on="0"/>
        <pt x="162" y="0" on="1"/>
        <pt x="123" y="0" on="0"/>
        <pt x="27" y="-5" on="0"/>
        <pt x="-18" y="-5" on="1"/>
        <pt x="-20" y="-5" on="0"/>
        <pt x="-23" y="6" on="0"/>
        <pt x="-23" y="12" on="1"/>
        <pt x="-23" y="18" on="0"/>
        <pt x="-12" y="38" on="0"/>
        <pt x="-7" y="39" on="1"/>
        <pt x="23" y="42" on="0"/>
        <pt x="57" y="54" on="0"/>
        <pt x="77" y="74" on="0"/>
        <pt x="87" y="103" on="0"/>
        <pt x="92" y="123" on="1"/>
        <pt x="197" y="562" on="1"/>
        <pt x="199" y="572" on="0"/>
        <pt x="202" y="588" on="0"/>
        <pt x="202" y="596" on="1"/>
        <pt x="202" y="606" on="0"/>
        <pt x="199" y="622" on="0"/>
        <pt x="185" y="634" on="0"/>
        <pt x="155" y="643" on="0"/>
        <pt x="129" y="646" on="1"/>
        <pt x="127" y="647" on="0"/>
        <pt x="124" y="660" on="0"/>
        <pt x="124" y="663" on="1"/>
        <pt x="124" y="670" on="0"/>
        <pt x="134" y="690" on="0"/>
        <pt x="139" y="690" on="1"/>
        <pt x="189" y="690" on="0"/>
        <pt x="284" y="685" on="0"/>
        <pt x="324" y="685" on="1"/>
        <pt x="364" y="685" on="0"/>
        <pt x="459" y="690" on="0"/>
        <pt x="504" y="690" on="1"/>
        <pt x="510" y="690" on="0"/>
      </contour>
    </TTGlyph>
    <TTGlyph name="I.sc" xMin="-49" yMin="-5" xMax="349" yMax="481">
      <component glyphName="i.sc" x="0" y="0" flags="0x204"/>
    </TTGlyph>
    <TTGlyph name="Iacute" xMin="-23" yMin="-5" xMax="537" yMax="991">
      <component glyphName="I" x="0" y="0" flags="0x204"/>
      <component glyphName="acute.cap" x="139" y="0" flags="0x4"/>
    </TTGlyph>
    <TTGlyph name="Iacute.sc" xMin="-49" yMin="-5" xMax="413" yMax="776">
      <component glyphName="i.sc" x="0" y="0" flags="0x204"/>
      <component glyphName="acute" x="59" y="15" flags="0x4"/>
    </TTGlyph>
    <TTGlyph name="Ibreve" xMin="-23" yMin="-5" xMax="552" yMax="956">
      <component glyphName="I" x="0" y="0" flags="0x204"/>
      <component glyphName="breve.cap" x="114" y="0" flags="0x4"/>
    </TTGlyph>
    <TTGlyph name="Ibreve.sc" xMin="-49" yMin="-5" xMax="422" yMax="728">
      <component glyphName="i.sc" x="0" y="0" flags="0x204"/>
      <component glyphName="breve" x="14" y="15" flags="0x4"/>
    </TTGlyph>
    <TTGlyph name="Icircumflex" xMin="-23" yMin="-5" xMax="545" yMax="962">
      <component glyphName="I" x="0" y="0" flags="0x204"/>
      <component glyphName="circumflex.cap" x="102" y="0" flags="0x4"/>
    </TTGlyph>
    <TTGlyph name="Icircumflex.sc" xMin="-49" yMin="-5" xMax="395" yMax="761">
      <component glyphName="i.sc" x="0" y="0" flags="0x204"/>
      <component glyphName="circumflex" x="31" y="15" flags="0x4"/>
    </TTGlyph>
    <TTGlyph name="Idieresis" xMin="-23" yMin="-5" xMax="579" yMax="944">
      <component glyphName="I" x="0" y="0" flags="0x204"/>
      <component glyphName="dieresis.cap" x="81" y="0" flags="0x4"/>
    </TTGlyph>
    <TTGlyph name="Idieresis.sc" xMin="-49" yMin="-5" xMax="443" yMax="736">
      <component glyphName="i.sc" x="0" y="0" flags="0x204"/>
      <component glyphName="dieresis" x="12" y="15" flags="0x4"/>
    </TTGlyph>
    <TTGlyph name="Idotaccent" xMin="-23" yMin="-5" xMax="510" yMax="944">
      <component glyphName="I" x="0" y="0" flags="0x204"/>
      <component glyphName="dotaccent.cap" x="90" y="0" flags="0x4"/>
    </TTGlyph>
    <TTGlyph name="Idotaccent.sc" xMin="-49" yMin="-5" xMax="349" yMax="736">
      <component glyphName="i.sc" x="0" y="0" flags="0x204"/>
      <component glyphName="dotaccent" x="28" y="15" flags="0x4"/>
    </TTGlyph>
    <TTGlyph name="Igrave" xMin="-23" yMin="-5" xMax="510" yMax="990">
      <component glyphName="I" x="0" y="0" flags="0x204"/>
      <component glyphName="grave.cap" x="50" y="0" flags="0x4"/>
    </TTGlyph>
    <TTGlyph name="Igrave.sc" xMin="-49" yMin="-5" xMax="349" yMax="776">
      <component glyphName="i.sc" x="0" y="0" flags="0x204"/>
      <component glyphName="grave" x="-27" y="15" flags="0x4"/>
    </TTGlyph>
    <TTGlyph name="Imacron" xMin="-23" yMin="-5" xMax="561" yMax="887">
      <component glyphName="I" x="0" y="0" flags="0x204"/>
      <component glyphName="macron.cap" x="53" y="0" flags="0x4"/>
    </TTGlyph>
    <TTGlyph name="Imacron.sc" xMin="-49" yMin="-5" xMax="403" yMax="666">
      <component glyphName="i.sc" x="0" y="0" flags="0x204"/>
      <component glyphName="macron" x="-13" y="15" flags="0x4"/>
    </TTGlyph>
    <TTGlyph name="Iogonek" xMin="-23" yMin="-204" xMax="510" yMax="690">
      <contour>
        <pt x="240" y="-172" on="1"/>
        <pt x="226" y="-186" on="0"/>
        <pt x="185" y="-204" on="0"/>
        <pt x="159" y="-204" on="1"/>
        <pt x="111" y="-204" on="0"/>
        <pt x="46" y="-160" on="0"/>
        <pt x="46" y="-120" on="1"/>
        <pt x="46" y="-85" on="0"/>
        <pt x="91" y="-26" on="0"/>
        <pt x="126" y="0" on="1"/>
        <pt x="92" y="-2" on="0"/>
        <pt x="17" y="-5" on="0"/>
        <pt x="-18" y="-5" on="1"/>
        <pt x="-20" y="-5" on="0"/>
        <pt x="-23" y="6" on="0"/>
        <pt x="-23" y="12" on="1"/>
        <pt x="-23" y="18" on="0"/>
        <pt x="-12" y="38" on="0"/>
        <pt x="-7" y="39" on="1"/>
        <pt x="23" y="42" on="0"/>
        <pt x="57" y="54" on="0"/>
        <pt x="77" y="74" on="0"/>
        <pt x="87" y="103" on="0"/>
        <pt x="92" y="123" on="1"/>
        <pt x="197" y="562" on="1"/>
        <pt x="199" y="572" on="0"/>
        <pt x="202" y="588" on="0"/>
        <pt x="202" y="596" on="1"/>
        <pt x="202" y="606" on="0"/>
        <pt x="199" y="622" on="0"/>
        <pt x="185" y="634" on="0"/>
        <pt x="155" y="643" on="0"/>
        <pt x="129" y="646" on="1"/>
        <pt x="127" y="647" on="0"/>
        <pt x="124" y="660" on="0"/>
        <pt x="124" y="663" on="1"/>
        <pt x="124" y="670" on="0"/>
        <pt x="134" y="690" on="0"/>
        <pt x="139" y="690" on="1"/>
        <pt x="189" y="690" on="0"/>
        <pt x="284" y="685" on="0"/>
        <pt x="324" y="685" on="1"/>
        <pt x="364" y="685" on="0"/>
        <pt x="459" y="690" on="0"/>
        <pt x="504" y="690" on="1"/>
        <pt x="510" y="690" on="0"/>
        <pt x="510" y="677" on="1"/>
        <pt x="510" y="671" on="0"/>
        <pt x="499" y="647" on="0"/>
        <pt x="494" y="646" on="1"/>
        <pt x="464" y="643" on="0"/>
        <pt x="429" y="631" on="0"/>
        <pt x="409" y="611" on="0"/>
        <pt x="399" y="582" on="0"/>
        <pt x="394" y="562" on="1"/>
        <pt x="290" y="123" on="1"/>
        <pt x="285" y="101" on="0"/>
        <pt x="285" y="89" on="1"/>
        <pt x="285" y="78" on="0"/>
        <pt x="288" y="62" on="0"/>
        <pt x="302" y="50" on="0"/>
        <pt x="331" y="42" on="0"/>
        <pt x="358" y="39" on="1"/>
        <pt x="360" y="38" on="0"/>
        <pt x="363" y="26" on="0"/>
        <pt x="363" y="22" on="1"/>
        <pt x="363" y="15" on="0"/>
        <pt x="352" y="-5" on="0"/>
        <pt x="347" y="-5" on="1"/>
        <pt x="309" y="-5" on="0"/>
        <pt x="236" y="-2" on="0"/>
        <pt x="203" y="0" on="1"/>
        <pt x="176" y="-23" on="0"/>
        <pt x="139" y="-77" on="0"/>
        <pt x="139" y="-103" on="1"/>
        <pt x="139" y="-127" on="0"/>
        <pt x="168" y="-150" on="0"/>
        <pt x="188" y="-150" on="1"/>
        <pt x="208" y="-150" on="0"/>
        <pt x="227" y="-139" on="1"/>
        <pt x="230" y="-137" on="0"/>
        <pt x="237" y="-148" on="0"/>
        <pt x="239" y="-153" on="1"/>
        <pt x="241" y="-159" on="0"/>
        <pt x="242" y="-170" on="0"/>
      </contour>
    </TTGlyph>
    <TTGlyph name="Iogonek.sc" xMin="-49" yMin="-204" xMax="349" yMax="481">
      <component glyphName="iogonek.sc" x="0" y="0" flags="0x204"/>
    </TTGlyph>
    <TTGlyph name="J" xMin="-154" yMin="-275" xMax="633" yMax="709">
      <contour>
        <pt x="633" y="635" on="1"/>
        <pt x="633" y="603" on="0"/>
        <pt x="580" y="551" on="0"/>
        <pt x="538" y="543" on="1"/>
        <pt x="530" y="526" on="0"/>
        <pt x="505" y="419" on="0"/>
        <pt x="482" y="329" on="1"/>
        <pt x="566" y="329" on="1"/>
        <pt x="569" y="328" on="0"/>
        <pt x="572" y="315" on="0"/>
        <pt x="572" y="311" on="1"/>
        <pt x="572" y="303" on="0"/>
        <pt x="564" y="280" on="0"/>
        <pt x="558" y="280" on="1"/>
        <pt x="469" y="280" on="1"/>
        <pt x="462" y="251" on="0"/>
        <pt x="454" y="219" on="0"/>
        <pt x="448" y="193" on="0"/>
        <pt x="441" y="163" on="0"/>
        <pt x="435" y="138" on="1"/>
        <pt x="414" y="48" on="0"/>
        <pt x="344" y="-104" on="0"/>
        <pt x="244" y="-213" on="0"/>
        <pt x="113" y="-275" on="0"/>
        <pt x="31" y="-275" on="1"/>
        <pt x="1" y="-275" on="0"/>
        <pt x="-65" y="-255" on="0"/>
        <pt x="-119" y="-219" on="0"/>
        <pt x="-154" y="-168" on="0"/>
        <pt x="-154" y="-136" on="1"/>
        <pt x="-154" y="-98" on="0"/>
        <pt x="-110" y="-44" on="0"/>
        <pt x="-64" y="-44" on="1"/>
        <pt x="-40" y="-44" on="0"/>
        <pt x="-7" y="-69" on="0"/>
        <pt x="16" y="-106" on="0"/>
        <pt x="33" y="-149" on="0"/>
        <pt x="49" y="-186" on="0"/>
        <pt x="68" y="-211" on="0"/>
        <pt x="83" y="-211" on="1"/>
        <pt x="98" y="-211" on="0"/>
        <pt x="132" y="-181" on="0"/>
        <pt x="169" y="-114" on="0"/>
        <pt x="208" y="-5" on="0"/>
        <pt x="227" y="75" on="1"/>
        <pt x="234" y="106" on="0"/>
        <pt x="247" y="153" on="0"/>
        <pt x="260" y="198" on="0"/>
        <pt x="276" y="247" on="0"/>
        <pt x="286" y="280" on="1"/>
        <pt x="180" y="280" on="1"/>
        <pt x="178" y="280" on="0"/>
        <pt x="174" y="292" on="0"/>
        <pt x="174" y="300" on="1"/>
        <pt x="174" y="307" on="0"/>
        <pt x="183" y="328" on="0"/>
        <pt x="188" y="329" on="1"/>
        <pt x="301" y="329" on="1"/>
        <pt x="321" y="387" on="0"/>
        <pt x="380" y="486" on="0"/>
        <pt x="414" y="525" on="1"/>
        <pt x="403" y="514" on="0"/>
        <pt x="370" y="508" on="0"/>
        <pt x="348" y="508" on="1"/>
        <pt x="325" y="508" on="0"/>
        <pt x="280" y="541" on="0"/>
        <pt x="237" y="582" on="0"/>
        <pt x="196" y="615" on="0"/>
        <pt x="177" y="615" on="1"/>
        <pt x="148" y="615" on="0"/>
        <pt x="123" y="584" on="0"/>
        <pt x="123" y="567" on="1"/>
        <pt x="123" y="555" on="0"/>
        <pt x="145" y="532" on="0"/>
        <pt x="172" y="508" on="0"/>
        <pt x="195" y="481" on="0"/>
        <pt x="195" y="466" on="1"/>
        <pt x="195" y="428" on="0"/>
        <pt x="154" y="378" on="0"/>
        <pt x="111" y="378" on="1"/>
        <pt x="73" y="378" on="0"/>
        <pt x="25" y="428" on="0"/>
        <pt x="25" y="465" on="1"/>
        <pt x="25" y="508" on="0"/>
        <pt x="61" y="595" on="0"/>
        <pt x="127" y="665" on="0"/>
        <pt x="223" y="709" on="0"/>
        <pt x="283" y="709" on="1"/>
        <pt x="326" y="709" on="0"/>
        <pt x="373" y="679" on="0"/>
        <pt x="405" y="640" on="0"/>
        <pt x="432" y="602" on="0"/>
        <pt x="454" y="594" on="1"/>
        <pt x="461" y="615" on="0"/>
        <pt x="483" y="655" on="0"/>
        <pt x="510" y="686" on="0"/>
        <pt x="542" y="705" on="0"/>
        <pt x="561" y="705" on="1"/>
        <pt x="595" y="705" on="0"/>
        <pt x="633" y="666" on="0"/>
      </contour>
    </TTGlyph>
    <TTGlyph name="J.sc" xMin="-132" yMin="-200" xMax="493" yMax="509">
      <component glyphName="j.sc" x="0" y="0" flags="0x204"/>
    </TTGlyph>
    <TTGlyph name="K" xMin="-54" yMin="-25" xMax="826" yMax="690">
      <contour>
        <pt x="826" y="673" on="1"/>
        <pt x="826" y="667" on="0"/>
        <pt x="820" y="647" on="0"/>
        <pt x="815" y="646" on="1"/>
        <pt x="773" y="641" on="0"/>
        <pt x="713" y="612" on="0"/>
        <pt x="681" y="586" on="1"/>
        <pt x="490" y="425" on="1"/>
        <pt x="647" y="107" on="1"/>
        <pt x="661" y="78" on="0"/>
        <pt x="721" y="31" on="0"/>
        <pt x="772" y="20" on="1"/>
        <pt x="775" y="19" on="0"/>
        <pt x="777" y="7" on="0"/>
        <pt x="777" y="3" on="1"/>
        <pt x="777" y="-7" on="0"/>
        <pt x="767" y="-25" on="0"/>
        <pt x="762" y="-23" on="1"/>
        <pt x="739" y="-19" on="0"/>
        <pt x="664" y="-12" on="0"/>
        <pt x="584" y="-8" on="0"/>
        <pt x="511" y="-5" on="0"/>
        <pt x="489" y="-5" on="1"/>
        <pt x="360" y="279" on="1"/>
        <pt x="353" y="295" on="0"/>
        <pt x="328" y="326" on="0"/>
        <pt x="308" y="326" on="1"/>
        <pt x="259" y="123" on="1"/>
        <pt x="254" y="101" on="0"/>
        <pt x="254" y="89" on="1"/>
        <pt x="254" y="78" on="0"/>
        <pt x="257" y="62" on="0"/>
        <pt x="271" y="50" on="0"/>
        <pt x="301" y="42" on="0"/>
        <pt x="327" y="39" on="1"/>
        <pt x="330" y="38" on="0"/>
        <pt x="332" y="26" on="0"/>
        <pt x="332" y="22" on="1"/>
        <pt x="332" y="15" on="0"/>
        <pt x="321" y="-5" on="0"/>
        <pt x="316" y="-5" on="1"/>
        <pt x="266" y="-5" on="0"/>
        <pt x="172" y="0" on="0"/>
        <pt x="131" y="0" on="1"/>
        <pt x="92" y="0" on="0"/>
        <pt x="-4" y="-5" on="0"/>
        <pt x="-49" y="-5" on="1"/>
        <pt x="-51" y="-5" on="0"/>
        <pt x="-54" y="6" on="0"/>
        <pt x="-54" y="12" on="1"/>
        <pt x="-54" y="18" on="0"/>
        <pt x="-43" y="38" on="0"/>
        <pt x="-38" y="39" on="1"/>
        <pt x="-8" y="42" on="0"/>
        <pt x="27" y="54" on="0"/>
        <pt x="47" y="74" on="0"/>
        <pt x="57" y="103" on="0"/>
        <pt x="62" y="123" on="1"/>
        <pt x="166" y="562" on="1"/>
        <pt x="168" y="572" on="0"/>
        <pt x="171" y="588" on="0"/>
        <pt x="171" y="596" on="1"/>
        <pt x="171" y="606" on="0"/>
        <pt x="168" y="622" on="0"/>
        <pt x="154" y="634" on="0"/>
        <pt x="125" y="643" on="0"/>
        <pt x="98" y="646" on="1"/>
        <pt x="96" y="647" on="0"/>
        <pt x="93" y="660" on="0"/>
        <pt x="93" y="663" on="1"/>
        <pt x="93" y="670" on="0"/>
        <pt x="104" y="690" on="0"/>
        <pt x="109" y="690" on="1"/>
        <pt x="159" y="690" on="0"/>
        <pt x="253" y="685" on="0"/>
        <pt x="294" y="685" on="1"/>
        <pt x="333" y="685" on="0"/>
        <pt x="417" y="690" on="0"/>
        <pt x="462" y="690" on="1"/>
        <pt x="467" y="690" on="0"/>
        <pt x="467" y="677" on="1"/>
        <pt x="467" y="671" on="0"/>
        <pt x="457" y="647" on="0"/>
        <pt x="452" y="646" on="1"/>
        <pt x="427" y="643" on="0"/>
        <pt x="396" y="630" on="0"/>
        <pt x="378" y="609" on="0"/>
        <pt x="368" y="580" on="0"/>
        <pt x="364" y="562" on="1"/>
        <pt x="318" y="371" on="1"/>
        <pt x="340" y="371" on="0"/>
        <pt x="365" y="383" on="0"/>
        <pt x="381" y="397" on="1"/>
        <pt x="590" y="578" on="1"/>
        <pt x="600" y="586" on="0"/>
        <pt x="615" y="607" on="0"/>
        <pt x="615" y="616" on="1"/>
        <pt x="615" y="630" on="0"/>
        <pt x="587" y="643" on="0"/>
        <pt x="562" y="646" on="1"/>
        <pt x="560" y="647" on="0"/>
        <pt x="556" y="660" on="0"/>
        <pt x="556" y="663" on="1"/>
        <pt x="556" y="670" on="0"/>
        <pt x="563" y="690" on="0"/>
        <pt x="568" y="690" on="1"/>
        <pt x="604" y="690" on="0"/>
        <pt x="670" y="685" on="0"/>
        <pt x="709" y="685" on="1"/>
        <pt x="728" y="685" on="0"/>
        <pt x="757" y="687" on="0"/>
        <pt x="781" y="688" on="0"/>
        <pt x="806" y="690" on="0"/>
        <pt x="821" y="690" on="1"/>
        <pt x="823" y="690" on="0"/>
        <pt x="826" y="679" on="0"/>
      </contour>
    </TTGlyph>
    <TTGlyph name="K.sc" xMin="-50" yMin="-19" xMax="611" yMax="481">
      <component glyphName="k.sc" x="0" y="0" flags="0x204"/>
    </TTGlyph>
    <TTGlyph name="K.swa" xMin="-15" yMin="-379" xMax="1446" yMax="739">
      <contour>
        <pt x="1446" y="-204" on="1"/>
        <pt x="1446" y="-236" on="0"/>
        <pt x="1415" y="-299" on="0"/>
        <pt x="1358" y="-348" on="0"/>
        <pt x="1276" y="-379" on="0"/>
        <pt x="1224" y="-379" on="1"/>
        <pt x="1117" y="-379" on="0"/>
        <pt x="942" y="-294" on="0"/>
        <pt x="787" y="-127" on="0"/>
        <pt x="645" y="120" on="0"/>
        <pt x="572" y="282" on="1"/>
        <pt x="564" y="298" on="0"/>
        <pt x="540" y="326" on="0"/>
        <pt x="520" y="326" on="1"/>
        <pt x="472" y="123" on="1"/>
        <pt x="467" y="101" on="0"/>
        <pt x="467" y="89" on="1"/>
        <pt x="467" y="78" on="0"/>
        <pt x="470" y="62" on="0"/>
        <pt x="484" y="50" on="0"/>
        <pt x="514" y="42" on="0"/>
        <pt x="540" y="39" on="1"/>
        <pt x="542" y="38" on="0"/>
        <pt x="545" y="26" on="0"/>
        <pt x="545" y="22" on="1"/>
        <pt x="545" y="15" on="0"/>
        <pt x="534" y="-5" on="0"/>
        <pt x="529" y="-5" on="1"/>
        <pt x="479" y="-5" on="0"/>
        <pt x="384" y="0" on="0"/>
        <pt x="344" y="0" on="1"/>
        <pt x="305" y="0" on="0"/>
        <pt x="209" y="-5" on="0"/>
        <pt x="164" y="-5" on="1"/>
        <pt x="162" y="-5" on="0"/>
        <pt x="159" y="6" on="0"/>
        <pt x="159" y="12" on="1"/>
        <pt x="159" y="18" on="0"/>
        <pt x="170" y="38" on="0"/>
        <pt x="175" y="39" on="1"/>
        <pt x="205" y="42" on="0"/>
        <pt x="239" y="54" on="0"/>
        <pt x="259" y="74" on="0"/>
        <pt x="269" y="103" on="0"/>
        <pt x="274" y="123" on="1"/>
        <pt x="383" y="580" on="1"/>
        <pt x="346" y="581" on="0"/>
        <pt x="293" y="595" on="0"/>
        <pt x="246" y="610" on="0"/>
        <pt x="197" y="622" on="0"/>
        <pt x="164" y="622" on="1"/>
        <pt x="136" y="622" on="0"/>
        <pt x="90" y="600" on="0"/>
        <pt x="58" y="563" on="0"/>
        <pt x="41" y="512" on="0"/>
        <pt x="41" y="483" on="1"/>
        <pt x="41" y="468" on="0"/>
        <pt x="51" y="439" on="0"/>
        <pt x="70" y="415" on="0"/>
        <pt x="96" y="401" on="0"/>
        <pt x="112" y="401" on="1"/>
        <pt x="128" y="401" on="0"/>
        <pt x="146" y="423" on="0"/>
        <pt x="161" y="449" on="0"/>
        <pt x="181" y="471" on="0"/>
        <pt x="198" y="471" on="1"/>
        <pt x="226" y="471" on="0"/>
        <pt x="259" y="436" on="0"/>
        <pt x="259" y="407" on="1"/>
        <pt x="259" y="392" on="0"/>
        <pt x="247" y="364" on="0"/>
        <pt x="222" y="341" on="0"/>
        <pt x="181" y="327" on="0"/>
        <pt x="153" y="327" on="1"/>
        <pt x="122" y="327" on="0"/>
        <pt x="62" y="352" on="0"/>
        <pt x="14" y="394" on="0"/>
        <pt x="-15" y="451" on="0"/>
        <pt x="-15" y="483" on="1"/>
        <pt x="-15" y="526" on="0"/>
        <pt x="30" y="606" on="0"/>
        <pt x="109" y="668" on="0"/>
        <pt x="217" y="704" on="0"/>
        <pt x="281" y="704" on="1"/>
        <pt x="307" y="704" on="0"/>
        <pt x="366" y="698" on="0"/>
        <pt x="425" y="691" on="0"/>
        <pt x="480" y="685" on="0"/>
        <pt x="503" y="685" on="1"/>
        <pt x="516" y="685" on="0"/>
        <pt x="535" y="686" on="0"/>
        <pt x="551" y="688" on="0"/>
        <pt x="568" y="690" on="0"/>
        <pt x="579" y="690" on="1"/>
        <pt x="592" y="691" on="0"/>
        <pt x="603" y="670" on="0"/>
        <pt x="600" y="658" on="1"/>
        <pt x="530" y="371" on="1"/>
        <pt x="553" y="371" on="0"/>
        <pt x="579" y="383" on="0"/>
        <pt x="594" y="397" on="1"/>
        <pt x="680" y="485" on="0"/>
        <pt x="806" y="614" on="0"/>
        <pt x="914" y="698" on="0"/>
        <pt x="1018" y="739" on="0"/>
        <pt x="1081" y="739" on="1"/>
        <pt x="1114" y="739" on="0"/>
        <pt x="1168" y="723" on="0"/>
        <pt x="1208" y="695" on="0"/>
        <pt x="1230" y="658" on="0"/>
        <pt x="1230" y="637" on="1"/>
        <pt x="1230" y="603" on="0"/>
        <pt x="1191" y="552" on="0"/>
        <pt x="1144" y="552" on="1"/>
        <pt x="1118" y="552" on="0"/>
        <pt x="1081" y="582" on="0"/>
        <pt x="1051" y="617" on="0"/>
        <pt x="1023" y="647" on="0"/>
        <pt x="1006" y="647" on="1"/>
        <pt x="979" y="647" on="0"/>
        <pt x="927" y="630" on="0"/>
        <pt x="860" y="583" on="0"/>
        <pt x="767" y="498" on="0"/>
        <pt x="699" y="430" on="1"/>
        <pt x="738" y="351" on="0"/>
        <pt x="826" y="178" on="0"/>
        <pt x="919" y="10" on="0"/>
        <pt x="1016" y="-143" on="0"/>
        <pt x="1113" y="-259" on="0"/>
        <pt x="1207" y="-327" on="0"/>
        <pt x="1252" y="-327" on="1"/>
        <pt x="1303" y="-327" on="0"/>
        <pt x="1344" y="-291" on="0"/>
        <pt x="1344" y="-258" on="1"/>
        <pt x="1344" y="-239" on="0"/>
        <pt x="1319" y="-217" on="0"/>
        <pt x="1288" y="-196" on="0"/>
        <pt x="1263" y="-170" on="0"/>
        <pt x="1263" y="-149" on="1"/>
        <pt x="1263" y="-134" on="0"/>
        <pt x="1272" y="-105" on="0"/>
        <pt x="1292" y="-81" on="0"/>
        <pt x="1326" y="-67" on="0"/>
        <pt x="1350" y="-67" on="1"/>
        <pt x="1395" y="-67" on="0"/>
        <pt x="1446" y="-143" on="0"/>
      </contour>
    </TTGlyph>
    <TTGlyph name="Kcommaaccent" xMin="-54" yMin="-342" xMax="826" yMax="690">
      <component glyphName="K" x="0" y="0" flags="0x204"/>
      <component glyphName="commaaccent" x="214" y="-4" flags="0x4"/>
    </TTGlyph>
    <TTGlyph name="Kcommaaccent.sc" xMin="-50" yMin="-338" xMax="611" yMax="481">
      <component glyphName="k.sc" x="0" y="0" flags="0x204"/>
      <component glyphName="commaaccent" x="107" y="0" flags="0x4"/>
    </TTGlyph>
    <TTGlyph name="Kcommaaccent.swa" xMin="-15" yMin="-379" xMax="1446" yMax="739">
      <component glyphName="K.swa" x="0" y="0" flags="0x204"/>
      <component glyphName="commaaccent" x="469" y="-4" flags="0x4"/>
    </TTGlyph>
    <TTGlyph name="L" xMin="-54" yMin="-6" xMax="617" yMax="690">
      <contour>
        <pt x="615" y="239" on="1"/>
        <pt x="609" y="220" on="0"/>
        <pt x="590" y="155" on="0"/>
        <pt x="571" y="83" on="0"/>
        <pt x="554" y="16" on="0"/>
        <pt x="550" y="-5" on="1"/>
        <pt x="527" y="-4" on="0"/>
        <pt x="449" y="-3" on="0"/>
        <pt x="365" y="-1" on="0"/>
        <pt x="287" y="0" on="0"/>
        <pt x="263" y="0" on="1"/>
        <pt x="239" y="0" on="0"/>
        <pt x="153" y="-1" on="0"/>
        <pt x="60" y="-3" on="0"/>
        <pt x="-25" y="-4" on="0"/>
        <pt x="-48" y="-5" on="1"/>
        <pt x="-50" y="-6" on="0"/>
        <pt x="-54" y="6" on="0"/>
        <pt x="-54" y="12" on="1"/>
        <pt x="-54" y="18" on="0"/>
        <pt x="-43" y="38" on="0"/>
        <pt x="-38" y="39" on="1"/>
        <pt x="-8" y="42" on="0"/>
        <pt x="27" y="54" on="0"/>
        <pt x="47" y="74" on="0"/>
        <pt x="57" y="103" on="0"/>
        <pt x="62" y="123" on="1"/>
        <pt x="166" y="562" on="1"/>
        <pt x="172" y="581" on="0"/>
        <pt x="172" y="596" on="1"/>
        <pt x="172" y="606" on="0"/>
        <pt x="169" y="622" on="0"/>
        <pt x="155" y="634" on="0"/>
        <pt x="125" y="643" on="0"/>
        <pt x="99" y="646" on="1"/>
        <pt x="96" y="647" on="0"/>
        <pt x="94" y="660" on="0"/>
        <pt x="94" y="663" on="1"/>
        <pt x="94" y="670" on="0"/>
        <pt x="104" y="690" on="0"/>
        <pt x="109" y="690" on="1"/>
        <pt x="159" y="690" on="0"/>
        <pt x="254" y="685" on="0"/>
        <pt x="294" y="685" on="1"/>
        <pt x="333" y="685" on="0"/>
        <pt x="429" y="690" on="0"/>
        <pt x="474" y="690" on="1"/>
        <pt x="480" y="690" on="0"/>
        <pt x="480" y="677" on="1"/>
        <pt x="480" y="671" on="0"/>
        <pt x="469" y="647" on="0"/>
        <pt x="464" y="646" on="1"/>
        <pt x="434" y="643" on="0"/>
        <pt x="399" y="631" on="0"/>
        <pt x="379" y="611" on="0"/>
        <pt x="369" y="582" on="0"/>
        <pt x="364" y="562" on="1"/>
        <pt x="263" y="139" on="1"/>
        <pt x="261" y="129" on="0"/>
        <pt x="254" y="96" on="0"/>
        <pt x="254" y="89" on="1"/>
        <pt x="254" y="66" on="0"/>
        <pt x="280" y="49" on="0"/>
        <pt x="300" y="49" on="1"/>
        <pt x="327" y="49" on="1"/>
        <pt x="365" y="49" on="0"/>
        <pt x="438" y="81" on="0"/>
        <pt x="502" y="137" on="0"/>
        <pt x="554" y="212" on="0"/>
        <pt x="571" y="254" on="1"/>
        <pt x="572" y="256" on="0"/>
        <pt x="586" y="256" on="0"/>
        <pt x="591" y="256" on="1"/>
        <pt x="600" y="256" on="0"/>
        <pt x="617" y="244" on="0"/>
      </contour>
    </TTGlyph>
    <TTGlyph name="L.sc" xMin="-50" yMin="-5" xMax="461" yMax="481">
      <component glyphName="l.sc" x="0" y="0" flags="0x204"/>
    </TTGlyph>
    <TTGlyph name="L.sc_swa" xMin="-67" yMin="-61" xMax="514" yMax="497">
      <component glyphName="l.sc_swa" x="0" y="0" flags="0x204"/>
    </TTGlyph>
    <TTGlyph name="L.swa" xMin="-85" yMin="-299" xMax="816" yMax="706">
      <contour>
        <pt x="816" y="-150" on="1"/>
        <pt x="816" y="-176" on="0"/>
        <pt x="795" y="-229" on="0"/>
        <pt x="751" y="-272" on="0"/>
        <pt x="681" y="-299" on="0"/>
        <pt x="632" y="-299" on="1"/>
        <pt x="547" y="-299" on="0"/>
        <pt x="426" y="-244" on="0"/>
        <pt x="337" y="-162" on="0"/>
        <pt x="273" y="-66" on="0"/>
        <pt x="218" y="16" on="0"/>
        <pt x="164" y="71" on="0"/>
        <pt x="129" y="71" on="1"/>
        <pt x="119" y="56" on="0"/>
        <pt x="83" y="25" on="0"/>
        <pt x="41" y="1" on="0"/>
        <pt x="-1" y="-14" on="0"/>
        <pt x="-17" y="-14" on="1"/>
        <pt x="-48" y="-14" on="0"/>
        <pt x="-85" y="8" on="0"/>
        <pt x="-85" y="39" on="1"/>
        <pt x="-85" y="54" on="0"/>
        <pt x="-67" y="85" on="0"/>
        <pt x="-31" y="114" on="0"/>
        <pt x="26" y="135" on="0"/>
        <pt x="65" y="139" on="1"/>
        <pt x="92" y="160" on="0"/>
        <pt x="121" y="261" on="0"/>
        <pt x="146" y="387" on="0"/>
        <pt x="181" y="522" on="0"/>
        <pt x="248" y="634" on="0"/>
        <pt x="358" y="706" on="0"/>
        <pt x="447" y="706" on="1"/>
        <pt x="492" y="706" on="0"/>
        <pt x="572" y="679" on="0"/>
        <pt x="630" y="636" on="0"/>
        <pt x="664" y="582" on="0"/>
        <pt x="664" y="554" on="1"/>
        <pt x="664" y="513" on="0"/>
        <pt x="619" y="467" on="0"/>
        <pt x="581" y="467" on="1"/>
        <pt x="553" y="467" on="0"/>
        <pt x="523" y="495" on="0"/>
        <pt x="506" y="538" on="0"/>
        <pt x="498" y="587" on="0"/>
        <pt x="486" y="630" on="0"/>
        <pt x="466" y="658" on="0"/>
        <pt x="447" y="658" on="1"/>
        <pt x="407" y="658" on="0"/>
        <pt x="370" y="609" on="0"/>
        <pt x="354" y="528" on="0"/>
        <pt x="346" y="422" on="0"/>
        <pt x="323" y="308" on="0"/>
        <pt x="273" y="194" on="0"/>
        <pt x="223" y="146" on="1"/>
        <pt x="239" y="151" on="0"/>
        <pt x="262" y="155" on="0"/>
        <pt x="279" y="155" on="1"/>
        <pt x="315" y="155" on="0"/>
        <pt x="384" y="95" on="0"/>
        <pt x="449" y="5" on="0"/>
        <pt x="511" y="-101" on="0"/>
        <pt x="573" y="-191" on="0"/>
        <pt x="633" y="-251" on="0"/>
        <pt x="664" y="-251" on="1"/>
        <pt x="687" y="-251" on="0"/>
        <pt x="709" y="-232" on="0"/>
        <pt x="709" y="-216" on="1"/>
        <pt x="709" y="-206" on="0"/>
        <pt x="697" y="-188" on="0"/>
        <pt x="682" y="-171" on="0"/>
        <pt x="670" y="-151" on="0"/>
        <pt x="670" y="-137" on="1"/>
        <pt x="670" y="-108" on="0"/>
        <pt x="714" y="-70" on="0"/>
        <pt x="740" y="-70" on="1"/>
        <pt x="754" y="-70" on="0"/>
        <pt x="781" y="-84" on="0"/>
        <pt x="803" y="-106" on="0"/>
        <pt x="816" y="-135" on="0"/>
      </contour>
    </TTGlyph>
    <TTGlyph name="Lacute" xMin="-54" yMin="-6" xMax="617" yMax="991">
      <component glyphName="L" x="0" y="0" flags="0x204"/>
      <component glyphName="acute.cap" x="97" y="0" flags="0x4"/>
    </TTGlyph>
    <TTGlyph name="Lacute.sc" xMin="-50" yMin="-5" xMax="461" yMax="761">
      <component glyphName="l.sc" x="0" y="0" flags="0x204"/>
      <component glyphName="acute" x="38" y="0" flags="0x4"/>
    </TTGlyph>
    <TTGlyph name="Lacute.sc_swa" xMin="-67" yMin="-61" xMax="543" yMax="786">
      <component glyphName="l.sc_swa" x="0" y="0" flags="0x204"/>
      <component glyphName="acute" x="189" y="25" flags="0x4"/>
    </TTGlyph>
    <TTGlyph name="Lacute.swa" xMin="-85" yMin="-299" xMax="816" yMax="1006">
      <component glyphName="L.swa" x="0" y="0" flags="0x204"/>
      <component glyphName="acute.cap" x="276" y="15" flags="0x4"/>
    </TTGlyph>
    <TTGlyph name="Lcaron" xMin="-54" yMin="-6" xMax="670" yMax="692">
      <component glyphName="L" x="0" y="0" flags="0x204"/>
      <component glyphName="caron.alt" x="336" y="-61" flags="0x4"/>
    </TTGlyph>
</ttFont>
